<svg xmlns="http://www.w3.org/2000/svg" xmlns:xlink="http://www.w3.org/1999/xlink" viewBox="0 0 350.04 289.99"><defs><style>.cls-1,.cls-3,.cls-5{fill:none;stroke-miterlimit:10;}.cls-1,.cls-5{stroke:#272650;}.cls-1,.cls-3{stroke-width:3px;}.cls-2{clip-path:url(#clip-path);}.cls-3{stroke:#000;}.cls-4{fill:#272650;}.cls-5{stroke-width:2.54px;}</style><clipPath id="clip-path" transform="translate(45.88 11.95)"><path id="SVGID" class="cls-1" d="M225.57,193.12v-118a15.12,15.12,0,0,0-7.31-12.95L121.35,3.67a15.15,15.15,0,0,0-15.62,0L8.81,62.12A15.12,15.12,0,0,0,1.5,75.07V193.12a15.11,15.11,0,0,0,7.31,12.95l96.92,58.45a15.11,15.11,0,0,0,15.62,0l96.91-58.45A15.11,15.11,0,0,0,225.57,193.12Z"/></clipPath></defs><g id="Layer_2" data-name="Layer 2"><g id="Layer_1-2" data-name="Layer 1"><g class="cls-2"><rect class="cls-3" x="1.5" y="1.5" width="347.04" height="286.99"/></g><path id="SVGID-2" data-name="SVGID" class="cls-1" d="M225.57,193.12v-118a15.12,15.12,0,0,0-7.31-12.95L121.35,3.67a15.15,15.15,0,0,0-15.62,0L8.81,62.12A15.12,15.12,0,0,0,1.5,75.07V193.12a15.11,15.11,0,0,0,7.31,12.95l96.92,58.45a15.11,15.11,0,0,0,15.62,0l96.91-58.45A15.11,15.11,0,0,0,225.57,193.12Z" transform="translate(45.88 11.95)"/><path class="cls-4" d="M33.3,105.27v2.51a6.29,6.29,0,0,1,5.82-2.94,6.88,6.88,0,0,1,6.4,3.44,7.42,7.42,0,0,1,6.6-3.44c4.47,0,7.33,2.8,7.33,7.63v11.08H54.61V113c0-2.62-1.56-4-3.8-4-3,0-4.32,2.61-4.32,5.12v9.43H41.65V113c0-2.62-1.6-4-3.84-4-3,0-4.32,2.61-4.32,5.12v9.43H28.65V105.27Z" transform="translate(45.88 11.95)"/><path class="cls-4" d="M81.88,113.3a10.29,10.29,0,0,1-.3,2.25H68.24c.3,2.87,2.8,4.38,5.59,4.38a6.87,6.87,0,0,0,5-2.05L81.5,121a10.81,10.81,0,0,1-7.89,3c-6.26,0-10.4-4.2-10.4-9.54a9.46,9.46,0,0,1,9.73-9.6C78.34,104.84,81.88,108.46,81.88,113.3Zm-13.64-.9h8.91v0a4,4,0,0,0-4.25-3.61A4.44,4.44,0,0,0,68.24,112.4Z" transform="translate(45.88 11.95)"/><path class="cls-4" d="M90.55,105.27v2.51a6.36,6.36,0,0,1,5.85-2.94c4.47,0,7.38,2.8,7.38,7.63v11.08H98.94V113a3.64,3.64,0,0,0-3.84-4c-3,0-4.36,2.61-4.36,5.12v9.43H85.9V105.27Z" transform="translate(45.88 11.95)"/><path class="cls-4" d="M109.51,105.27v-5h4.7v5h4.5V109h-4.5v8.13a2.34,2.34,0,0,0,2.64,2.65,4.4,4.4,0,0,0,2.35-.61v4.09a8,8,0,0,1-3.61.72c-3.88,0-6.23-2.19-6.23-6.17V109h-2.68v-3.73Z" transform="translate(45.88 11.95)"/><path class="cls-4" d="M141,114.41c0,5.37-4.21,9.57-10.06,9.57s-10.06-4.2-10.06-9.57,4.29-9.57,10.06-9.57S141,109,141,114.41Zm-15.2,0a5.14,5.14,0,1,0,5.14-5.34A5.12,5.12,0,0,0,125.79,114.41Z" transform="translate(45.88 11.95)"/><path class="cls-4" d="M149.82,108.46a5.6,5.6,0,0,1,5.4-3.62,3.68,3.68,0,0,1,1.15.14v4.48a2.72,2.72,0,0,0-1-.14c-3.39,0-5.44,2.44-5.44,6.2v8h-4.84V105.27h4.77Z" transform="translate(45.88 11.95)"/><path class="cls-4" d="M176.23,113.3a10.29,10.29,0,0,1-.3,2.25H162.59c.3,2.87,2.8,4.38,5.59,4.38a6.87,6.87,0,0,0,5-2.05l2.68,3.09a10.82,10.82,0,0,1-7.89,3c-6.26,0-10.4-4.2-10.4-9.54a9.46,9.46,0,0,1,9.72-9.6C172.69,104.84,176.23,108.46,176.23,113.3Zm-13.64-.9h8.9v0a3.94,3.94,0,0,0-4.24-3.61A4.43,4.43,0,0,0,162.59,112.4Z" transform="translate(45.88 11.95)"/><path class="cls-4" d="M193.88,120.93c-1.19,2-4,3-6.15,3-4.91,0-8.9-4-8.9-9.57s3.8-9.57,9-9.57a7.08,7.08,0,0,1,5.77,2.76V98.1h4.85v25.45h-4.55Zm-.11-6.56a5,5,0,0,0-5-5.37,5.42,5.42,0,0,0,0,10.82C191.53,119.82,193.77,117.67,193.77,114.37Z" transform="translate(45.88 11.95)"/><path class="cls-4" d="M71.38,159.23l3.28-2.33a5.33,5.33,0,0,0,4.55,2.69c1.78,0,2.87-.61,2.87-1.58,0-1.15-1-1.61-4.1-2.61-3.88-1.26-6-2.73-6-5.74s3.2-5.44,7.3-5.44a7.74,7.74,0,0,1,6.93,3.61L83,150.09a4.26,4.26,0,0,0-3.77-2.15c-1.52,0-2.68.68-2.68,1.69s1,1.47,4,2.47c3.61,1.25,6.11,2.47,6.11,5.8,0,3.09-3,5.45-7.41,5.45A8.74,8.74,0,0,1,71.38,159.23Z" transform="translate(45.88 11.95)"/><path class="cls-4" d="M95.22,147.23a7.49,7.49,0,0,1,6.11-3c4.92,0,8.94,3.94,8.94,9.56s-3.8,9.57-9,9.57a7.14,7.14,0,0,1-5.77-2.61v9.35H90.68V144.65h4.54Zm.11,6.59a5,5,0,0,0,5,5.37,5.42,5.42,0,0,0,0-10.82C97.57,148.37,95.33,150.52,95.33,153.82Z" transform="translate(45.88 11.95)"/><path class="cls-4" d="M119.14,147.83a5.6,5.6,0,0,1,5.4-3.61,3.4,3.4,0,0,1,1.15.14v4.48a2.69,2.69,0,0,0-1-.15c-3.39,0-5.44,2.44-5.44,6.2v8h-4.84V144.65h4.77Z" transform="translate(45.88 11.95)"/><path class="cls-4" d="M134.18,139.34a2.68,2.68,0,0,1-2.79,2.65,2.64,2.64,0,0,1-2.79-2.65,2.61,2.61,0,0,1,2.79-2.61A2.65,2.65,0,0,1,134.18,139.34ZM129,144.65h4.84v18.27H129Z" transform="translate(45.88 11.95)"/><path class="cls-4" d="M144,144.65v2.5c1.19-1.9,3-2.93,5.85-2.93,4.47,0,7.37,2.79,7.37,7.63v11.07H152.4V152.39c0-2.62-1.6-4-3.84-4-3,0-4.36,2.62-4.36,5.13v9.42h-4.84V144.65Z" transform="translate(45.88 11.95)"/><path class="cls-4" d="M163,144.65v-5h4.69v5h4.51v3.72h-4.51v8.14a2.35,2.35,0,0,0,2.64,2.65,4.4,4.4,0,0,0,2.35-.61v4.09a8,8,0,0,1-3.61.71c-3.88,0-6.22-2.18-6.22-6.16v-8.82h-2.69v-3.72Z" transform="translate(45.88 11.95)"/><path class="cls-4" d="M174.3,159.23l3.28-2.33a5.3,5.3,0,0,0,4.54,2.69c1.79,0,2.87-.61,2.87-1.58,0-1.15-1-1.61-4.1-2.61-3.87-1.26-6-2.73-6-5.74s3.2-5.44,7.3-5.44a7.74,7.74,0,0,1,6.93,3.61l-3.24,2.26a4.23,4.23,0,0,0-3.76-2.15c-1.53,0-2.68.68-2.68,1.69s1,1.47,3.94,2.47c3.62,1.25,6.11,2.47,6.11,5.8,0,3.09-3,5.45-7.41,5.45A8.71,8.71,0,0,1,174.3,159.23Z" transform="translate(45.88 11.95)"/><line class="cls-5" x1="112.44" y1="174.21" x2="74.53" y2="174.21"/></g></g></svg>