<svg xmlns="http://www.w3.org/2000/svg" xmlns:xlink="http://www.w3.org/1999/xlink" viewBox="0 0 379.62 286.99"><defs><style>.cls-1,.cls-10,.cls-12{fill:none;}.cls-2{isolation:isolate;}.cls-3{clip-path:url(#clip-path);}.cls-4{fill:#5936d9;}.cls-5{fill:#faddeb;}.cls-6{fill:#e75699;}.cls-7{fill:#e6e7e7;mix-blend-mode:multiply;}.cls-8{fill:#ec817d;}.cls-9{fill:#283069;}.cls-10{stroke:#36d9c8;stroke-width:2px;}.cls-10,.cls-12{stroke-miterlimit:10;}.cls-11{fill:#f9f9f9;}.cls-12{stroke:#f9f9f9;stroke-width:2.35px;}</style><clipPath id="clip-path" transform="translate(77.46 10.95)"><path id="SVGID" class="cls-1" d="M225.07,192.62v-118a15.12,15.12,0,0,0-7.31-12.95L120.85,3.17a15.15,15.15,0,0,0-15.62,0L8.31,61.62A15.12,15.12,0,0,0,1,74.57V192.62a15.11,15.11,0,0,0,7.31,12.95L105.23,264a15.11,15.11,0,0,0,15.62,0l96.91-58.45A15.11,15.11,0,0,0,225.07,192.62Z"/></clipPath></defs><g class="cls-2"><g id="Layer_2" data-name="Layer 2"><g id="Layer_1-2" data-name="Layer 1"><g class="cls-3"><rect class="cls-4" x="32.58" width="347.04" height="286.99"/><path class="cls-5" d="M198.83,92.67a21.45,21.45,0,0,1-4.05-16.31,10.78,10.78,0,0,1,1.28-3.67,6.18,6.18,0,0,1,2.47-2.35,5.09,5.09,0,0,1,1.45-.52,3.9,3.9,0,0,1,.65-.07,3,3,0,0,1,.59,0,3.81,3.81,0,0,1,1.16.4,5.44,5.44,0,0,1,1.2.9,10.57,10.57,0,0,1,2.07,3c.52,1.11,1,2.64,1.66,4.2a18.52,18.52,0,0,0,2.92,5,13.2,13.2,0,0,0,6.62,4.09,18.28,18.28,0,0,0,8.57.08,19.85,19.85,0,0,0,7.34-3.22,17.81,17.81,0,0,0,2.77-2.49,16.92,16.92,0,0,0,2-2.74,18.37,18.37,0,0,0,2.21-5.68,20.42,20.42,0,0,0,.36-5.61,17.57,17.57,0,0,0-1.33-5.67A15.44,15.44,0,0,0,235,56.72a20.06,20.06,0,0,0-2.85-2.12,27.22,27.22,0,0,0-3-1.57c-2-.9-3.94-1.55-5.69-2.15-.86-.3-1.7-.59-2.47-.88s-1.46-.56-2.15-.86A21.16,21.16,0,0,1,212,44.6a10.9,10.9,0,0,1-2-2.81,8,8,0,0,1-.78-2.95,7.79,7.79,0,0,1,.39-2.94,7,7,0,0,1,1.46-2.38,8.54,8.54,0,0,1,2.41-1.69,14.24,14.24,0,0,1,3.48-1.1,24.05,24.05,0,0,1,4.27-.38,30.48,30.48,0,0,1,4.55.29,33.77,33.77,0,0,1,4.56.92,29.44,29.44,0,0,1,4,1.44,15.92,15.92,0,0,1,3.22,2,10.7,10.7,0,0,1,2.26,2.49,17.2,17.2,0,0,1,2.41,7.11c.39,2.7.45,5.74.69,9a32,32,0,0,0,2.18,10.22,21.14,21.14,0,0,0,3,5A18.76,18.76,0,0,0,253,73.07a19.29,19.29,0,0,0,3.25,1.61,16.15,16.15,0,0,0,1.82.6l.93.25c.31.07.63.12,1,.18a25.08,25.08,0,0,0,7.63.2,26,26,0,0,0,7.19-2,21.49,21.49,0,0,0,6-3.91,16.29,16.29,0,0,0,3.82-5.35,14.26,14.26,0,0,0,1.23-5.79,14,14,0,0,0-1.2-5.61A9.63,9.63,0,0,0,284,52l-.38-.65c-.13-.21-.29-.41-.44-.62l-.45-.61-.52-.59c-.34-.39-.7-.75-1.07-1.1A30.35,30.35,0,0,0,276.48,45c-1.55-1-3-1.81-4.3-2.7-.63-.44-1.22-.89-1.75-1.34A13.58,13.58,0,0,1,269,39.48a9.86,9.86,0,0,1-1.89-3.37,6.54,6.54,0,0,1-.31-1.8,5.55,5.55,0,0,1,.21-1.8,7.31,7.31,0,0,1,2.08-3.35,8.15,8.15,0,0,1,3.88-2,14.59,14.59,0,0,1,5,0c3.5.52,7,2,11.07,2.41a16.74,16.74,0,0,0,3.09.05,14.84,14.84,0,0,0,3.05-.6,9.76,9.76,0,0,0,2.72-1.3,6.22,6.22,0,0,0,1.9-2,.31.31,0,0,0-.21-.44.5.5,0,0,0-.54.17h0A7,7,0,0,1,294.78,28a11.47,11.47,0,0,1-2.67.32,14,14,0,0,1-2.66-.26c-3.53-.65-6.67-2.33-10.59-3.3a18.39,18.39,0,0,0-6.42-.5,13.87,13.87,0,0,0-3.4.84,13.51,13.51,0,0,0-3,1.63,12.53,12.53,0,0,0-3.94,4.72,9.54,9.54,0,0,0-.82,2.8,11,11,0,0,0,0,2.81,12.48,12.48,0,0,0,2,5.16,17.08,17.08,0,0,0,1.76,2.25,22.81,22.81,0,0,0,2.1,2c1.45,1.2,2.94,2.23,4.27,3.22a23.8,23.8,0,0,1,3.39,2.9,5.55,5.55,0,0,1,.59.73l.27.36.23.38.22.38.19.41a5.73,5.73,0,0,1,.33.81,8.49,8.49,0,0,1,.46,3.46A8.88,8.88,0,0,1,274,65.27a13,13,0,0,1-7.24,2.81,12.37,12.37,0,0,1-3.84-.26l-.43-.1-.42-.14a6,6,0,0,1-.78-.3c-.26-.09-.51-.26-.77-.38s-.5-.29-.73-.46a11.47,11.47,0,0,1-4.17-5.75,25.15,25.15,0,0,1-1.08-8c0-2.93.15-6.1-.14-9.54a24.93,24.93,0,0,0-3.14-10.6,20,20,0,0,0-4.18-4.92A27.16,27.16,0,0,0,241.45,24a37,37,0,0,0-6.26-2.36,49.33,49.33,0,0,0-6.52-1.37,42.31,42.31,0,0,0-14.21.25,29.46,29.46,0,0,0-7.4,2.44,21.35,21.35,0,0,0-6.35,4.66,17.1,17.1,0,0,0-3.56,6.14,16.14,16.14,0,0,0-.66,6.31,16.32,16.32,0,0,0,1.79,6A20.53,20.53,0,0,0,202,51a28.49,28.49,0,0,0,5,3.9,36.77,36.77,0,0,0,5.66,2.89c1,.42,2,.78,3,1.11s1.89.6,2.78.88c1.77.54,3.36,1,4.69,1.58,2.69,1.11,4,2.15,5,4.17a10.26,10.26,0,0,1,.94,3.31,14.09,14.09,0,0,1-.06,3.67,10.45,10.45,0,0,1-1,3.33,8.24,8.24,0,0,1-.89,1.39,9.76,9.76,0,0,1-1.1,1.12,8,8,0,0,1-2.86,1.42,6.35,6.35,0,0,1-2.85.18l-.29-.07-.27-.09a4.16,4.16,0,0,1-.58-.26,5.94,5.94,0,0,1-1.13-.86,12.15,12.15,0,0,1-2.11-3.15c-.67-1.29-1.22-2.71-2.16-4.4a17.08,17.08,0,0,0-3.82-4.67,12.67,12.67,0,0,0-7.37-3,13.33,13.33,0,0,0-4.51.45,14,14,0,0,0-3.76,1.66,12.57,12.57,0,0,0-4.66,5.12,14.78,14.78,0,0,0-1.39,5.43,24.3,24.3,0,0,0,1.48,10,26,26,0,0,0,5.44,8.69,2.58,2.58,0,0,0,3.11.26,1.6,1.6,0,0,0,.62-2.34Z" transform="translate(77.46 10.95)"/><path class="cls-6" d="M272.54,24.29a18.31,18.31,0,0,1,6.32.51l.92.25a16.34,16.34,0,0,1-2.31.61C275.57,26,272.37,25.62,272.54,24.29ZM251.3,59.35a3.48,3.48,0,0,1-.9-3.31,3.91,3.91,0,0,1,1.54-3,4.9,4.9,0,0,1,2.6-.64v.31a26.18,26.18,0,0,0,.93,7.49,9.77,9.77,0,0,1-1.21,0A5.13,5.13,0,0,1,251.3,59.35ZM265.75,41a6.46,6.46,0,0,0-.13,2.09A5.12,5.12,0,0,0,267,44.91a2.06,2.06,0,0,1,.72,2l-.51-.4a22.81,22.81,0,0,1-2.1-2,17.08,17.08,0,0,1-1.76-2.25,12.48,12.48,0,0,1-2-5.16c0-.16,0-.33-.05-.49a6.39,6.39,0,0,1,2.92,1.13A3.77,3.77,0,0,1,265.75,41Zm3.31-11.82A7.31,7.31,0,0,0,267,32.51c0,.09-.05.18-.07.26a2.6,2.6,0,0,1-1.74-1.85,2.86,2.86,0,0,1,1.8-2.65,8.47,8.47,0,0,1,3.76-.76c.34,0,.68,0,1,0A8.22,8.22,0,0,0,269.06,29.16Zm2,41.92c1.18-.19,2.48.17,3.55-.29,2-.88,1.26-3.59,3-4.76,1.08-.73,2.7-.58,3.9-1.16a3.34,3.34,0,0,0,1.78-2.77,27.75,27.75,0,0,0-.2-3.15,3.89,3.89,0,0,1,2.33-3.49,13.94,13.94,0,0,1-.78,9.24,16.29,16.29,0,0,1-3.82,5.35,21.49,21.49,0,0,1-6,3.91,25.66,25.66,0,0,1-6.17,1.8,3,3,0,0,1,2.42-4.68Zm1.79-28.34c1.11.73,2.35,1.45,3.64,2.26a30.35,30.35,0,0,1,4.68,3.41l.42.41a4,4,0,0,1-1.86,1.12,3.18,3.18,0,0,1-3.38-.95c-.46-.73-.34-1.73-1.09-2.29s-2.28-.38-3.12-1a1.4,1.4,0,0,1-.44-1.74A3.08,3.08,0,0,1,272.84,42.74Zm4.31,15.52a4.29,4.29,0,0,1,1.09,1.15,2.16,2.16,0,0,1,.11,2.42,4.1,4.1,0,0,1-2.24,1.32l-.34.09a8.8,8.8,0,0,0,1.36-4.11A8.42,8.42,0,0,0,277.15,58.26ZM203.84,29c-.75,1.35.21,3.11-1,4.23a3.51,3.51,0,0,1-3.55.32,6.15,6.15,0,0,1-1.64-1.11,17.23,17.23,0,0,1,3.07-4.83A21.35,21.35,0,0,1,207.06,23l.05,0,0,.06a3.32,3.32,0,0,1-.85,3.79C205.5,27.56,204.34,28.1,203.84,29Zm11-1.75a4.84,4.84,0,0,1,3.3,1.17,2,2,0,0,1,.27,2.08c-.52.06-1,.13-1.52.22a14.24,14.24,0,0,0-3.48,1.1,8.65,8.65,0,0,0-1.73,1.09,6,6,0,0,1-1.47-1.5,2.51,2.51,0,0,1,.53-3.33A6,6,0,0,1,214.89,27.26ZM209.2,38.84a8,8,0,0,0,.78,2.95,10.9,10.9,0,0,0,2,2.81,17.82,17.82,0,0,0,3.32,2.68,4,4,0,0,1-.29.3,5.47,5.47,0,0,1-4.83,1.2,2.65,2.65,0,0,1-1.62-1c-.56-.89,0-2-.28-3-.5-1.48-2.94-2-3.44-3.52-.35-1,.41-2.18,1.53-2.81a7.07,7.07,0,0,1,2.87-.77A7.24,7.24,0,0,0,209.2,38.84Zm-10.54,1.32c2.39.44,4.33,2.18,4.27,4.17A5.28,5.28,0,0,1,200.76,48l-.82.65A19.3,19.3,0,0,1,198.28,46a16.32,16.32,0,0,1-1.79-6A8.28,8.28,0,0,1,198.66,40.16Zm57.27,27.72a2.74,2.74,0,0,1-.64-4.06,4.76,4.76,0,0,1,1.22-1.14,10.42,10.42,0,0,0,3.28,3.76c.23.17.49.31.73.46s.51.29.77.38a6,6,0,0,0,.78.3l.42.14.43.1a12.37,12.37,0,0,0,3.84.26l.48-.06a.06.06,0,0,1,0,0A4.23,4.23,0,0,1,266,69.85a3.4,3.4,0,0,1-2.27.79c-1.36-.06-2.28-1-3.46-1.53C258.92,68.54,257.15,68.62,255.93,67.88ZM230.32,31.56a33.77,33.77,0,0,0-4.56-.92c-.8-.11-1.61-.19-2.41-.24a3,3,0,0,1-.12-.73,3.36,3.36,0,0,1,2.07-3.07,5.64,5.64,0,0,1,3.63-.18,14.12,14.12,0,0,1,3.19,1.41,8,8,0,0,1,3.35,2.67,6.08,6.08,0,0,1,.35,3.27c-.46-.27-.94-.53-1.46-.77A29.44,29.44,0,0,0,230.32,31.56ZM220.94,50c.77.29,1.61.58,2.47.88,1.71.59,3.6,1.23,5.56,2.09-.06.28-.14.57-.22.85a3.06,3.06,0,0,1-1.2,1.85,5.34,5.34,0,0,1-2.83.56,7.21,7.21,0,0,1-3.69-.59,3,3,0,0,1-1.41-2.4A4.28,4.28,0,0,1,220.9,50Zm3.33-27.94c-2.06,0-4.15.45-6.18.26a4.87,4.87,0,0,1-3.58-1.81,42.27,42.27,0,0,1,14.16-.24c1.27.18,2.5.41,3.72.67a7.67,7.67,0,0,1-3.3,1.33A40.82,40.82,0,0,1,224.27,22.06ZM241.13,29a3.64,3.64,0,0,1-1.11-2.1,11.1,11.1,0,0,1-.28-3.1,3.07,3.07,0,0,1,.06-.52c.55.24,1.1.48,1.65.75a27.16,27.16,0,0,1,5.63,3.65l.66.59a9.72,9.72,0,0,1-1.5.88C244.62,29.9,242.37,30,241.13,29Zm5.76,23.47c.86,1,.39,2.48-.66,3.43a9.13,9.13,0,0,1-2.83,1.68c-.22-1.37-.36-2.72-.46-4-.06-.78-.1-1.54-.15-2.3.27,0,.54,0,.8,0A4.87,4.87,0,0,1,246.89,52.44ZM196.06,72.69a9.79,9.79,0,0,0-.61,1.26l-.1-.09a2.69,2.69,0,0,1-.41-3.34c.81-1.26,2.67-1.9,4.41-2A4.72,4.72,0,0,1,203,69.61a2.78,2.78,0,0,1,.57,1.49,5.44,5.44,0,0,0-1.2-.9,3.81,3.81,0,0,0-1.16-.4,3,3,0,0,0-.59,0,3.9,3.9,0,0,0-.65.07,5.09,5.09,0,0,0-1.45.52A6.18,6.18,0,0,0,196.06,72.69ZM194.19,91.2a1.66,1.66,0,0,1-.9,1.44,26.11,26.11,0,0,1-2.18-3.4C192.39,89.59,194.09,90.18,194.19,91.2Zm15.74-24.67a17,17,0,0,1,3.76,4.61c.84,1.51,1.36,2.79,1.94,4a3.07,3.07,0,0,1-2.45.29,2.81,2.81,0,0,1-1.54-1.58,7.55,7.55,0,0,0-1-1.91c-.7-.81-2-1.29-2.45-2.2C207.59,68.57,208.49,67.09,209.93,66.53Zm-2.38-14.69c1.67.22,3.28,1,3.77,2.31a5.71,5.71,0,0,0,.59,1.65,3.51,3.51,0,0,0,2.47.92,10.16,10.16,0,0,1,2.79.36,2.47,2.47,0,0,1,1.63,2.84l-.39-.12c-.89-.28-1.81-.56-2.78-.88s-2-.69-3-1.11A36.77,36.77,0,0,1,207,54.92,29.82,29.82,0,0,1,203.06,52,13.93,13.93,0,0,1,207.55,51.84ZM194.62,82A21.42,21.42,0,0,0,196,87.64a4,4,0,0,1-2.14-.13,3.36,3.36,0,0,1-2.14-2.29,2.31,2.31,0,0,1,.23-1.81A3.87,3.87,0,0,1,194.62,82Zm-6-8.63a3.91,3.91,0,0,1,1.54.93,3.17,3.17,0,0,1,1,3,3.42,3.42,0,0,1-1.76,2.32,3.88,3.88,0,0,1-1.17.36,24.06,24.06,0,0,1-.06-3.8A16.79,16.79,0,0,1,188.62,73.34Zm5.61-7.76A14,14,0,0,1,198,63.92a13.43,13.43,0,0,1,2.88-.47,1.89,1.89,0,0,1-.86,1.32,6.33,6.33,0,0,1-2.52.72,4.35,4.35,0,0,0-2.32,1.45,3.63,3.63,0,0,1-3.34.58A12.49,12.49,0,0,1,194.23,65.58Zm58.05,2.83c1.27,1,1.23,2.8,2.67,3.63,1.15.67,2.8.44,4.15.83a4.35,4.35,0,0,1,2.65,2.29c.14.29.26.57.37.85-.72-.07-1.43-.16-2.14-.3-.32-.06-.64-.11-1-.18l-.93-.25a16.15,16.15,0,0,1-1.82-.6A19.29,19.29,0,0,1,253,73.07a18.76,18.76,0,0,1-4.91-4.32l-.27-.35A4.38,4.38,0,0,1,252.28,68.41Zm-12.44-31a10.76,10.76,0,0,0-.7-.93,3.84,3.84,0,0,1,.52-.33,3.37,3.37,0,0,1,3.3,0,2.54,2.54,0,0,1,.86,2.41,6.25,6.25,0,0,0,0,2.62c.42,1.2,1.86,2.08,2,3.34.13,1.63-1.5,2.65-3.23,2.82-.08-1-.17-1.93-.3-2.83A17.2,17.2,0,0,0,239.84,37.44Zm11.93-1.82a4.48,4.48,0,0,1,1,0,27.65,27.65,0,0,1,1.66,7.51c.11,1.29.15,2.54.16,3.75a3.17,3.17,0,0,1-2.16.14,2.51,2.51,0,0,1-1.53-2.61,7.82,7.82,0,0,0-.08-3.09c-.47-1.2-1.93-2.11-1.92-3.39S250.3,35.74,251.77,35.62Zm-14.68,30a6,6,0,0,1-2.74-3,1.78,1.78,0,0,1,.44-2.2,3.27,3.27,0,0,1,1.8-.42l1.15,0a15,15,0,0,1,1,2,16.89,16.89,0,0,1,1.09,3.74A2.72,2.72,0,0,1,237.09,65.66Zm.65,13a3.72,3.72,0,0,1-.19.34,16.92,16.92,0,0,1-2,2.74,17.81,17.81,0,0,1-2.77,2.49l-.49.34a3.44,3.44,0,0,1-.36-.28,2.59,2.59,0,0,1-.34-3.57A7.52,7.52,0,0,1,237.74,78.71Zm-18.15,4.86a7.4,7.4,0,0,1,5.29,2.67,7.56,7.56,0,0,1,.71,1.22l-.17,0a18.28,18.28,0,0,1-8.57-.08,13.75,13.75,0,0,1-3.53-1.5c.1-.12.19-.24.3-.35A8,8,0,0,1,219.59,83.57Zm-9.66-4.95a3,3,0,0,1,.79,3.63,2.87,2.87,0,0,1-.65.88,18.54,18.54,0,0,1-2.76-4.79l-.24-.61A4.91,4.91,0,0,1,209.93,78.62Zm19-6.09a14.09,14.09,0,0,0,.06-3.67,13.1,13.1,0,0,0-.27-1.44,7.29,7.29,0,0,1,3.6.77,3.21,3.21,0,0,1,1.6,4.23c-.46.86-1.38,1.55-1.78,2.43s-.29,1.93-1.14,2.58a3.14,3.14,0,0,1-3.57-.35l-.2-.16a7.79,7.79,0,0,0,.66-1.06A10.45,10.45,0,0,0,229,72.53Z" transform="translate(77.46 10.95)"/><path class="cls-7" d="M276.94,27.07a18.39,18.39,0,0,1,3.2.22c3.5.53,7,2,11.07,2.41h0a17.66,17.66,0,0,1-2.19-.09c-4-.42-7.57-1.89-11.07-2.41ZM274,65.27a8.88,8.88,0,0,0,3.13-6.14,8.49,8.49,0,0,0-.46-3.46,5.73,5.73,0,0,0-.33-.81l-.19-.41-.22-.38-.23-.38-.27-.36a5.55,5.55,0,0,0-.59-.73,23.8,23.8,0,0,0-3.39-2.9c-1.33-1-2.82-2-4.27-3.22a22.81,22.81,0,0,1-2.1-2,17.08,17.08,0,0,1-1.76-2.25,12.48,12.48,0,0,1-2-5.16,11,11,0,0,1,0-2.81,9.54,9.54,0,0,1,.82-2.8,12.53,12.53,0,0,1,3.94-4.72,13.51,13.51,0,0,1,3-1.63,13.87,13.87,0,0,1,3.4-.84,15.69,15.69,0,0,1,3.56,0q-.69,0-1.38.09a13.87,13.87,0,0,0-3.4.84,13.51,13.51,0,0,0-3,1.63,12.53,12.53,0,0,0-3.94,4.72,9.54,9.54,0,0,0-.82,2.8,11,11,0,0,0,0,2.81,12.48,12.48,0,0,0,2,5.16,17.85,17.85,0,0,0,1.76,2.26,24.14,24.14,0,0,0,2.1,2c1.45,1.2,2.94,2.23,4.27,3.22a24.46,24.46,0,0,1,3.39,2.9,6.3,6.3,0,0,1,.59.73l.27.36.23.38.22.38.19.41a6.25,6.25,0,0,1,.33.81,8.49,8.49,0,0,1,.46,3.46,8.92,8.92,0,0,1-3.13,6.15,13,13,0,0,1-7.24,2.8,12.52,12.52,0,0,1-2.75-.07l.57,0A13,13,0,0,0,274,65.27Zm25-39.82h0a.5.5,0,0,1,.54-.17.31.31,0,0,1,.21.44,6.22,6.22,0,0,1-1.9,2l-.34.21a5.69,5.69,0,0,1-.59.16,12,12,0,0,1-2.67.33,15.24,15.24,0,0,1-1.65-.11,11.87,11.87,0,0,0,2.14-.31A7,7,0,0,0,299,25.45ZM202.81,69.84a3,3,0,0,1,.59,0,3.81,3.81,0,0,1,1.16.4,5.21,5.21,0,0,1,1.2.91,10.51,10.51,0,0,1,2.07,3c.52,1.11,1,2.64,1.66,4.2a18.38,18.38,0,0,0,2.92,5A13.2,13.2,0,0,0,219,87.51a17,17,0,0,0,2.53.45,17.18,17.18,0,0,1-4.71-.54,13.2,13.2,0,0,1-6.62-4.09,18.52,18.52,0,0,1-2.92-5c-.65-1.56-1.14-3.09-1.66-4.2a10.57,10.57,0,0,0-2.07-3,5.44,5.44,0,0,0-1.2-.9,5.23,5.23,0,0,0-.51-.22l.29-.07A3.9,3.9,0,0,1,202.81,69.84Zm-13.24.86a12.57,12.57,0,0,1,4.66-5.12A14,14,0,0,1,198,63.92a13.33,13.33,0,0,1,4.51-.45c.23,0,.46,0,.69.07a12.88,12.88,0,0,0-3,.47,14,14,0,0,0-3.76,1.66,12.57,12.57,0,0,0-4.66,5.12,14.83,14.83,0,0,0-1.39,5.44,24.25,24.25,0,0,0,1.48,9.94,25.88,25.88,0,0,0,5.44,8.69,2.05,2.05,0,0,0,.52.38,2.54,2.54,0,0,1-2.7-.47,26,26,0,0,1-5.44-8.69,24.3,24.3,0,0,1-1.48-10A14.78,14.78,0,0,1,189.57,70.7ZM222.12,80h0a5.87,5.87,0,0,0,1-.2,8,8,0,0,0,2.86-1.42,9.76,9.76,0,0,0,1.1-1.12,8.24,8.24,0,0,0,.89-1.39,10.45,10.45,0,0,0,1-3.33,14.09,14.09,0,0,0,.06-3.67,10.26,10.26,0,0,0-.94-3.31c-1-2-2.3-3.06-5-4.17-1.33-.54-2.92-1-4.69-1.58-.89-.28-1.81-.56-2.78-.88s-2-.69-3-1.11A36.77,36.77,0,0,1,207,54.92a28.49,28.49,0,0,1-5-3.9,20.53,20.53,0,0,1-3.75-5,16.32,16.32,0,0,1-1.79-6,16.14,16.14,0,0,1,.66-6.31,17.1,17.1,0,0,1,3.56-6.14A21.35,21.35,0,0,1,207.06,23a29.46,29.46,0,0,1,7.4-2.44,41,41,0,0,1,10.67-.63,40.15,40.15,0,0,0-8.49.72,29.46,29.46,0,0,0-7.4,2.44,21.52,21.52,0,0,0-6.35,4.66,17.06,17.06,0,0,0-3.56,6.15,16.09,16.09,0,0,0-.66,6.3,16.32,16.32,0,0,0,1.79,6,20.34,20.34,0,0,0,3.75,5,28.49,28.49,0,0,0,5,3.9,36.77,36.77,0,0,0,5.66,2.89c1,.42,2,.78,3,1.11s1.89.61,2.78.88c1.77.54,3.36,1,4.69,1.58,2.69,1.11,4,2.15,5,4.17a10.52,10.52,0,0,1,.94,3.31,14.09,14.09,0,0,1-.06,3.67,10.45,10.45,0,0,1-1,3.33,7.7,7.7,0,0,1-.9,1.39,8.31,8.31,0,0,1-1.09,1.12,8.18,8.18,0,0,1-2.86,1.43,6.48,6.48,0,0,1-2.85.17Zm8.2-48.43a33.77,33.77,0,0,0-4.56-.92c-.61-.09-1.23-.15-1.84-.2a30.31,30.31,0,0,1,4,.29,33.31,33.31,0,0,1,4.55.92,29.11,29.11,0,0,1,4,1.44A16.38,16.38,0,0,1,239.76,35a10.74,10.74,0,0,1,2.26,2.5,17,17,0,0,1,2.4,7.1c.4,2.7.46,5.74.7,9a31.92,31.92,0,0,0,2.18,10.22,21.14,21.14,0,0,0,3,5,20.35,20.35,0,0,0,2.18,2.3,19.7,19.7,0,0,0,2.73,2,18.56,18.56,0,0,0,3.25,1.61,16.15,16.15,0,0,0,1.82.6l.93.25c.31.07.63.12,1,.18.75.14,1.51.24,2.27.31a23.76,23.76,0,0,1-4.45-.4c-.32-.06-.64-.11-1-.18l-.93-.25a16.15,16.15,0,0,1-1.82-.6A19.29,19.29,0,0,1,253,73.07a18.76,18.76,0,0,1-4.91-4.32,21.14,21.14,0,0,1-3-5,32,32,0,0,1-2.18-10.22c-.24-3.24-.3-6.28-.69-9a17.2,17.2,0,0,0-2.41-7.11A10.7,10.7,0,0,0,237.58,35a15.92,15.92,0,0,0-3.22-2A29.44,29.44,0,0,0,230.32,31.56Z" transform="translate(77.46 10.95)"/><polygon class="cls-8" points="280.31 115.53 280.79 115.33 278.69 111.81 278.21 112.01 280.31 115.53"/><path class="cls-8" d="M202.27,106.47a.27.27,0,0,0,.27-.14l.71-1.58,1.94.48a.28.28,0,0,0,.33-.13.2.2,0,0,0-.15-.27l-2.43-.61-.89,2a.2.2,0,0,0,.16.27Z" transform="translate(77.46 10.95)"/><path class="cls-5" d="M202.8,94.94c-1.59-2.67-4.2-3-6.59-2s-3.66,2.93-2.07,5.6,5.44,5.06,7.83,4.07S204.4,97.61,202.8,94.94Z" transform="translate(77.46 10.95)"/><path class="cls-9" d="M202.24,97a.63.63,0,0,0-.77-.2.45.45,0,0,0-.28.63.64.64,0,0,0,.77.19A.44.44,0,0,0,202.24,97Z" transform="translate(77.46 10.95)"/><path class="cls-9" d="M196.42,99.37a.45.45,0,0,1,.28-.63.63.63,0,0,1,.77.2.44.44,0,0,1-.28.62A.63.63,0,0,1,196.42,99.37Z" transform="translate(77.46 10.95)"/><path class="cls-5" d="M23.54,169.83a21.48,21.48,0,0,1,4,16.31,10.38,10.38,0,0,1-1.28,3.67,6.09,6.09,0,0,1-2.46,2.35,5,5,0,0,1-1.46.52,3.68,3.68,0,0,1-.64.07,3,3,0,0,1-.59-.05,3.81,3.81,0,0,1-1.16-.4,5.44,5.44,0,0,1-1.2-.9,10.37,10.37,0,0,1-2.07-3c-.53-1.11-1-2.64-1.67-4.2a18.21,18.21,0,0,0-2.91-5,13.28,13.28,0,0,0-6.63-4.09A18.27,18.27,0,0,0-3.06,175a20,20,0,0,0-7.34,3.22,18.19,18.19,0,0,0-2.76,2.49,16.92,16.92,0,0,0-2,2.74,18.37,18.37,0,0,0-2.21,5.68,20.83,20.83,0,0,0-.37,5.61,17.59,17.59,0,0,0,1.34,5.67,15.44,15.44,0,0,0,3.82,5.37,19.51,19.51,0,0,0,2.85,2.12,27.22,27.22,0,0,0,3,1.57c2,.9,3.94,1.55,5.68,2.15.87.3,1.7.59,2.47.88s1.47.56,2.15.86a21.1,21.1,0,0,1,6.83,4.54,11.14,11.14,0,0,1,2,2.81,8.17,8.17,0,0,1,.78,2.95,7.79,7.79,0,0,1-.4,2.94A6.83,6.83,0,0,1,11.32,229a8.68,8.68,0,0,1-2.41,1.69,14.24,14.24,0,0,1-3.48,1.1,24.05,24.05,0,0,1-4.27.38,30.4,30.4,0,0,1-4.55-.29,33.77,33.77,0,0,1-4.56-.92,29.11,29.11,0,0,1-4-1.44,16.2,16.2,0,0,1-3.22-1.95,10.66,10.66,0,0,1-2.25-2.49A17.06,17.06,0,0,1-19.88,218c-.4-2.7-.45-5.74-.7-9a31.83,31.83,0,0,0-2.17-10.21,21,21,0,0,0-3-5,21.29,21.29,0,0,0-2.18-2.3,21.21,21.21,0,0,0-2.73-2,19.67,19.67,0,0,0-3.25-1.61,16.84,16.84,0,0,0-1.82-.6l-.93-.25-1-.18a25.08,25.08,0,0,0-7.63-.2,25.92,25.92,0,0,0-7.19,1.95,21.35,21.35,0,0,0-6,3.91,16.29,16.29,0,0,0-3.82,5.35,14.27,14.27,0,0,0-1.24,5.79,14.18,14.18,0,0,0,1.21,5.61,10.84,10.84,0,0,0,.66,1.32l.39.65c.13.21.29.41.44.62l.45.61.51.59c.34.39.71.75,1.08,1.1a29.81,29.81,0,0,0,4.67,3.41c1.56,1,3,1.81,4.3,2.7a21.86,21.86,0,0,1,1.76,1.34A12.64,12.64,0,0,1-46.61,223a9.89,9.89,0,0,1,1.9,3.37,6.93,6.93,0,0,1,.31,1.8,5.55,5.55,0,0,1-.21,1.8,7.34,7.34,0,0,1-2.09,3.35,8.07,8.07,0,0,1-3.87,2,14.65,14.65,0,0,1-5,0c-3.49-.52-7-2-11.06-2.41a16.84,16.84,0,0,0-3.1,0,14.75,14.75,0,0,0-3,.6,9.76,9.76,0,0,0-2.72,1.3,6.22,6.22,0,0,0-1.9,2,.3.3,0,0,0,.21.44.5.5,0,0,0,.54-.17h0a7,7,0,0,1,4.25-2.59,11.55,11.55,0,0,1,2.68-.32,13.92,13.92,0,0,1,2.65.26c3.54.65,6.68,2.33,10.6,3.3a18.39,18.39,0,0,0,6.42.5,13.87,13.87,0,0,0,3.4-.84,13.51,13.51,0,0,0,3-1.63A12.46,12.46,0,0,0-39.76,231a9.52,9.52,0,0,0,.81-2.8,10.17,10.17,0,0,0,0-2.81,12.21,12.21,0,0,0-2-5.16A17,17,0,0,0-42.71,218a22.91,22.91,0,0,0-2.11-2c-1.45-1.2-2.93-2.23-4.26-3.22a23.92,23.92,0,0,1-3.4-2.9,6.39,6.39,0,0,1-.58-.73l-.27-.36-.23-.38c-.07-.13-.16-.25-.23-.38l-.18-.41a7.27,7.27,0,0,1-.34-.81,8.66,8.66,0,0,1-.46-3.46,8.88,8.88,0,0,1,3.13-6.14,13,13,0,0,1,7.25-2.81,12.33,12.33,0,0,1,3.83.26l.44.1.41.14a6.16,6.16,0,0,1,.79.3c.26.09.51.26.77.38s.5.29.73.46a11.53,11.53,0,0,1,4.17,5.75,25.16,25.16,0,0,1,1.07,8c0,2.93-.14,6.1.15,9.54a24.91,24.91,0,0,0,3.13,10.6,20.31,20.31,0,0,0,4.19,4.92,27.16,27.16,0,0,0,5.63,3.65,36.4,36.4,0,0,0,6.26,2.36,49,49,0,0,0,6.52,1.37A42.31,42.31,0,0,0,7.91,242a29.59,29.59,0,0,0,7.4-2.44,21.61,21.61,0,0,0,6.35-4.66,17.1,17.1,0,0,0,3.56-6.14,16.13,16.13,0,0,0,.65-6.31,16.32,16.32,0,0,0-1.79-6,20.28,20.28,0,0,0-3.75-5,28,28,0,0,0-5-3.9,36.87,36.87,0,0,0-5.67-2.89c-1-.42-2-.78-3-1.11S4.84,203,4,202.7c-1.77-.54-3.36-1-4.69-1.58-2.68-1.11-4-2.15-5-4.17a10.26,10.26,0,0,1-.94-3.31,14.09,14.09,0,0,1,0-3.67,10.71,10.71,0,0,1,1-3.33,8.28,8.28,0,0,1,.9-1.39,9.71,9.71,0,0,1,1.09-1.12,8,8,0,0,1,2.87-1.42,6.34,6.34,0,0,1,2.85-.18l.29.07.27.09a3.6,3.6,0,0,1,.57.26,5.69,5.69,0,0,1,1.14.86A12.41,12.41,0,0,1,6.52,187c.67,1.29,1.22,2.71,2.16,4.4A17.27,17.27,0,0,0,12.5,196a12.94,12.94,0,0,0,3.14,2,12.7,12.7,0,0,0,4.22,1,13.3,13.3,0,0,0,4.51-.45,13.94,13.94,0,0,0,3.77-1.66,12.64,12.64,0,0,0,4.66-5.12,14.78,14.78,0,0,0,1.39-5.43,24.3,24.3,0,0,0-1.48-10,26,26,0,0,0-5.44-8.69,2.58,2.58,0,0,0-3.11-.26,1.6,1.6,0,0,0-.63,2.34Z" transform="translate(77.46 10.95)"/><path class="cls-6" d="M-50.18,238.21a18.25,18.25,0,0,1-6.31-.51l-.92-.25a16.58,16.58,0,0,1,2.3-.61C-53.2,236.49-50,236.88-50.18,238.21Zm21.25-35.06a3.45,3.45,0,0,1,.89,3.31,3.87,3.87,0,0,1-1.53,3,4.92,4.92,0,0,1-2.6.64c0-.1,0-.21,0-.31a26.19,26.19,0,0,0-.92-7.49,9.77,9.77,0,0,1,1.21,0A5.13,5.13,0,0,1-28.93,203.15Zm-14.46,18.37a6.46,6.46,0,0,0,.13-2.09,4.9,4.9,0,0,0-1.35-1.84,2.08,2.08,0,0,1-.71-2c.17.13.34.26.5.4a22.91,22.91,0,0,1,2.11,2A17,17,0,0,1-41,220.24a12.21,12.21,0,0,1,2,5.16,4.07,4.07,0,0,1,.05.49,6.35,6.35,0,0,1-2.91-1.13A3.81,3.81,0,0,1-43.39,221.52Zm-3.31,11.82A7.34,7.34,0,0,0-44.61,230c0-.09,0-.18.06-.26a2.62,2.62,0,0,1,1.75,1.85,2.87,2.87,0,0,1-1.8,2.65,8.53,8.53,0,0,1-3.76.76c-.34,0-.68,0-1,0A8.27,8.27,0,0,0-46.7,233.34Zm-2-41.92c-1.19.19-2.48-.17-3.56.29-2,.88-1.26,3.59-3,4.76-1.09.73-2.7.58-3.9,1.16a3.33,3.33,0,0,0-1.79,2.77,27.77,27.77,0,0,0,.21,3.15A3.93,3.93,0,0,1-63.07,207a14.33,14.33,0,0,1-.46-3.45,14.27,14.27,0,0,1,1.24-5.79,16.29,16.29,0,0,1,3.82-5.35,21.35,21.35,0,0,1,6-3.91,25.71,25.71,0,0,1,6.16-1.8A3.19,3.19,0,0,1-45.8,188,3.33,3.33,0,0,1-48.68,191.42Zm-1.79,28.34c-1.12-.73-2.35-1.45-3.65-2.26a29.81,29.81,0,0,1-4.67-3.41l-.42-.41a3.92,3.92,0,0,1,1.85-1.12,3.17,3.17,0,0,1,3.38.95c.47.73.35,1.73,1.1,2.29s2.28.38,3.12,1a1.39,1.39,0,0,1,.43,1.74A3.06,3.06,0,0,1-50.47,219.76Zm-4.31-15.52a4,4,0,0,1-1.09-1.15,2.16,2.16,0,0,1-.11-2.42,4.11,4.11,0,0,1,2.23-1.32l.34-.09a8.91,8.91,0,0,0-1.36,4.11A8.42,8.42,0,0,0-54.78,204.24Zm73.31,29.25c.75-1.35-.21-3.11,1-4.23a3.51,3.51,0,0,1,3.55-.32,6.15,6.15,0,0,1,1.64,1.11,17.42,17.42,0,0,1-3.06,4.83,21.61,21.61,0,0,1-6.35,4.66l-.06,0,0-.06a3.31,3.31,0,0,1,.85-3.79C16.87,234.94,18,234.4,18.53,233.49Zm-11,1.75a4.82,4.82,0,0,1-3.3-1.17A2,2,0,0,1,3.91,232c.52-.06,1-.13,1.52-.22a14.24,14.24,0,0,0,3.48-1.1,8.65,8.65,0,0,0,1.73-1.09,6.19,6.19,0,0,1,1.47,1.5,2.51,2.51,0,0,1-.54,3.33A6,6,0,0,1,7.48,235.24Zm5.69-11.58a8.17,8.17,0,0,0-.78-2.95,11.14,11.14,0,0,0-2-2.81,18.5,18.5,0,0,0-3.32-2.68,2.56,2.56,0,0,1,.28-.3,5.49,5.49,0,0,1,4.84-1.2,2.59,2.59,0,0,1,1.61,1c.57.89,0,2,.29,3,.5,1.48,2.93,2.05,3.44,3.52.35,1-.41,2.18-1.54,2.81a7,7,0,0,1-2.86.77A8.68,8.68,0,0,0,13.17,223.66Zm10.53-1.32c-2.38-.44-4.33-2.18-4.27-4.17a5.26,5.26,0,0,1,2.18-3.66c.24-.2.51-.42.81-.65a17.53,17.53,0,0,1,1.66,2.62,16.32,16.32,0,0,1,1.79,6A8.28,8.28,0,0,1,23.7,222.34Zm-57.26-27.72a2.76,2.76,0,0,1,.64,4.06,4.76,4.76,0,0,1-1.22,1.14,10.61,10.61,0,0,0-3.28-3.76c-.23-.17-.49-.31-.73-.46s-.51-.29-.77-.38a6.16,6.16,0,0,0-.79-.3l-.41-.14-.44-.1a12.33,12.33,0,0,0-3.83-.26l-.49.06a.06.06,0,0,0,0,0,4.25,4.25,0,0,1,1.22-1.79,3.36,3.36,0,0,1,2.27-.79c1.35.06,2.27,1,3.46,1.53C-36.55,194-34.79,193.88-33.56,194.62Zm25.61,36.32a33.77,33.77,0,0,0,4.56.92c.8.11,1.6.19,2.41.24a3,3,0,0,1,.11.73,3.35,3.35,0,0,1-2.07,3.07,5.64,5.64,0,0,1-3.63.18,14.52,14.52,0,0,1-3.19-1.41A8,8,0,0,1-13.1,232a6.07,6.07,0,0,1-.36-3.27c.47.27,1,.53,1.46.77A29.11,29.11,0,0,0-7.95,230.94ZM1.42,212.5c-.77-.29-1.6-.58-2.47-.88-1.71-.59-3.59-1.23-5.55-2.09.06-.28.13-.57.22-.85a3,3,0,0,1,1.2-1.85,5.34,5.34,0,0,1,2.83-.56,7.22,7.22,0,0,1,3.69.59,3,3,0,0,1,1.41,2.4,4.29,4.29,0,0,1-1.29,3.25ZM-1.9,240.44c2.06,0,4.14-.45,6.18-.26A4.89,4.89,0,0,1,7.86,242a42.27,42.27,0,0,1-14.16.24c-1.27-.18-2.5-.41-3.72-.67a7.67,7.67,0,0,1,3.3-1.33A40.91,40.91,0,0,1-1.9,240.44Zm-16.86-6.91a3.76,3.76,0,0,1,1.11,2.1,11.1,11.1,0,0,1,.28,3.1,4.6,4.6,0,0,1-.06.52q-.84-.34-1.65-.75a27.16,27.16,0,0,1-5.63-3.65c-.23-.19-.45-.39-.66-.59a9.26,9.26,0,0,1,1.5-.88C-22.26,232.6-20,232.49-18.76,233.53Zm-5.77-23.47c-.86-1-.38-2.48.67-3.43A9,9,0,0,1-21,205c.22,1.37.35,2.72.45,4,.06.78.11,1.54.15,2.3l-.8,0A4.89,4.89,0,0,1-24.53,210.06ZM26.3,189.81a7.72,7.72,0,0,0,.61-1.26l.1.09a2.71,2.71,0,0,1,.42,3.34c-.81,1.26-2.68,1.9-4.41,2a4.72,4.72,0,0,1-3.66-1.08,2.71,2.71,0,0,1-.57-1.49,5.44,5.44,0,0,0,1.2.9,3.81,3.81,0,0,0,1.16.4,3,3,0,0,0,.59.05,3.68,3.68,0,0,0,.64-.07,5,5,0,0,0,1.46-.52A6.09,6.09,0,0,0,26.3,189.81Zm1.88-18.51a1.67,1.67,0,0,1,.89-1.44,25.18,25.18,0,0,1,2.19,3.4C30,172.91,28.28,172.32,28.18,171.3ZM12.43,196a17.1,17.1,0,0,1-3.75-4.61c-.84-1.51-1.37-2.79-1.94-4a3,3,0,0,1,2.44-.29,2.78,2.78,0,0,1,1.54,1.58,7.88,7.88,0,0,0,1,1.91c.71.81,2,1.29,2.46,2.2C14.78,193.93,13.87,195.41,12.43,196Zm2.39,14.69c-1.67-.22-3.29-1-3.77-2.31a5.73,5.73,0,0,0-.6-1.65A3.49,3.49,0,0,0,8,205.78a10.24,10.24,0,0,1-2.8-.36,2.49,2.49,0,0,1-1.63-2.84l.39.12c.89.28,1.82.56,2.79.88s2,.69,3,1.11a36.87,36.87,0,0,1,5.67,2.89,29.72,29.72,0,0,1,3.93,2.93A13.87,13.87,0,0,1,14.82,210.66Zm12.93-30.13a21.44,21.44,0,0,0-1.42-5.67,4,4,0,0,1,2.15.13,3.36,3.36,0,0,1,2.14,2.29,2.28,2.28,0,0,1-.24,1.81A3.85,3.85,0,0,1,27.75,180.53Zm6,8.63a4,4,0,0,1-1.55-.93,3.19,3.19,0,0,1-1-3A3.4,3.4,0,0,1,33,182.93a3.74,3.74,0,0,1,1.16-.36,24,24,0,0,1,.07,3.8A16.79,16.79,0,0,1,33.75,189.16Zm-5.61,7.76a13.94,13.94,0,0,1-3.77,1.66,13.24,13.24,0,0,1-2.87.47,1.89,1.89,0,0,1,.86-1.32,6.33,6.33,0,0,1,2.52-.72,4.39,4.39,0,0,0,2.32-1.45,3.62,3.62,0,0,1,3.34-.58A12.81,12.81,0,0,1,28.14,196.92Zm-58-2.83c-1.28-1-1.24-2.8-2.67-3.63-1.15-.67-2.81-.44-4.15-.83a4.32,4.32,0,0,1-2.65-2.29c-.14-.29-.27-.57-.38-.85.72.07,1.44.16,2.15.3l1,.18.93.25a16.84,16.84,0,0,1,1.82.6,19.67,19.67,0,0,1,3.25,1.61,21.21,21.21,0,0,1,2.73,2,21.29,21.29,0,0,1,2.18,2.3l.27.35A4.38,4.38,0,0,1-29.91,194.09Zm12.44,31c.22.33.45.63.69.93a4.45,4.45,0,0,1-.51.33,3.39,3.39,0,0,1-3.31,0,2.55,2.55,0,0,1-.85-2.41,6.42,6.42,0,0,0,0-2.62c-.43-1.2-1.87-2.08-2-3.34-.13-1.63,1.5-2.65,3.23-2.82.07,1,.17,1.93.3,2.83A17.06,17.06,0,0,0-17.47,225.06Zm-11.93,1.82a4.45,4.45,0,0,1-1,0A27.28,27.28,0,0,1-32,219.33c-.11-1.29-.15-2.54-.16-3.75a3.14,3.14,0,0,1,2.15-.14,2.52,2.52,0,0,1,1.54,2.61,7.82,7.82,0,0,0,.07,3.09c.48,1.2,1.94,2.11,1.93,3.39S-27.93,226.76-29.4,226.88Zm14.68-30a6,6,0,0,1,2.73,3,1.76,1.76,0,0,1-.43,2.2,3.29,3.29,0,0,1-1.8.42l-1.15,0a15,15,0,0,1-1.05-2,16.93,16.93,0,0,1-1.1-3.74A2.74,2.74,0,0,1-14.72,196.84Zm-.66-13.05.2-.34a16.92,16.92,0,0,1,2-2.74,18.19,18.19,0,0,1,2.76-2.49c.16-.12.33-.23.5-.34.12.09.25.18.36.28a2.58,2.58,0,0,1,.33,3.57A7.51,7.51,0,0,1-15.38,183.79Zm18.16-4.86a7.38,7.38,0,0,1-5.29-2.67A6.89,6.89,0,0,1-3.23,175l.17,0a18.27,18.27,0,0,1,8.57.08,13.82,13.82,0,0,1,3.54,1.5c-.1.12-.2.24-.31.35A8,8,0,0,1,2.78,178.93Zm9.66,4.95a3,3,0,0,1-.79-3.63,2.87,2.87,0,0,1,.65-.88,18.2,18.2,0,0,1,2.75,4.79c.09.2.17.41.25.61A4.91,4.91,0,0,1,12.44,183.88Zm-19,6.09a14.09,14.09,0,0,0,0,3.67,11.1,11.1,0,0,0,.27,1.44,7.29,7.29,0,0,1-3.6-.77,3.23,3.23,0,0,1-1.61-4.23c.47-.86,1.39-1.55,1.78-2.43s.3-1.93,1.14-2.58a3.16,3.16,0,0,1,3.58.35l.19.16a10.44,10.44,0,0,0-.66,1.06A10.71,10.71,0,0,0-6.61,190Z" transform="translate(77.46 10.95)"/><path class="cls-7" d="M-54.58,235.43a18.52,18.52,0,0,1-3.2-.22c-3.49-.53-7-2-11.06-2.41h0a17.83,17.83,0,0,1,2.2.09c4,.42,7.57,1.89,11.06,2.41Zm2.94-38.2a8.88,8.88,0,0,0-3.13,6.14,8.66,8.66,0,0,0,.46,3.46,7.27,7.27,0,0,0,.34.81l.18.41c.07.13.16.25.23.38l.23.38.27.36a6.39,6.39,0,0,0,.58.73,23.92,23.92,0,0,0,3.4,2.9c1.33,1,2.81,2,4.26,3.22a22.91,22.91,0,0,1,2.11,2A17,17,0,0,1-41,220.24a12.21,12.21,0,0,1,2,5.16,10.17,10.17,0,0,1,0,2.81,9.52,9.52,0,0,1-.81,2.8,12.46,12.46,0,0,1-3.94,4.72,13.51,13.51,0,0,1-3,1.63,13.87,13.87,0,0,1-3.4.84,15.69,15.69,0,0,1-3.56,0q.68,0,1.38-.09a13.87,13.87,0,0,0,3.4-.84,13.51,13.51,0,0,0,3-1.63,12.53,12.53,0,0,0,3.94-4.72,9.52,9.52,0,0,0,.81-2.8,10.17,10.17,0,0,0,0-2.81,12.21,12.21,0,0,0-2-5.16,17.76,17.76,0,0,0-1.75-2.26,22.89,22.89,0,0,0-2.11-2c-1.45-1.2-2.93-2.23-4.26-3.22a23.89,23.89,0,0,1-3.39-2.9,6.3,6.3,0,0,1-.59-.73l-.27-.36-.23-.38c-.07-.13-.16-.25-.22-.38l-.19-.41a8.16,8.16,0,0,1-.34-.81,8.84,8.84,0,0,1-.46-3.46,8.92,8.92,0,0,1,3.13-6.15,13.07,13.07,0,0,1,7.25-2.8,12.56,12.56,0,0,1,2.75.07l-.57,0A13,13,0,0,0-51.64,197.23Zm-25,39.82h0a.5.5,0,0,1-.54.17.3.3,0,0,1-.21-.44,6.22,6.22,0,0,1,1.9-2l.34-.21c.19-.06.39-.12.58-.16a12.13,12.13,0,0,1,2.68-.33,15.24,15.24,0,0,1,1.65.11,12.11,12.11,0,0,0-2.15.31A7,7,0,0,0-76.67,237.05Zm96.23-44.39a3,3,0,0,1-.59,0,3.81,3.81,0,0,1-1.16-.4,5.21,5.21,0,0,1-1.2-.91,10.32,10.32,0,0,1-2.07-3c-.53-1.11-1-2.64-1.67-4.2a18.07,18.07,0,0,0-2.91-5A13.28,13.28,0,0,0,3.33,175a16.86,16.86,0,0,0-2.52-.45,17.1,17.1,0,0,1,4.7.54,13.28,13.28,0,0,1,6.63,4.09,18.21,18.21,0,0,1,2.91,5c.65,1.56,1.14,3.09,1.67,4.2a10.37,10.37,0,0,0,2.07,3,5.44,5.44,0,0,0,1.2.9,3.74,3.74,0,0,0,.51.22l-.29.07A3.9,3.9,0,0,1,19.56,192.66Zm13.24-.86a12.64,12.64,0,0,1-4.66,5.12,13.94,13.94,0,0,1-3.77,1.66,13.3,13.3,0,0,1-4.51.45c-.23,0-.46,0-.68-.07a13,13,0,0,0,3-.47A14,14,0,0,0,26,196.83a12.64,12.64,0,0,0,4.66-5.12A14.83,14.83,0,0,0,32,186.28a24.28,24.28,0,0,0-1.48-9.95,25.88,25.88,0,0,0-5.44-8.69,2.48,2.48,0,0,0-.52-.38,2.54,2.54,0,0,1,2.7.47,26,26,0,0,1,5.44,8.69,24.3,24.3,0,0,1,1.48,10A14.78,14.78,0,0,1,32.8,191.8ZM.25,182.51h0a5.87,5.87,0,0,0-1,.2,8,8,0,0,0-2.87,1.42,9.71,9.71,0,0,0-1.09,1.12,8.28,8.28,0,0,0-.9,1.39,10.71,10.71,0,0,0-1,3.33,14.09,14.09,0,0,0,0,3.67A10.26,10.26,0,0,0-5.72,197c1,2,2.3,3.06,5,4.17,1.33.54,2.92,1,4.69,1.58.89.28,1.82.56,2.79.88s2,.69,3,1.11a36.87,36.87,0,0,1,5.67,2.89,28,28,0,0,1,5,3.9,20.28,20.28,0,0,1,3.75,5,16.32,16.32,0,0,1,1.79,6,16.13,16.13,0,0,1-.65,6.31,17.1,17.1,0,0,1-3.56,6.14,21.61,21.61,0,0,1-6.35,4.66A29.59,29.59,0,0,1,7.91,242a41,41,0,0,1-10.67.63,40.15,40.15,0,0,0,8.49-.72,29.59,29.59,0,0,0,7.4-2.44,21.79,21.79,0,0,0,6.35-4.66A17.06,17.06,0,0,0,23,228.64a16.08,16.08,0,0,0,.65-6.3,15.94,15.94,0,0,0-1.79-6,20.09,20.09,0,0,0-3.75-5,28,28,0,0,0-5-3.9,36.42,36.42,0,0,0-5.67-2.89c-1-.42-2-.78-3-1.11s-1.9-.61-2.79-.88c-1.77-.54-3.36-1-4.68-1.58-2.69-1.11-4-2.15-5-4.17a10.26,10.26,0,0,1-.94-3.31,14.09,14.09,0,0,1,.05-3.67,10.71,10.71,0,0,1,1-3.33,8.28,8.28,0,0,1,.9-1.39A9.73,9.73,0,0,1-5.76,184a8,8,0,0,1,2.87-1.42A6.34,6.34,0,0,1,0,182.44Zm-8.2,48.43a33.77,33.77,0,0,0,4.56.92c.61.09,1.22.15,1.84.2a30.19,30.19,0,0,1-4-.29,33.77,33.77,0,0,1-4.56-.92,29.11,29.11,0,0,1-4-1.44,16.68,16.68,0,0,1-3.22-1.95,10.7,10.7,0,0,1-2.25-2.5,17.16,17.16,0,0,1-2.41-7.1c-.4-2.7-.45-5.74-.69-9a32.19,32.19,0,0,0-2.18-10.22,21.14,21.14,0,0,0-3-5,21.29,21.29,0,0,0-2.18-2.3,20.31,20.31,0,0,0-2.73-2,18.56,18.56,0,0,0-3.25-1.61,16.84,16.84,0,0,0-1.82-.6l-.93-.25-.95-.18c-.75-.14-1.51-.24-2.27-.31a23.84,23.84,0,0,1,4.45.4l1,.18.93.25a16.84,16.84,0,0,1,1.82.6,19.67,19.67,0,0,1,3.25,1.61,21.21,21.21,0,0,1,2.73,2,21.29,21.29,0,0,1,2.18,2.3,21,21,0,0,1,3,5A31.83,31.83,0,0,1-20.58,209c.25,3.24.3,6.28.7,9a17.06,17.06,0,0,0,2.41,7.11,10.66,10.66,0,0,0,2.25,2.49A16.2,16.2,0,0,0-12,229.5,29.11,29.11,0,0,0-7.95,230.94Z" transform="translate(77.46 10.95)"/><polygon class="cls-8" points="96.97 168.88 96.5 169.07 98.59 172.59 99.07 172.4 96.97 168.88"/><path class="cls-8" d="M20.09,156a.28.28,0,0,0-.27.14l-.7,1.58-1.94-.48a.29.29,0,0,0-.34.13c-.05.12,0,.23.16.27l2.43.61.88-2a.2.2,0,0,0-.15-.27Z" transform="translate(77.46 10.95)"/><path class="cls-5" d="M19.56,167.56c1.59,2.67,4.21,3,6.6,2s3.66-2.93,2.06-5.6-5.43-5.06-7.82-4.07S18,164.89,19.56,167.56Z" transform="translate(77.46 10.95)"/><path class="cls-9" d="M20.13,165.53a.63.63,0,0,0,.77.2.46.46,0,0,0,.28-.63.64.64,0,0,0-.77-.19A.44.44,0,0,0,20.13,165.53Z" transform="translate(77.46 10.95)"/><path class="cls-9" d="M25.94,163.13a.44.44,0,0,1-.28.63.61.61,0,0,1-.76-.2.44.44,0,0,1,.28-.62A.61.61,0,0,1,25.94,163.13Z" transform="translate(77.46 10.95)"/></g><path id="SVGID-2" data-name="SVGID" class="cls-10" d="M225.07,192.62v-118a15.12,15.12,0,0,0-7.31-12.95L120.85,3.17a15.15,15.15,0,0,0-15.62,0L8.31,61.62A15.12,15.12,0,0,0,1,74.57V192.62a15.11,15.11,0,0,0,7.31,12.95L105.23,264a15.11,15.11,0,0,0,15.62,0l96.91-58.45A15.11,15.11,0,0,0,225.07,192.62Z" transform="translate(77.46 10.95)"/><path class="cls-11" d="M38.89,109v2.32a5.81,5.81,0,0,1,5.37-2.72,6.39,6.39,0,0,1,5.93,3.18,6.83,6.83,0,0,1,6.09-3.18c4.13,0,6.78,2.58,6.78,7v10.24H58.59v-9.74c0-2.42-1.45-3.71-3.52-3.71-2.75,0-4,2.42-4,4.74v8.71H46.61v-9.74a3.36,3.36,0,0,0-3.55-3.71c-2.79,0-4,2.42-4,4.74v8.71H34.59V109Z" transform="translate(77.46 10.95)"/><path class="cls-11" d="M83.78,116.38a9.42,9.42,0,0,1-.28,2.08H71.18c.28,2.65,2.58,4,5.16,4A6.38,6.38,0,0,0,81,120.61l2.48,2.85a10,10,0,0,1-7.3,2.78c-5.79,0-9.61-3.87-9.61-8.8a8.75,8.75,0,0,1,9-8.88C80.51,108.56,83.78,111.9,83.78,116.38Zm-12.6-.83h8.23v0a3.66,3.66,0,0,0-3.93-3.34A4.09,4.09,0,0,0,71.18,115.55Z" transform="translate(77.46 10.95)"/><path class="cls-11" d="M91.8,109v2.32a5.85,5.85,0,0,1,5.4-2.72c4.13,0,6.82,2.58,6.82,7v10.24H99.54v-9.74A3.36,3.36,0,0,0,96,112.4c-2.79,0-4,2.42-4,4.74v8.71H87.5V109Z" transform="translate(77.46 10.95)"/><path class="cls-11" d="M109.32,109v-4.61h4.34V109h4.16v3.44h-4.16v7.52a2.17,2.17,0,0,0,2.44,2.45,4.12,4.12,0,0,0,2.17-.56v3.77a7.32,7.32,0,0,1-3.34.66c-3.58,0-5.75-2-5.75-5.69V112.4H106.7V109Z" transform="translate(77.46 10.95)"/><path class="cls-11" d="M138.41,117.4c0,5-3.89,8.84-9.3,8.84s-9.29-3.87-9.29-8.84,4-8.84,9.29-8.84S138.41,112.43,138.41,117.4Zm-14,0a4.75,4.75,0,1,0,4.75-4.93A4.74,4.74,0,0,0,124.36,117.4Z" transform="translate(77.46 10.95)"/><path class="cls-11" d="M146.56,111.9a5.19,5.19,0,0,1,5-3.34,3.18,3.18,0,0,1,1.07.13v4.14a2.55,2.55,0,0,0-1-.13c-3.14,0-5,2.25-5,5.73v7.42h-4.47V109h4.4Z" transform="translate(77.46 10.95)"/><path class="cls-11" d="M171,116.38a9.42,9.42,0,0,1-.28,2.08H158.37c.27,2.65,2.58,4,5.16,4a6.36,6.36,0,0,0,4.61-1.89l2.48,2.85a10,10,0,0,1-7.3,2.78c-5.78,0-9.6-3.87-9.6-8.8a8.74,8.74,0,0,1,9-8.88C167.7,108.56,171,111.9,171,116.38Zm-12.6-.83h8.23v0a3.66,3.66,0,0,0-3.93-3.34A4.09,4.09,0,0,0,158.37,115.55Z" transform="translate(77.46 10.95)"/><path class="cls-11" d="M187.28,123.43c-1.1,1.85-3.72,2.81-5.68,2.81-4.54,0-8.23-3.64-8.23-8.84s3.52-8.84,8.3-8.84a6.56,6.56,0,0,1,5.34,2.55v-8.78h4.47v23.52h-4.2Zm-.1-6.06a4.63,4.63,0,0,0-4.65-5,5,5,0,1,0,4.65,5Z" transform="translate(77.46 10.95)"/><path class="cls-11" d="M74.08,158.82l3-2.15a4.92,4.92,0,0,0,4.2,2.48c1.65,0,2.65-.56,2.65-1.45,0-1.06-.93-1.49-3.78-2.42-3.58-1.16-5.51-2.52-5.51-5.3s3-5,6.75-5a7.14,7.14,0,0,1,6.4,3.34l-3,2.09a3.9,3.9,0,0,0-3.47-2c-1.41,0-2.48.63-2.48,1.56s.93,1.36,3.65,2.28c3.34,1.16,5.64,2.29,5.64,5.37,0,2.85-2.79,5-6.85,5A8.07,8.07,0,0,1,74.08,158.82Z" transform="translate(77.46 10.95)"/><path class="cls-11" d="M96.11,147.73a6.93,6.93,0,0,1,5.65-2.78c4.54,0,8.26,3.64,8.26,8.84s-3.51,8.84-8.3,8.84a6.58,6.58,0,0,1-5.33-2.42v8.65H91.91V145.34h4.2Zm.11,6.09a4.62,4.62,0,0,0,4.64,5,5,5,0,0,0,0-10C98.28,148.79,96.22,150.78,96.22,153.82Z" transform="translate(77.46 10.95)"/><path class="cls-11" d="M118.21,148.29a5.19,5.19,0,0,1,5-3.34,3.22,3.22,0,0,1,1.07.13v4.14a2.55,2.55,0,0,0-1-.13c-3.14,0-5,2.25-5,5.73v7.41H113.8V145.34h4.41Z" transform="translate(77.46 10.95)"/><path class="cls-11" d="M132.12,140.44a2.48,2.48,0,0,1-2.58,2.45,2.44,2.44,0,0,1-2.59-2.45,2.41,2.41,0,0,1,2.59-2.41A2.45,2.45,0,0,1,132.12,140.44Zm-4.79,4.9h4.48v16.89h-4.48Z" transform="translate(77.46 10.95)"/><path class="cls-11" d="M141.2,145.34v2.32a5.88,5.88,0,0,1,5.41-2.71c4.13,0,6.81,2.58,6.81,7.05v10.23H149V152.5a3.36,3.36,0,0,0-3.55-3.71c-2.79,0-4,2.42-4,4.73v8.71H136.9V145.34Z" transform="translate(77.46 10.95)"/><path class="cls-11" d="M158.72,145.34v-4.6h4.34v4.6h4.17v3.45h-4.17v7.52a2.17,2.17,0,0,0,2.44,2.45,4.06,4.06,0,0,0,2.17-.57V162a7.32,7.32,0,0,1-3.34.66c-3.58,0-5.74-2-5.74-5.69v-8.15h-2.48v-3.45Z" transform="translate(77.46 10.95)"/><path class="cls-11" d="M169.19,158.82l3-2.15a4.9,4.9,0,0,0,4.2,2.48c1.65,0,2.65-.56,2.65-1.45,0-1.06-.93-1.49-3.79-2.42-3.58-1.16-5.51-2.52-5.51-5.3s3-5,6.75-5a7.13,7.13,0,0,1,6.4,3.34l-3,2.09a3.93,3.93,0,0,0-3.48-2c-1.41,0-2.48.63-2.48,1.56s.93,1.36,3.65,2.28c3.34,1.16,5.65,2.29,5.65,5.37,0,2.85-2.79,5-6.85,5A8,8,0,0,1,169.19,158.82Z" transform="translate(77.46 10.95)"/><line class="cls-12" x1="147.09" y1="172.57" x2="112.05" y2="172.57"/></g></g></g></svg>