<svg viewBox="0 0 377.28 347.68" xmlns="http://www.w3.org/2000/svg" xmlns:xlink="http://www.w3.org/1999/xlink"><pattern id="a" height="29.66" patternUnits="userSpaceOnUse" viewBox="0 0 29.66 29.66" width="29.66" x="77.47" y="-2.82"><path d="m0 0h29.66v29.66h-29.66z" fill="none"/><path d="m0 0h29.66v29.66h-29.66z" fill="#f08cae"/></pattern><clipPath id="b" transform="translate(77.47 -2.82)"><path d="m225.06 274.7v-118a15.12 15.12 0 0 0 -7.31-13l-96.92-58.45a15.15 15.15 0 0 0 -15.62 0l-96.91 58.45a15.12 15.12 0 0 0 -7.31 13v118a15.11 15.11 0 0 0 7.31 12.95l96.91 58.45a15.11 15.11 0 0 0 15.62 0l96.92-58.45a15.11 15.11 0 0 0 7.31-12.95z"/></clipPath><path d="m27.38 4.9v20.38a2 2 0 0 1 -2 1.95 1.94 1.94 0 0 1 -2-1.95v-14.43l-5 6.85a2 2 0 0 1 -1.57.8 2.06 2.06 0 0 1 -1.57-.8l-5-6.85v14.43a1.94 1.94 0 1 1 -3.87 0v-20.64s0-.06 0-.1v-.09a.13.13 0 0 0 0-.1s0-.06 0-.09 0 0 0-.07 0-.06 0-.09a.14.14 0 0 0 0-.1l.07-.06s0-.07 0-.1l.06-.06s0-.07.07-.1 0 0 0-.06l.43-.07s0-.06.07-.06 0-.07.06-.07l.07-.06s0 0 .06 0 0 0 0 0 0 0 .07-.07.06 0 .09 0 .07 0 .07-.06a.09.09 0 0 0 .09 0s.07 0 .1 0 .06 0 .1 0 0 0 .06 0a.28.28 0 0 0 .16-.23h.06a.28.28 0 0 0 .13 0h.38a.11.11 0 0 1 .07 0h.09a.12.12 0 0 1 .1 0h.09a.14.14 0 0 0 .08 0 .12.12 0 0 0 .1 0s0 0 .06 0l.1.07s.06 0 .06 0 .06 0 .1.06.06 0 .06 0l.1.06.06.06s.07 0 .1.07 0 0 0 .06.06 0 .06.07.07.06.07.09 0 0 .06 0l6.91 9.5 7-9.5s0 0 0 0 0-.06.06-.09 0 0 .07-.07 0 0 .06-.06 0-.07.06-.07l.07-.06s.06 0 .09-.06 0 0 .07 0 .06-.06.09-.06 0 0 .07 0l.09-.07a.12.12 0 0 0 .1 0s0 0 .06 0a.12.12 0 0 0 .1 0h.17a.11.11 0 0 1 .09 0h.1a.11.11 0 0 1 .09 0h.39a.11.11 0 0 0 .09 0h.1a.12.12 0 0 0 .1 0 .09.09 0 0 0 .04 0 .86.86 0 0 1 .13 0 .1.1 0 0 0 .06 0 .11.11 0 0 0 .1 0l.09.06a.15.15 0 0 0 .07 0l.09.07a.06.06 0 0 1 .06.06s.07 0 .1.07l.06.06s0 0 .07.07 0 0 0 .06a.18.18 0 0 1 .06.1l.07.06a.18.18 0 0 0 .06.1s0 0 0 .06 0 .06 0 .1a.09.09 0 0 1 0 .09s0 0 0 .07a.11.11 0 0 1 0 .09s0 .07 0 .1a.11.11 0 0 0 0 .09v.29s.36.27.36.3z" fill="#fff" transform="translate(77.47 -2.82)"/><path d="m42.93 20.26h-9.86a4.22 4.22 0 0 0 4.07 3.23 5.39 5.39 0 0 0 3.36-1.22 1.92 1.92 0 0 1 2.71 0 1.89 1.89 0 0 1 0 2.72 8.88 8.88 0 0 1 -6 2.27 8 8 0 0 1 0-16.06 6.64 6.64 0 0 1 1.4.13 7.76 7.76 0 0 1 5.12 3.67 6.16 6.16 0 0 1 1 3.14 2.89 2.89 0 0 1 -.25.92 1.75 1.75 0 0 1 -1.55 1.2zm-9.31-3.26h6.78a3.56 3.56 0 0 0 -3.26-1.92 4.14 4.14 0 0 0 -3.52 1.92z" fill="#fff" transform="translate(77.47 -2.82)"/><path d="m61.62 19.17v6a1.91 1.91 0 1 1 -3.81 0v-6a3.92 3.92 0 0 0 -3.68-4.1c-2.5 0-3.78 2.5-3.78 4.71v5.44a1.92 1.92 0 0 1 -3.84 0v-12.22a1.93 1.93 0 0 1 1.92-1.92 1.89 1.89 0 0 1 1.79 1.31 7.25 7.25 0 0 1 3.91-1.15 7.73 7.73 0 0 1 7.49 7.93z" fill="#fff" transform="translate(77.47 -2.82)"/><path d="m72.56 25.18a1.9 1.9 0 0 1 -1.92 1.92 7.68 7.68 0 0 1 -.83 0 4.64 4.64 0 0 1 -2.81-1.47 4.71 4.71 0 0 1 -1.09-2.88v-8.06h-1.38a1.92 1.92 0 0 1 0-3.84h1.37v-6.11a1.92 1.92 0 0 1 3.84 0v6.11h1.06a1.92 1.92 0 1 1 0 3.84h-1.06v7.61c.07.26 0 .64.23.84s.45.12.67.12a1.93 1.93 0 0 1 1.92 1.92z" fill="#fff" transform="translate(77.47 -2.82)"/><path d="m82.51 27.13a8 8 0 1 1 8.06-8 8 8 0 0 1 -8.06 8zm0-12.12a4.1 4.1 0 1 0 4.1 4.09 4.08 4.08 0 0 0 -4.1-4.1z" fill="#fff" transform="translate(77.47 -2.82)"/><path d="m106 16.06a1.92 1.92 0 0 1 -2.72.1 3.9 3.9 0 0 0 -2.66-1.06 4.07 4.07 0 0 0 -4 4.13v6.05a1.92 1.92 0 1 1 -3.83 0v-12.28a1.92 1.92 0 0 1 3.74-.57 7.59 7.59 0 0 1 9.34.93 1.88 1.88 0 0 1 .13 2.7z" fill="#fff" transform="translate(77.47 -2.82)"/><path d="m120.78 20.26h-9.85a4.22 4.22 0 0 0 4.07 3.23 5.37 5.37 0 0 0 3.36-1.22 1.93 1.93 0 0 1 2.72 0 1.89 1.89 0 0 1 -.08 2.73 8.88 8.88 0 0 1 -6 2.29 8 8 0 0 1 0-16.06 6.73 6.73 0 0 1 1.41.13 7.74 7.74 0 0 1 5.17 3.64 6.27 6.27 0 0 1 1 3.14 2.68 2.68 0 0 1 -.26.92 1.75 1.75 0 0 1 -1.54 1.2zm-9.31-3.26h6.78a3.55 3.55 0 0 0 -3.25-1.9 4.17 4.17 0 0 0 -3.53 1.9z" fill="#fff" transform="translate(77.47 -2.82)"/><path d="m139.89 4.87v20.35a2 2 0 0 1 -3.81.57 8 8 0 0 1 -4.58 1.41 8.1 8.1 0 0 1 0-16.19 8.38 8.38 0 0 1 4.5 1.34v-7.48a1.94 1.94 0 1 1 3.88 0zm-4.16 14.23a4.23 4.23 0 1 0 -4.23 4.23 4.22 4.22 0 0 0 4.23-4.23z" fill="#fff" transform="translate(77.47 -2.82)"/><path d="m40 59.14c-.22 3.74-3.61 5.92-6.65 6.36a11.93 11.93 0 0 1 -1.57.1 10.78 10.78 0 0 1 -8.13-3.6 1.92 1.92 0 0 1 .22-2.69 1.89 1.89 0 0 1 2.66.22 7.18 7.18 0 0 0 6.3 2.18c1.57-.23 3.3-1.19 3.39-2.82a3.14 3.14 0 0 0 -2.59-3.13 10.82 10.82 0 0 0 -2.11-.23 9.64 9.64 0 0 1 -5.25-1.37 6.65 6.65 0 0 1 -2.78-7.08 7.74 7.74 0 0 1 6.37-5.37 11.33 11.33 0 0 1 8.35 2.18 1.91 1.91 0 1 1 -2.37 3 7.32 7.32 0 0 0 -5.47-1.41 3.88 3.88 0 0 0 -3.2 2.63 2.8 2.8 0 0 0 1.28 2.89 6.16 6.16 0 0 0 3.26.7 18 18 0 0 1 2.75.32 7 7 0 0 1 5.54 7.12z" fill="#fff" transform="translate(77.47 -2.82)"/><path d="m59.39 57.63a8.11 8.11 0 0 1 -8.1 8.1 8.33 8.33 0 0 1 -4.51-1.35v7.49a1.94 1.94 0 1 1 -3.87 0v-20.35a1.93 1.93 0 0 1 2-1.92 2 2 0 0 1 1.86 1.34 8 8 0 0 1 4.57-1.4 8.1 8.1 0 0 1 8.05 8.09zm-3.87 0a4.23 4.23 0 1 0 -4.23 4.23 4.24 4.24 0 0 0 4.23-4.23z" fill="#fff" transform="translate(77.47 -2.82)"/><path d="m74.65 54.46a1.92 1.92 0 0 1 -2.72.1 3.86 3.86 0 0 0 -2.65-1.06 4.07 4.07 0 0 0 -4 4.13v6a1.92 1.92 0 1 1 -3.84 0v-12.21a1.92 1.92 0 0 1 3.74-.57 7.64 7.64 0 0 1 9.35.93 1.87 1.87 0 0 1 .12 2.68z" fill="#fff" transform="translate(77.47 -2.82)"/><path d="m78.78 46.82a2 2 0 0 1 -2-2v-.16a2 2 0 1 1 4 0v.16a2 2 0 0 1 -2 2zm0 18.78a2 2 0 0 1 -2-2v-12.34a2 2 0 0 1 4 0v12.36a2 2 0 0 1 -2 1.98z" fill="#fff" transform="translate(77.47 -2.82)"/><path d="m98.72 57.57v6a1.91 1.91 0 1 1 -3.81 0v-6a3.91 3.91 0 0 0 -3.68-4.1c-2.5 0-3.77 2.5-3.77 4.71v5.44a1.92 1.92 0 0 1 -3.84 0v-12.23a1.93 1.93 0 0 1 1.92-1.92 1.9 1.9 0 0 1 1.79 1.32 7.12 7.12 0 0 1 3.9-1.16 7.73 7.73 0 0 1 7.49 7.94z" fill="#fff" transform="translate(77.47 -2.82)"/><path d="m109.66 63.58a1.9 1.9 0 0 1 -1.92 1.92 7.68 7.68 0 0 1 -.83 0 4.64 4.64 0 0 1 -2.82-1.5 4.76 4.76 0 0 1 -1.09-2.85v-8.06h-1.38a1.92 1.92 0 1 1 0-3.84h1.38v-6.11a1.92 1.92 0 1 1 3.84 0v6.11h1.05a1.92 1.92 0 0 1 0 3.84h-1.05v7.61c.06.26 0 .64.22.84s.45.12.67.12a1.93 1.93 0 0 1 1.93 1.92z" fill="#fff" transform="translate(77.47 -2.82)"/><path d="m117.63 65.66a8.06 8.06 0 0 1 -5.15-1.82 1.91 1.91 0 0 1 2.59-2.84c.58.55 2.72 1.28 3.94.48a1 1 0 0 0 -.2-1.79 3.26 3.26 0 0 0 -1.37-.16 7.31 7.31 0 0 1 -2.53-.35 4.75 4.75 0 0 1 -1.7-7.9 6.82 6.82 0 0 1 5.64-1.41 5.67 5.67 0 0 1 3 1.41 1.9 1.9 0 0 1 -1.51 3.29 2 2 0 0 1 -.83-.29 3 3 0 0 0 -1.34-.64c-1-.16-2.75-.09-2.63 1.28a1.28 1.28 0 0 0 .58.68 5.55 5.55 0 0 0 1.31.09 7.35 7.35 0 0 1 2.94.51 4.9 4.9 0 0 1 2.92 4.39 5 5 0 0 1 -2.21 4.09 6.21 6.21 0 0 1 -3.45.98z" fill="#fff" transform="translate(77.47 -2.82)"/><path d="m226.07 274.93v-118.06a15.12 15.12 0 0 0 -7.31-13l-96.91-58.39a15.11 15.11 0 0 0 -15.62 0l-96.92 58.44a15.12 15.12 0 0 0 -7.31 13v118.01a15.12 15.12 0 0 0 7.31 12.95l96.92 58.44a15.11 15.11 0 0 0 15.62 0l96.91-58.44a15.12 15.12 0 0 0 7.31-12.95z" fill="none" stroke="#fbddec" stroke-miterlimit="10" stroke-width="4" transform="translate(77.47 -2.82)"/><path d="m105.22 193.72h172.58v44.25h-172.58z" fill="none" stroke="url(#a)" stroke-miterlimit="10" stroke-width="2"/><g transform="translate(77.47 -2.82)"><path d="m62.68 180.89v22.93a2.2 2.2 0 0 1 -2.19 2.2 2.18 2.18 0 0 1 -2.2-2.2v-16.23l-5.62 7.7a2.18 2.18 0 0 1 -1.76.9 2.3 2.3 0 0 1 -1.76-.9l-5.62-7.7v16.23a2.18 2.18 0 1 1 -4.35 0v-23.21s0-.08 0-.11v-.11a.13.13 0 0 0 0-.11s0-.07 0-.11 0 0 0-.07 0-.07 0-.11a.13.13 0 0 0 0-.1l.07-.08s0-.07 0-.1l.07-.08s0-.07.07-.1 0 0 0-.08l.11-.07a.08.08 0 0 1 .07-.07.08.08 0 0 1 .07-.07l.07-.07s0 0 .08 0 0 0 0 0 0 0 .07-.07.08 0 .11 0 .07 0 .07-.08a.14.14 0 0 0 .11 0s.07 0 .11 0 .07 0 .11 0 0 0 .07 0a.23.23 0 0 0 .14 0h.42a.31.31 0 0 0 .14 0h.43a.11.11 0 0 1 .07 0h.11a.13.13 0 0 1 .11 0h.14a.12.12 0 0 0 .11 0 .13.13 0 0 0 .1 0s0 0 .08 0l.1.07s.08 0 .08 0a.15.15 0 0 1 .1.07.16.16 0 0 1 .08 0l.1.08.08.07a.15.15 0 0 1 .1.07s0 0 0 .07.07 0 .07.07a.2.2 0 0 1 .07.11s0 0 .08 0l7.77 10.69 7.81-10.69s0 0 0 0a.2.2 0 0 1 .07-.11s0 0 .07-.07 0 0 .07-.07 0-.07.08-.07l.07-.07s.07 0 .11-.08 0 0 .07 0a.15.15 0 0 1 .11-.07s0 0 .07 0l.11-.07a.11.11 0 0 0 .1 0s0 0 .08 0a.11.11 0 0 0 .1 0h.16a.13.13 0 0 1 .11 0h.11a.14.14 0 0 1 .11 0h.43a.14.14 0 0 0 .11 0h.13a.14.14 0 0 0 .11 0 .11.11 0 0 0 .07 0h.15a.1.1 0 0 0 .07 0 .15.15 0 0 0 .11 0l.11.08a.11.11 0 0 0 .07 0l.11.07a.08.08 0 0 1 .07.07s.07 0 .11.07l.07.07s0 0 .07.07 0 0 0 .08.07.07.07.1l.07.08s0 .07.07.1 0 0 0 .08 0 .07 0 .1a.17.17 0 0 1 0 .11s0 0 0 .07a.17.17 0 0 1 0 .11s0 .07 0 .11a.13.13 0 0 0 0 .11v.32s.35.04.35.07z" fill="#27348b"/><path d="m80.18 198.17h-11.09a4.75 4.75 0 0 0 4.57 3.64 6 6 0 0 0 3.78-1.37 2.15 2.15 0 0 1 3.06 0 2.13 2.13 0 0 1 0 3.06 10.07 10.07 0 0 1 -6.81 2.55 9 9 0 0 1 0-18.07 7.78 7.78 0 0 1 1.59.15 8.7 8.7 0 0 1 5.83 4.13 7 7 0 0 1 1.15 3.53 2.91 2.91 0 0 1 -.29 1 2 2 0 0 1 -1.79 1.38zm-10.48-3.63h7.63a4 4 0 0 0 -3.67-2.16 4.67 4.67 0 0 0 -3.96 2.16z" fill="#27348b"/><path d="m101.2 197v6.8a2.14 2.14 0 1 1 -4.28 0v-6.8a4.4 4.4 0 0 0 -4.14-4.61c-2.81 0-4.25 2.81-4.25 5.29v6.12a2.16 2.16 0 1 1 -4.32 0v-13.8a2.16 2.16 0 0 1 2.16-2.16 2.13 2.13 0 0 1 2 1.48 8 8 0 0 1 4.39-1.3 8.69 8.69 0 0 1 8.44 8.98z" fill="#27348b"/><path d="m113.51 203.71a2.14 2.14 0 0 1 -2.16 2.16c-.32 0-.61 0-.93 0a5.24 5.24 0 0 1 -3.17-1.62 5.32 5.32 0 0 1 -1.25-3.25v-9.07h-1.55a2.16 2.16 0 0 1 0-4.32h1.55v-6.88a2.16 2.16 0 1 1 4.32 0v6.88h1.19a2.16 2.16 0 0 1 0 4.32h-1.19v8.57c.07.28 0 .72.25.93s.5.14.75.14a2.17 2.17 0 0 1 2.19 2.14z" fill="#27348b"/><path d="m124.71 205.91a9 9 0 1 1 9.07-9 9 9 0 0 1 -9.07 9zm0-13.64a4.61 4.61 0 1 0 4.61 4.61 4.59 4.59 0 0 0 -4.61-4.61z" fill="#27348b"/><path d="m151.13 193.46a2.16 2.16 0 0 1 -3.06.1 4.35 4.35 0 0 0 -3-1.18 4.57 4.57 0 0 0 -4.47 4.64v6.8a2.16 2.16 0 0 1 -4.32 0v-13.82a2.16 2.16 0 0 1 4.21-.65 8.6 8.6 0 0 1 10.52 1 2.13 2.13 0 0 1 .12 3.11z" fill="#27348b"/><path d="m167.76 198.17h-11.08a4.75 4.75 0 0 0 4.57 3.64 6 6 0 0 0 3.78-1.37 2.15 2.15 0 0 1 3.06 0 2.13 2.13 0 0 1 0 3.06 10.05 10.05 0 0 1 -6.8 2.55 9 9 0 0 1 0-18.07 7.69 7.69 0 0 1 1.58.15 8.7 8.7 0 0 1 5.84 4.13 7 7 0 0 1 1.15 3.53 3.13 3.13 0 0 1 -.29 1 2 2 0 0 1 -1.81 1.38zm-10.47-3.63h7.63a4 4 0 0 0 -3.67-2.16 4.64 4.64 0 0 0 -3.96 2.16z" fill="#27348b"/><path d="m189.26 180.86v22.89a2.2 2.2 0 0 1 -4.29.65 9 9 0 0 1 -5.14 1.58 9.11 9.11 0 1 1 0-18.21 9.4 9.4 0 0 1 5.07 1.51v-8.42a2.18 2.18 0 1 1 4.36 0zm-4.68 16a4.76 4.76 0 1 0 -4.75 4.75 4.76 4.76 0 0 0 4.75-4.73z" fill="#27348b"/><path d="m76.92 241.91c-.25 4.21-4.07 6.66-7.49 7.16a12.9 12.9 0 0 1 -1.76.11 12.11 12.11 0 0 1 -9.18-4 2.15 2.15 0 0 1 .25-3 2.11 2.11 0 0 1 3 .25 8.11 8.11 0 0 0 7.09 2.45c1.76-.25 3.71-1.33 3.82-3.17a3.57 3.57 0 0 0 -2.92-3.53 12.68 12.68 0 0 0 -2.38-.25 10.89 10.89 0 0 1 -5.9-1.55 7.47 7.47 0 0 1 -3.13-8 8.68 8.68 0 0 1 7.16-6 12.77 12.77 0 0 1 9.4 2.45 2.15 2.15 0 1 1 -2.67 3.38 8.16 8.16 0 0 0 -6.15-1.58 4.36 4.36 0 0 0 -3.6 2.95 3.14 3.14 0 0 0 1.44 3.27 7.08 7.08 0 0 0 3.67.8 18 18 0 0 1 3.1.36 7.88 7.88 0 0 1 6.25 7.9z" fill="#27348b"/><path d="m98.7 240.22a9.12 9.12 0 0 1 -9.11 9.11 9.39 9.39 0 0 1 -5.07-1.52v8.43a2.18 2.18 0 1 1 -4.36 0v-22.9a2.18 2.18 0 0 1 2.2-2.16 2.22 2.22 0 0 1 2.09 1.52 8.92 8.92 0 0 1 5.14-1.59 9.12 9.12 0 0 1 9.11 9.11zm-4.36 0a4.75 4.75 0 1 0 -4.75 4.78 4.77 4.77 0 0 0 4.75-4.78z" fill="#27348b"/><path d="m115.87 236.66a2.16 2.16 0 0 1 -3.06.1 4.36 4.36 0 0 0 -3-1.18 4.57 4.57 0 0 0 -4.46 4.64v6.78a2.16 2.16 0 1 1 -4.32 0v-13.76a2.16 2.16 0 0 1 4.21-.65 8.58 8.58 0 0 1 10.51 1 2.12 2.12 0 0 1 .12 3.07z" fill="#27348b"/><path d="m120.52 228.05a2.25 2.25 0 0 1 -2.27-2.19v-.18a2.23 2.23 0 1 1 4.46 0v.18a2.23 2.23 0 0 1 -2.19 2.19zm0 21.13a2.25 2.25 0 0 1 -2.27-2.23v-13.89a2.23 2.23 0 0 1 4.46 0v13.94a2.24 2.24 0 0 1 -2.19 2.18z" fill="#27348b"/><path d="m142.94 240.15v6.85a2.14 2.14 0 1 1 -4.28 0v-6.8a4.4 4.4 0 0 0 -4.14-4.61c-2.81 0-4.25 2.81-4.25 5.29v6.12a2.16 2.16 0 0 1 -4.32 0v-13.8a2.17 2.17 0 0 1 2.16-2.16 2.13 2.13 0 0 1 2 1.48 8 8 0 0 1 4.39-1.3 8.69 8.69 0 0 1 8.44 8.93z" fill="#27348b"/><path d="m155.26 246.92a2.14 2.14 0 0 1 -2.16 2.15c-.33 0-.62 0-.94 0a5.24 5.24 0 0 1 -3.17-1.62 5.32 5.32 0 0 1 -1.22-3.24v-9.07h-1.55a2.16 2.16 0 1 1 0-4.32h1.55v-6.88a2.16 2.16 0 1 1 4.32 0v6.88h1.19a2.16 2.16 0 1 1 0 4.32h-1.19v8.57c.07.28 0 .72.25.93s.5.14.76.14a2.18 2.18 0 0 1 2.16 2.14z" fill="#27348b"/><path d="m164.22 249.25a9.06 9.06 0 0 1 -5.8-2.05 2.15 2.15 0 0 1 2.92-3.16c.65.61 3.06 1.43 4.43.54a1.2 1.2 0 0 0 .57-1 1.17 1.17 0 0 0 -.79-1 3.7 3.7 0 0 0 -1.55-.18 8.21 8.21 0 0 1 -2.84-.4 5.41 5.41 0 0 1 -3.53-4.42 5.33 5.33 0 0 1 1.62-4.47 7.66 7.66 0 0 1 6.34-1.58 6.41 6.41 0 0 1 3.42 1.58 2.17 2.17 0 0 1 .14 3 2.21 2.21 0 0 1 -1.83.68 2.29 2.29 0 0 1 -.94-.32 3.17 3.17 0 0 0 -1.51-.72c-1.08-.18-3.1-.11-3 1.44a1.41 1.41 0 0 0 .64.75 5.78 5.78 0 0 0 1.48.11 8.42 8.42 0 0 1 3.31.58 5.5 5.5 0 0 1 3.28 4.93 5.57 5.57 0 0 1 -2.49 4.6 7 7 0 0 1 -3.87 1.09z" fill="#27348b"/><path d="m81.6 162.07a18.41 18.41 0 0 1 -2.82-12.77 8.93 8.93 0 0 1 .9-2.88 4.58 4.58 0 0 1 1.72-1.84 3.26 3.26 0 0 1 1-.41 2.48 2.48 0 0 1 .45 0 1.9 1.9 0 0 1 .41 0 2.6 2.6 0 0 1 .81.31 3.78 3.78 0 0 1 .84.71 8.43 8.43 0 0 1 1.45 2.37c.36.87.7 2.07 1.16 3.3a14.77 14.77 0 0 0 2 3.9 9.08 9.08 0 0 0 4.63 3.2 11.35 11.35 0 0 0 6 .07 13.28 13.28 0 0 0 5.12-2.52 13.64 13.64 0 0 0 1.93-1.95 13 13 0 0 0 1.41-2.15 15.21 15.21 0 0 0 1.54-4.45 18 18 0 0 0 .26-4.39 15.38 15.38 0 0 0 -.93-4.44 12.29 12.29 0 0 0 -2.67-4.2 13.48 13.48 0 0 0 -2-1.66 19.31 19.31 0 0 0 -2.11-1.24c-1.4-.7-2.75-1.21-4-1.68l-1.7-.69c-.53-.23-1-.44-1.5-.68a14.64 14.64 0 0 1 -4.76-3.56 8.23 8.23 0 0 1 -1.39-2.19 6.82 6.82 0 0 1 -.27-4.62 5.55 5.55 0 0 1 1-1.86 6.19 6.19 0 0 1 1.69-1.33 8.78 8.78 0 0 1 2.43-.85 14.1 14.1 0 0 1 3-.3 19 19 0 0 1 3.18.22 21.94 21.94 0 0 1 3.18.72 20.11 20.11 0 0 1 2.83 1.13 11 11 0 0 1 2.24 1.53 7.86 7.86 0 0 1 1.58 1.95 14.65 14.65 0 0 1 1.68 5.56c.28 2.12.32 4.5.48 7a28 28 0 0 0 1.52 8 17.53 17.53 0 0 0 2.1 3.92 14.86 14.86 0 0 0 1.52 1.79 14 14 0 0 0 1.9 1.59 12.74 12.74 0 0 0 2.29 1.32 12.15 12.15 0 0 0 1.27.47l.65.19.66.15a15.42 15.42 0 0 0 5.33.15 16.51 16.51 0 0 0 5-1.53 14.68 14.68 0 0 0 4.21-3.06 12.91 12.91 0 0 0 2.67-4.18 12.18 12.18 0 0 0 0-8.94 9.5 9.5 0 0 0 -.46-1l-.27-.5a5 5 0 0 0 -.31-.49l-.31-.48-.36-.46c-.24-.31-.5-.59-.75-.86a21.27 21.27 0 0 0 -3.27-2.68c-1.08-.75-2.11-1.41-3-2.1-.44-.35-.85-.7-1.22-1.06a10.1 10.1 0 0 1 -1-1.15 8.28 8.28 0 0 1 -1.32-2.64 6.18 6.18 0 0 1 -.22-1.42 5.14 5.14 0 0 1 .15-1.4 5.84 5.84 0 0 1 1.45-2.62 5.5 5.5 0 0 1 2.71-1.55 9 9 0 0 1 3.51 0c2.44.41 4.89 1.56 7.72 1.89a10.36 10.36 0 0 0 2.16 0 9.65 9.65 0 0 0 2.13-.47 7.11 7.11 0 0 0 1.9-1 4.7 4.7 0 0 0 1.32-1.6.24.24 0 0 0 -.15-.34.31.31 0 0 0 -.37.13 4.85 4.85 0 0 1 -3 2 7.45 7.45 0 0 1 -1.87.25 9.61 9.61 0 0 1 -1.85-.2c-2.47-.51-4.66-1.83-7.4-2.59a11.33 11.33 0 0 0 -4.48-.39 8.63 8.63 0 0 0 -2.37.66 8.84 8.84 0 0 0 -2.07 1.27 9.53 9.53 0 0 0 -2.75 3.7 7.78 7.78 0 0 0 -.57 2.19 9.52 9.52 0 0 0 0 2.2 10.41 10.41 0 0 0 1.4 4 13.33 13.33 0 0 0 1.23 1.77 16.38 16.38 0 0 0 1.46 1.53c1 1 2.05 1.75 3 2.52a18 18 0 0 1 2.37 2.28 5.06 5.06 0 0 1 .41.57l.19.28.16.3c.05.1.11.2.15.3l.13.32c.1.2.16.42.24.63a7.53 7.53 0 0 1 .32 2.71 7.25 7.25 0 0 1 -2.19 4.81 8.58 8.58 0 0 1 -5 2.2 7.62 7.62 0 0 1 -2.68-.2l-.3-.08-.29-.11a2.7 2.7 0 0 1 -.55-.24c-.18-.07-.36-.2-.54-.29s-.35-.23-.51-.36a9.15 9.15 0 0 1 -2.91-4.51 21.93 21.93 0 0 1 -.75-6.24c0-2.3.1-4.78-.1-7.47a21.34 21.34 0 0 0 -2.19-8.3 15.36 15.36 0 0 0 -2.92-3.86 19.44 19.44 0 0 0 -3.93-2.86 24.9 24.9 0 0 0 -4.37-1.85 31.68 31.68 0 0 0 -4.55-1.07 26.35 26.35 0 0 0 -9.91.2 19.29 19.29 0 0 0 -5.17 1.91 15.29 15.29 0 0 0 -4.43 3.65 14 14 0 0 0 -2.49 4.81 14.15 14.15 0 0 0 -.45 4.94 13.9 13.9 0 0 0 1.25 4.66 15.9 15.9 0 0 0 2.61 3.91 20 20 0 0 0 3.47 3.05 25.07 25.07 0 0 0 4 2.27c.69.33 1.4.61 2.07.87l2 .69c1.23.42 2.34.81 3.27 1.23a6.05 6.05 0 0 1 3.48 3.27 9 9 0 0 1 .65 2.59 12 12 0 0 1 0 2.87 9 9 0 0 1 -.72 2.61 6.46 6.46 0 0 1 -.63 1.09 6.07 6.07 0 0 1 -.76.87 5.18 5.18 0 0 1 -2 1.12 3.88 3.88 0 0 1 -2 .14l-.2-.05-.19-.07a2.56 2.56 0 0 1 -.4-.21 3.91 3.91 0 0 1 -.79-.67 9.88 9.88 0 0 1 -1.47-2.47c-.47-1-.85-2.12-1.51-3.44a13.16 13.16 0 0 0 -2.67-3.66 8.82 8.82 0 0 0 -2.34-1.5 8.27 8.27 0 0 0 -6.1-.46 9.19 9.19 0 0 0 -2.62 1.31 9.45 9.45 0 0 0 -3.25 4 12.48 12.48 0 0 0 -1 4.26 21.44 21.44 0 0 0 1 7.79 21 21 0 0 0 3.8 6.8 1.65 1.65 0 0 0 2.17.21 1.34 1.34 0 0 0 .44-1.84z" fill="#fbddec"/><path d="m133.05 108.52a11.34 11.34 0 0 1 4.41.4l.64.2a9.91 9.91 0 0 1 -1.61.47c-1.33.28-3.56-.03-3.44-1.07zm-14.82 27.48a3 3 0 0 1 -.63-2.6 3.22 3.22 0 0 1 1.07-2.35 3.16 3.16 0 0 1 1.82-.5v.25a23.16 23.16 0 0 0 .65 5.86 6 6 0 0 1 -.85 0 3.34 3.34 0 0 1 -2.06-.66zm10.09-14.39a5.71 5.71 0 0 0 -.1 1.64 4 4 0 0 0 .95 1.43 1.78 1.78 0 0 1 .5 1.55l-.36-.32a16.38 16.38 0 0 1 -1.46-1.53 13.33 13.33 0 0 1 -1.23-1.77 10.41 10.41 0 0 1 -1.4-4v-.38a4.09 4.09 0 0 1 2 .89 3.08 3.08 0 0 1 1.1 2.47zm2.3-9.25a5.84 5.84 0 0 0 -1.45 2.62v.2a2 2 0 0 1 -1.21-1.45 2.26 2.26 0 0 1 1.25-2.07 5.38 5.38 0 0 1 2.63-.6h.71a5.51 5.51 0 0 0 -1.93 1.28zm1.38 32.8c.83-.15 1.73.14 2.48-.23 1.41-.69.88-2.8 2.11-3.73.76-.56 1.89-.45 2.73-.91a2.63 2.63 0 0 0 1.24-2.16c.06-.83-.12-1.64-.14-2.47a3.09 3.09 0 0 1 1.62-2.73 12.08 12.08 0 0 1 -.54 7.24 12.91 12.91 0 0 1 -2.67 4.18 14.68 14.68 0 0 1 -4.21 3.06 16.7 16.7 0 0 1 -4.3 1.42 2.65 2.65 0 0 1 -.33-1 2.55 2.55 0 0 1 2.01-2.67zm1.26-22.16c.78.57 1.64 1.14 2.54 1.76a21.27 21.27 0 0 1 3.27 2.68c.1.1.19.21.29.32a2.75 2.75 0 0 1 -1.3.88 2.06 2.06 0 0 1 -2.35-.74c-.33-.58-.24-1.36-.77-1.8s-1.59-.3-2.18-.77a1.18 1.18 0 0 1 -.3-1.36 2.33 2.33 0 0 1 .8-.97zm3 12.15a3.08 3.08 0 0 1 .76.9 1.86 1.86 0 0 1 .08 1.89 2.82 2.82 0 0 1 -1.56 1l-.24.07a7.48 7.48 0 0 0 .95-3.22c.02-.21.03-.44.02-.67zm-51.16-22.93c-.52 1 .15 2.43-.7 3.31a2.24 2.24 0 0 1 -2.48.25 4.42 4.42 0 0 1 -1.14-.87 13.77 13.77 0 0 1 2.14-3.78 15.29 15.29 0 0 1 4.43-3.65s0 0 0 .05a2.82 2.82 0 0 1 -.59 3c-.5.55-1.31.98-1.66 1.69zm7.72-1.38a3.21 3.21 0 0 1 2.3.92 1.72 1.72 0 0 1 .19 1.63c-.37 0-.72.1-1.06.18a8.78 8.78 0 0 0 -2.43.85 6.1 6.1 0 0 0 -1.21.86 4.81 4.81 0 0 1 -1-1.18 2.13 2.13 0 0 1 .38-2.61 3.86 3.86 0 0 1 2.83-.65zm-4 9.08a6.78 6.78 0 0 0 .54 2.31 8.23 8.23 0 0 0 1.39 2.19 12.43 12.43 0 0 0 2.32 2.1l-.2.24a3.55 3.55 0 0 1 -3.38.94 1.8 1.8 0 0 1 -1.13-.76c-.39-.7 0-1.6-.2-2.36-.34-1.15-2-1.6-2.4-2.76a2.07 2.07 0 0 1 1.08-2.19 4.59 4.59 0 0 1 2-.61 6.76 6.76 0 0 0 .01.9zm-7.36 1a3.51 3.51 0 0 1 3 3.26 4.27 4.27 0 0 1 -1.46 2.9l-.57.51a14.23 14.23 0 0 1 -1.16-2 13.84 13.84 0 0 1 -1.27-4.71 5.08 5.08 0 0 1 1.49.12zm40 21.7a2.31 2.31 0 0 1 -.45-3.17 3.63 3.63 0 0 1 .85-.9 8.22 8.22 0 0 0 2.29 2.95c.16.13.34.24.51.36s.36.22.54.29a2.7 2.7 0 0 0 .55.24l.29.11.3.08a7.62 7.62 0 0 0 2.68.2h.33a3.32 3.32 0 0 1 -.85 1.41 2.25 2.25 0 0 1 -1.58.62c-1 0-1.59-.82-2.42-1.2s-2.19-.37-3.04-.96zm-17.88-28.44a21.94 21.94 0 0 0 -3.18-.72 16 16 0 0 0 -1.68-.18 2.25 2.25 0 0 1 -.08-.58 2.65 2.65 0 0 1 1.44-2.4 3.59 3.59 0 0 1 2.54-.14 9.38 9.38 0 0 1 2.22 1.1 5.88 5.88 0 0 1 2.34 2.09 5.43 5.43 0 0 1 .25 2.56c-.33-.21-.66-.41-1-.6a20.11 20.11 0 0 0 -2.85-1.1zm-6.58 14.48 1.73.68c1.19.46 2.5 1 3.87 1.64 0 .22-.09.44-.15.67a2.51 2.51 0 0 1 -.84 1.45 3.45 3.45 0 0 1 -2 .43 4.62 4.62 0 0 1 -2.58-.46 2.36 2.36 0 0 1 -1-1.88 3.61 3.61 0 0 1 .89-2.55zm2.32-21.89c-1.44 0-2.89.36-4.31.21a3.32 3.32 0 0 1 -2.5-1.42 26.39 26.39 0 0 1 9.88-.19c.89.14 1.75.32 2.6.53a5.12 5.12 0 0 1 -2.31 1 25.3 25.3 0 0 1 -3.32-.13zm11.77 5.41a3 3 0 0 1 -.78-1.64 9.81 9.81 0 0 1 -.19-2.42c0-.14 0-.28 0-.41.39.18.77.37 1.15.58a19.44 19.44 0 0 1 3.93 2.86c.16.15.31.31.46.47a7.48 7.48 0 0 1 -1 .68 3.22 3.22 0 0 1 -3.53-.12zm4 18.38a2.13 2.13 0 0 1 -.46 2.69 6.39 6.39 0 0 1 -2 1.32c-.15-1.08-.25-2.13-.32-3.16 0-.6-.07-1.2-.1-1.79h.56a3.17 3.17 0 0 1 2.38.94zm-35.41 15.86a6.29 6.29 0 0 0 -.43 1l-.07-.08a2.3 2.3 0 0 1 -.29-2.61 3.78 3.78 0 0 1 3.11-1.57 3 3 0 0 1 2.55.85 2.32 2.32 0 0 1 .4 1.17 3.78 3.78 0 0 0 -.84-.71 2.6 2.6 0 0 0 -.81-.31 1.9 1.9 0 0 0 -.41 0 2.48 2.48 0 0 0 -.45 0 3.26 3.26 0 0 0 -1 .41 4.58 4.58 0 0 0 -1.76 1.85zm-1.31 14.49a1.31 1.31 0 0 1 -.63 1.13 21.22 21.22 0 0 1 -1.52-2.66c.89.28 2.08.74 2.15 1.53zm11-19.32a13.34 13.34 0 0 1 2.63 3.62c.58 1.18 1 2.18 1.35 3.1a1.91 1.91 0 0 1 -1.71.23 2.12 2.12 0 0 1 -1.07-1.24 6.3 6.3 0 0 0 -.69-1.49c-.49-.64-1.37-1-1.71-1.73a2 2 0 0 1 1.19-2.49zm-1.68-11.49a3.15 3.15 0 0 1 2.64 1.8 4.33 4.33 0 0 0 .41 1.29 2.31 2.31 0 0 0 1.72.73 6.26 6.26 0 0 1 2 .28 2 2 0 0 1 1.14 2.22l-.27-.09-2-.69c-.67-.26-1.38-.54-2.07-.87a25.07 25.07 0 0 1 -4-2.27 20.62 20.62 0 0 1 -2.75-2.29 8.52 8.52 0 0 1 3.18-.11zm-9 23.58a18.11 18.11 0 0 0 1 4.45 2.55 2.55 0 0 1 -1.5-.11 2.49 2.49 0 0 1 -1.49-1.78 2 2 0 0 1 .16-1.42 2.64 2.64 0 0 1 1.81-1.14zm-4.19-6.75a2.71 2.71 0 0 1 1.08.73 2.66 2.66 0 0 1 .7 2.33 2.69 2.69 0 0 1 -1.28 1.82 2.23 2.23 0 0 1 -.81.28 22.59 22.59 0 0 1 0-3 14.42 14.42 0 0 1 .29-2.16zm3.92-6.07a9.19 9.19 0 0 1 2.58-1.31 8.3 8.3 0 0 1 2-.36 1.52 1.52 0 0 1 -.6 1 4 4 0 0 1 -1.76.56 3 3 0 0 0 -1.62 1.14 2.29 2.29 0 0 1 -2.33.45 9 9 0 0 1 1.71-1.48zm40.51 2.21c.89.77.86 2.19 1.86 2.84.81.53 2 .35 2.9.65a3.16 3.16 0 0 1 1.85 1.8 6 6 0 0 1 .26.66c-.5-.05-1-.13-1.5-.23l-.66-.15-.65-.19a12.15 12.15 0 0 1 -1.27-.47 12.74 12.74 0 0 1 -2.27-1.26 14 14 0 0 1 -1.9-1.59 14.86 14.86 0 0 1 -1.52-1.79l-.19-.27a2.76 2.76 0 0 1 3.07 0zm-8.68-24.25a7.74 7.74 0 0 0 -.49-.73c.12-.09.23-.18.36-.26a2.16 2.16 0 0 1 2.31 0 2.14 2.14 0 0 1 .59 1.89 5.43 5.43 0 0 0 0 2c.29.94 1.3 1.63 1.37 2.61a2.25 2.25 0 0 1 -2.26 2.21q-.08-1.16-.21-2.22a14.65 14.65 0 0 0 -1.69-5.5zm8.33-1.42a2.5 2.5 0 0 1 .67 0 23.61 23.61 0 0 1 1.16 5.89c.08 1 .11 2 .11 2.93a2 2 0 0 1 -1.5.11 2 2 0 0 1 -1.07-2 7 7 0 0 0 -.06-2.42c-.33-.94-1.34-1.66-1.34-2.66a2.15 2.15 0 0 1 2.01-1.85zm-10.25 23.52a4.61 4.61 0 0 1 -1.91-2.35 1.53 1.53 0 0 1 .3-1.73 2 2 0 0 1 1.26-.32 7.18 7.18 0 0 1 .8 0 13.24 13.24 0 0 1 .74 1.58 14.88 14.88 0 0 1 .76 2.93 1.74 1.74 0 0 1 -1.97-.11zm.46 10.22c0 .09-.09.18-.14.26a13 13 0 0 1 -1.41 2.15 13.64 13.64 0 0 1 -1.93 1.95l-.34.26a2.75 2.75 0 0 1 -.26-.22 2.2 2.2 0 0 1 -.23-2.79 4.9 4.9 0 0 1 4.29-1.61zm-12.68 3.8a5 5 0 0 1 3.7 2.09 6.53 6.53 0 0 1 .5 1h-.12a11.35 11.35 0 0 1 -6-.07 8.67 8.67 0 0 1 -2.47-1.17l.21-.27a5.22 5.22 0 0 1 4.16-1.58zm-6.74-3.88a2.49 2.49 0 0 1 .1 3.53 15.3 15.3 0 0 1 -1.92-3.74c-.06-.16-.12-.32-.17-.48a3.16 3.16 0 0 1 1.97.69zm13.29-4.77a12 12 0 0 0 0-2.87 8.33 8.33 0 0 0 -.19-1.13 4.73 4.73 0 0 1 2.52.61 2.65 2.65 0 0 1 1.12 3.31c-.33.67-1 1.21-1.25 1.9s-.2 1.52-.79 2a2 2 0 0 1 -2.5-.27l-.13-.13a7.37 7.37 0 0 0 .46-.83 9 9 0 0 0 .74-2.59z" fill="#e7579a"/><path d="m136.12 110.7a10.72 10.72 0 0 1 2.24.17c2.44.41 4.89 1.56 7.72 1.89a12.86 12.86 0 0 1 -1.53-.07c-2.83-.33-5.28-1.48-7.72-1.89zm-2.05 29.91a7.25 7.25 0 0 0 2.19-4.81 7.53 7.53 0 0 0 -.32-2.71c-.08-.21-.14-.43-.24-.63l-.13-.32c0-.1-.1-.2-.15-.3l-.16-.3-.19-.28a5.06 5.06 0 0 0 -.41-.57 18 18 0 0 0 -2.37-2.28c-.93-.77-2-1.57-3-2.52a16.38 16.38 0 0 1 -1.46-1.53 13.33 13.33 0 0 1 -1.23-1.77 10.41 10.41 0 0 1 -1.4-4 9.52 9.52 0 0 1 0-2.2 7.78 7.78 0 0 1 .57-2.19 9.53 9.53 0 0 1 2.75-3.7 8.84 8.84 0 0 1 2.07-1.27 8.63 8.63 0 0 1 2.37-.66 9.43 9.43 0 0 1 2.49 0c-.32 0-.64 0-1 .07a8.73 8.73 0 0 0 -2.37.66 9.05 9.05 0 0 0 -2.07 1.27 9.53 9.53 0 0 0 -2.75 3.7 7.78 7.78 0 0 0 -.57 2.19 9.52 9.52 0 0 0 0 2.2 10.41 10.41 0 0 0 1.4 4 13.33 13.33 0 0 0 1.23 1.77 17.87 17.87 0 0 0 1.46 1.54c1 .94 2 1.74 3 2.52a17.32 17.32 0 0 1 2.37 2.27 5.06 5.06 0 0 1 .41.57l.19.28.16.3c.05.1.11.2.15.3l.13.32a4.44 4.44 0 0 1 .24.64 7.45 7.45 0 0 1 .32 2.7 7.29 7.29 0 0 1 -2.19 4.82 8.54 8.54 0 0 1 -5.05 2.19 8.16 8.16 0 0 1 -1.92 0h.4a8.58 8.58 0 0 0 5.08-2.27zm17.47-31.18a.31.31 0 0 1 .37-.13.24.24 0 0 1 .15.34 4.7 4.7 0 0 1 -1.32 1.6l-.24.17-.41.12a7.45 7.45 0 0 1 -1.87.25 8.89 8.89 0 0 1 -1.15-.08 7.69 7.69 0 0 0 1.5-.24 4.85 4.85 0 0 0 2.97-2.03zm-67.16 34.76a2.06 2.06 0 0 1 .42 0 2.65 2.65 0 0 1 .8.31 3.78 3.78 0 0 1 .84.71 8.43 8.43 0 0 1 1.45 2.37c.36.88.7 2.08 1.16 3.3a15.08 15.08 0 0 0 2 3.9 9.08 9.08 0 0 0 4.63 3.2 9.82 9.82 0 0 0 1.76.36 10.84 10.84 0 0 1 -3.28-.43 9.08 9.08 0 0 1 -4.63-3.2 14.77 14.77 0 0 1 -2-3.9c-.46-1.23-.8-2.43-1.16-3.3a8.43 8.43 0 0 0 -1.45-2.37 3.78 3.78 0 0 0 -.84-.71 2.23 2.23 0 0 0 -.35-.17l.2-.06a2.48 2.48 0 0 1 .45-.01zm-9.23.67a9.45 9.45 0 0 1 3.25-4 9.19 9.19 0 0 1 2.6-1.31 8.16 8.16 0 0 1 3.15-.35l.48.05a8.78 8.78 0 0 0 -4.73 1.68 9.45 9.45 0 0 0 -3.25 4 12.46 12.46 0 0 0 -1 4.26 20.87 20.87 0 0 0 4.82 14.59 1.52 1.52 0 0 0 .37.3 1.63 1.63 0 0 1 -1.89-.37 21 21 0 0 1 -3.8-6.8 21.44 21.44 0 0 1 -1-7.79 12.48 12.48 0 0 1 1-4.26zm22.71 7.28a3.42 3.42 0 0 0 .67-.16 5.18 5.18 0 0 0 2-1.12 6.07 6.07 0 0 0 .76-.87 6.46 6.46 0 0 0 .63-1.09 9 9 0 0 0 .72-2.61 12 12 0 0 0 0-2.87 9 9 0 0 0 -.65-2.59 6.05 6.05 0 0 0 -3.48-3.27c-.93-.42-2-.81-3.27-1.23l-2-.69c-.67-.26-1.38-.54-2.07-.87a25.07 25.07 0 0 1 -4-2.27 20 20 0 0 1 -3.47-3.05 15.9 15.9 0 0 1 -2.61-3.91 13.9 13.9 0 0 1 -1.09-4.66 14.15 14.15 0 0 1 .45-4.94 14 14 0 0 1 2.49-4.81 15.29 15.29 0 0 1 4.43-3.65 19.29 19.29 0 0 1 5.17-1.91 25 25 0 0 1 7.44-.49 24.77 24.77 0 0 0 -5.92.56 19.29 19.29 0 0 0 -5.17 1.91 15.29 15.29 0 0 0 -4.43 3.65 13.77 13.77 0 0 0 -1.69 14.41 16.14 16.14 0 0 0 2.61 3.92 20.45 20.45 0 0 0 3.47 3.05 25 25 0 0 0 4 2.26c.69.33 1.4.61 2.07.87l2 .69c1.23.42 2.34.81 3.27 1.24a6 6 0 0 1 3.48 3.26 8.71 8.71 0 0 1 .65 2.59 12 12 0 0 1 0 2.87 9 9 0 0 1 -.73 2.61 5.85 5.85 0 0 1 -.63 1.09 6.18 6.18 0 0 1 -.76.88 5.3 5.3 0 0 1 -2 1.11 3.88 3.88 0 0 1 -2 .14zm5.72-37.93a21.94 21.94 0 0 0 -3.18-.72c-.42-.07-.85-.11-1.28-.15a20.44 20.44 0 0 1 2.8.22 21.94 21.94 0 0 1 3.18.72 20.11 20.11 0 0 1 2.83 1.13 11.39 11.39 0 0 1 2.25 1.53 8.06 8.06 0 0 1 1.57 2 14.48 14.48 0 0 1 1.68 5.57c.28 2.11.32 4.49.49 7a27.53 27.53 0 0 0 1.51 8 17.32 17.32 0 0 0 2.1 3.92 16.86 16.86 0 0 0 1.52 1.8 14.75 14.75 0 0 0 1.9 1.58 12.83 12.83 0 0 0 2.28 1.26 11.21 11.21 0 0 0 1.26.47l.65.19.66.15a14.54 14.54 0 0 0 1.59.24 15.55 15.55 0 0 1 -3.11-.31l-.66-.15-.65-.19a12.15 12.15 0 0 1 -1.27-.47 12.74 12.74 0 0 1 -2.27-1.26 14 14 0 0 1 -1.9-1.59 14.86 14.86 0 0 1 -1.52-1.79 17.53 17.53 0 0 1 -2.1-3.92 28 28 0 0 1 -1.52-8c-.16-2.53-.2-4.91-.48-7a14.65 14.65 0 0 0 -1.68-5.56 7.86 7.86 0 0 0 -1.58-1.95 11 11 0 0 0 -2.24-1.53 20.11 20.11 0 0 0 -2.83-1.19z" fill="#e7e8e9"/></g><path d="m161.89 168.57.33-.15-1.47-2.76-.33.16z" fill="#ed837e"/><path d="m84 172.88a.21.21 0 0 0 .19-.12l.49-1.24 1.35.38a.2.2 0 0 0 .24-.1.16.16 0 0 0 -.11-.21l-1.69-.48-.62 1.55a.15.15 0 0 0 .11.21z" fill="#ed837e" transform="translate(77.47 -2.82)"/><path d="m84.38 163.84a3.27 3.27 0 0 0 -4.6-1.58 2.9 2.9 0 0 0 -1.44 4.39c1.11 2.09 3.79 4 5.46 3.19s1.69-3.91.58-6z" fill="#fbddec" transform="translate(77.47 -2.82)"/><path d="m84 165.43a.42.42 0 0 0 -.54-.15.35.35 0 0 0 -.19.49.4.4 0 0 0 .53.15.37.37 0 0 0 .2-.49z" fill="#283069" transform="translate(77.47 -2.82)"/><path d="m79.93 167.31a.36.36 0 0 1 .19-.49.42.42 0 0 1 .54.15.36.36 0 0 1 -.2.49.39.39 0 0 1 -.53-.15z" fill="#283069" transform="translate(77.47 -2.82)"/><path d="m144.63 269.08a18.37 18.37 0 0 1 2.82 12.77 8.92 8.92 0 0 1 -.89 2.88 4.58 4.58 0 0 1 -1.72 1.84 3.31 3.31 0 0 1 -1 .41 2.37 2.37 0 0 1 -.44 0 2 2 0 0 1 -.42 0 2.46 2.46 0 0 1 -.81-.31 3.49 3.49 0 0 1 -.83-.71 8.07 8.07 0 0 1 -1.45-2.37c-.37-.87-.71-2.07-1.16-3.3a14.83 14.83 0 0 0 -2-3.9 9 9 0 0 0 -4.62-3.2 11.36 11.36 0 0 0 -6-.07 12.87 12.87 0 0 0 -7.11 4.48 13.63 13.63 0 0 0 -1.4 2.15 15.65 15.65 0 0 0 -1.55 4.45 18.54 18.54 0 0 0 -.25 4.39 15.06 15.06 0 0 0 .93 4.44 12.15 12.15 0 0 0 2.67 4.2 12.43 12.43 0 0 0 2 1.66 17 17 0 0 0 2.1 1.24c1.41.7 2.75 1.21 4 1.68.6.24 1.19.46 1.72.68s1 .44 1.5.68a14.83 14.83 0 0 1 4.77 3.56 9.14 9.14 0 0 1 1.39 2.19 7.08 7.08 0 0 1 .54 2.31 6.79 6.79 0 0 1 -.27 2.31 5.75 5.75 0 0 1 -1 1.86 6 6 0 0 1 -1.68 1.33 9.24 9.24 0 0 1 -2.43.86 14.91 14.91 0 0 1 -3 .29 19 19 0 0 1 -3.18-.22 22.55 22.55 0 0 1 -3.18-.72 19.5 19.5 0 0 1 -2.82-1.13 11.39 11.39 0 0 1 -2.25-1.53 8.06 8.06 0 0 1 -1.57-1.95 14.43 14.43 0 0 1 -1.68-5.56c-.28-2.12-.32-4.5-.49-7a27.35 27.35 0 0 0 -1.52-8 16.82 16.82 0 0 0 -2.09-3.91 15.09 15.09 0 0 0 -1.52-1.8 14.91 14.91 0 0 0 -1.91-1.59 12.11 12.11 0 0 0 -2.27-1.25 9.73 9.73 0 0 0 -1.27-.48l-.65-.19c-.21-.06-.44-.1-.66-.15a15.66 15.66 0 0 0 -5.33-.15 16.45 16.45 0 0 0 -5 1.53 14.87 14.87 0 0 0 -4.22 3.06 12.88 12.88 0 0 0 -2.7 4.16 12.18 12.18 0 0 0 0 8.94 7.89 7.89 0 0 0 .46 1l.27.5c.09.17.2.33.3.49l.32.48.36.46a10.5 10.5 0 0 0 .75.86 21.21 21.21 0 0 0 3.26 2.68c1.09.75 2.11 1.41 3 2.11a13 13 0 0 1 1.23 1.05 9.9 9.9 0 0 1 1 1.15 8.11 8.11 0 0 1 1.32 2.65 6.25 6.25 0 0 1 .21 1.42 4.76 4.76 0 0 1 -.14 1.4 5.9 5.9 0 0 1 -1.46 2.62 5.44 5.44 0 0 1 -2.7 1.55 9 9 0 0 1 -3.51 0c-2.44-.41-4.9-1.56-7.73-1.89a10.27 10.27 0 0 0 -2.15 0 9 9 0 0 0 -2.13.46 6.73 6.73 0 0 0 -1.9 1 4.56 4.56 0 0 0 -1.32 1.59.24.24 0 0 0 .15.34.32.32 0 0 0 .37-.13 4.88 4.88 0 0 1 3-2 7.39 7.39 0 0 1 1.87-.25 8.89 8.89 0 0 1 1.85.21c2.47.5 4.66 1.82 7.39 2.58a11.38 11.38 0 0 0 4.49.39 8.83 8.83 0 0 0 2.37-.66 9.27 9.27 0 0 0 2.07-1.27 9.53 9.53 0 0 0 2.75-3.7 8.14 8.14 0 0 0 .57-2.19 9 9 0 0 0 0-2.2 10.39 10.39 0 0 0 -1.39-4 13.33 13.33 0 0 0 -1.23-1.77 15.27 15.27 0 0 0 -1.47-1.53c-1-.95-2-1.75-3-2.52a18 18 0 0 1 -2.37-2.28 5.06 5.06 0 0 1 -.41-.57l-.19-.28-.16-.3-.16-.3-.13-.31a5.47 5.47 0 0 1 -.23-.64 7.53 7.53 0 0 1 -.32-2.71 7.24 7.24 0 0 1 2.18-4.81 8.58 8.58 0 0 1 5.06-2.2 8.13 8.13 0 0 1 2.68.2l.3.08.29.11a4.56 4.56 0 0 1 .55.24c.18.07.35.2.54.29s.34.23.51.36a9.06 9.06 0 0 1 2.9 4.51 21.58 21.58 0 0 1 .75 6.24c0 2.3-.1 4.78.11 7.47a21.15 21.15 0 0 0 2.18 8.3 15.6 15.6 0 0 0 2.96 3.78 19.23 19.23 0 0 0 3.94 2.86 24.58 24.58 0 0 0 4.37 1.85 31.86 31.86 0 0 0 4.54 1.07 26.4 26.4 0 0 0 9.92-.19 19.8 19.8 0 0 0 5.17-1.92 15.42 15.42 0 0 0 4.43-3.65 13.73 13.73 0 0 0 2.48-4.81 14.13 14.13 0 0 0 .46-4.93 13.9 13.9 0 0 0 -1.25-4.67 15.84 15.84 0 0 0 -2.62-3.91 19.6 19.6 0 0 0 -3.46-3.05 24.72 24.72 0 0 0 -4-2.27c-.68-.32-1.39-.61-2.07-.87s-1.32-.47-1.94-.69c-1.23-.42-2.35-.81-3.27-1.23a6 6 0 0 1 -3.48-3.27 9 9 0 0 1 -.66-2.59 12.52 12.52 0 0 1 0-2.87 9 9 0 0 1 .73-2.61 6.42 6.42 0 0 1 .62-1.09 6.1 6.1 0 0 1 .77-.87 5.32 5.32 0 0 1 2-1.12 3.88 3.88 0 0 1 2-.14l.2.05.18.07a2.65 2.65 0 0 1 .41.21 3.94 3.94 0 0 1 .79.68 9.62 9.62 0 0 1 1.47 2.46c.47 1 .85 2.12 1.51 3.44a12.82 12.82 0 0 0 2.67 3.66 8.63 8.63 0 0 0 2.19 1.54 8.25 8.25 0 0 0 6.09.46 9.36 9.36 0 0 0 2.63-1.3 9.53 9.53 0 0 0 3.25-4 12.69 12.69 0 0 0 1-4.26 20.86 20.86 0 0 0 -4.83-14.59 1.64 1.64 0 0 0 -2.17-.2 1.33 1.33 0 0 0 -.43 1.83z" fill="#fbddec" transform="translate(77.47 -2.82)"/><path d="m93.18 322.63a11.38 11.38 0 0 1 -4.41-.4l-.64-.2a9.91 9.91 0 0 1 1.61-.47c1.33-.28 3.56.03 3.44 1.07zm14.82-27.46a3 3 0 0 1 .62 2.6 3.18 3.18 0 0 1 -1.07 2.35 3.11 3.11 0 0 1 -1.81.5 2.18 2.18 0 0 0 0-.25 22.79 22.79 0 0 0 -.64-5.86 5.89 5.89 0 0 1 .84 0 3.35 3.35 0 0 1 2.06.66zm-10.08 14.39a5.36 5.36 0 0 0 .09-1.64 3.87 3.87 0 0 0 -.94-1.43 1.75 1.75 0 0 1 -.5-1.55l.35.32a15.27 15.27 0 0 1 1.47 1.53 13.33 13.33 0 0 1 1.23 1.77 10.39 10.39 0 0 1 1.39 4v.38a4.25 4.25 0 0 1 -2-.88 3.13 3.13 0 0 1 -1.09-2.5zm-2.31 9.25a5.9 5.9 0 0 0 1.46-2.62 1.42 1.42 0 0 0 0-.2 2 2 0 0 1 1.22 1.45 2.27 2.27 0 0 1 -1.26 2.07 5.34 5.34 0 0 1 -2.62.6c-.24 0-.48 0-.71 0a5.47 5.47 0 0 0 1.91-1.3zm-1.38-32.81c-.83.15-1.73-.13-2.49.23-1.4.69-.87 2.81-2.11 3.73-.75.57-1.88.45-2.72.91a2.63 2.63 0 0 0 -1.24 2.13 22.72 22.72 0 0 0 .14 2.47 3.08 3.08 0 0 1 -1.63 2.73 12.22 12.22 0 0 1 .55-7.24 12.88 12.88 0 0 1 2.66-4.18 14.87 14.87 0 0 1 4.22-3.06 16.07 16.07 0 0 1 4.3-1.41 2.72 2.72 0 0 1 .33 1 2.55 2.55 0 0 1 -2.01 2.69zm-1.23 22.19c-.78-.58-1.64-1.15-2.55-1.77a21.21 21.21 0 0 1 -3.26-2.68c-.1-.1-.2-.21-.29-.32a2.72 2.72 0 0 1 1.29-.88 2.06 2.06 0 0 1 2.36.75c.33.57.24 1.36.77 1.79s1.59.3 2.17.77a1.19 1.19 0 0 1 .31 1.36 2.42 2.42 0 0 1 -.8.98zm-3-12.19a3.08 3.08 0 0 1 -.76-.9 1.86 1.86 0 0 1 -.08-1.89 2.79 2.79 0 0 1 1.56-1l.24-.07a7.48 7.48 0 0 0 -1 3.22 5.15 5.15 0 0 0 .04.64zm51.16 22.91c.53-1.06-.14-2.44.71-3.32a2.24 2.24 0 0 1 2.47-.25 4.31 4.31 0 0 1 1.15.87 13.88 13.88 0 0 1 -2.14 3.78 15.42 15.42 0 0 1 -4.43 3.65v-.05a2.83 2.83 0 0 1 .6-3c.48-.52 1.26-.95 1.61-1.65zm-7.71 1.37a3.21 3.21 0 0 1 -2.3-.92 1.71 1.71 0 0 1 -.19-1.63c.36-.05.72-.1 1.06-.17a9.24 9.24 0 0 0 2.43-.86 6.1 6.1 0 0 0 1.21-.86 4.54 4.54 0 0 1 1 1.18 2.14 2.14 0 0 1 -.37 2.61 3.86 3.86 0 0 1 -2.87.68zm4-9.08a7.08 7.08 0 0 0 -.54-2.31 9.14 9.14 0 0 0 -1.39-2.19 12.75 12.75 0 0 0 -2.32-2.1 2.12 2.12 0 0 1 .2-.24 3.54 3.54 0 0 1 3.38-.94 1.85 1.85 0 0 1 1.12.76c.4.7 0 1.6.2 2.36.35 1.16 2.05 1.6 2.4 2.76a2 2 0 0 1 -1.07 2.19 4.59 4.59 0 0 1 -2 .61 5.41 5.41 0 0 0 -.04-.87zm7.35-1a3.52 3.52 0 0 1 -3-3.26 4.29 4.29 0 0 1 1.52-2.87l.57-.51a14.25 14.25 0 0 1 2.41 6.71 5.16 5.16 0 0 1 -1.56-.07zm-40-21.7a2.32 2.32 0 0 1 .45 3.17 3.67 3.67 0 0 1 -.86.9 8.09 8.09 0 0 0 -2.28-2.95c-.17-.13-.35-.23-.51-.36s-.36-.22-.54-.29a4.56 4.56 0 0 0 -.55-.24l-.29-.11-.3-.08a8.13 8.13 0 0 0 -2.68-.2h-.34a3.29 3.29 0 0 1 .85-1.4 2.21 2.21 0 0 1 1.58-.63c1 .05 1.59.82 2.42 1.2s2.17.4 3.03.99zm17.87 28.44a22.55 22.55 0 0 0 3.18.72 16.15 16.15 0 0 0 1.69.18 3.68 3.68 0 0 1 .08.58 2.65 2.65 0 0 1 -1.45 2.4 3.56 3.56 0 0 1 -2.53.14 9.45 9.45 0 0 1 -2.23-1.1 5.79 5.79 0 0 1 -2.33-2.09 5.19 5.19 0 0 1 -.25-2.56q.48.32 1 .6a19.5 19.5 0 0 0 2.82 1.13zm6.54-14.45c-.53-.22-1.12-.44-1.72-.68-1.19-.46-2.51-1-3.88-1.64 0-.22.1-.44.16-.66a2.52 2.52 0 0 1 .83-1.46 3.5 3.5 0 0 1 2-.43 4.57 4.57 0 0 1 2.57.46 2.37 2.37 0 0 1 1 1.88 3.61 3.61 0 0 1 -.9 2.55zm-2.31 21.89c1.43 0 2.89-.36 4.31-.21a3.34 3.34 0 0 1 2.5 1.42 26.45 26.45 0 0 1 -9.89.19c-.88-.14-1.74-.32-2.59-.53a5 5 0 0 1 2.3-1 25.35 25.35 0 0 1 3.35.13zm-11.79-5.38a3 3 0 0 1 .77 1.64 9.82 9.82 0 0 1 .2 2.42v.41c-.39-.18-.78-.37-1.15-.58a19.23 19.23 0 0 1 -3.93-2.89l-.46-.46a6.81 6.81 0 0 1 1.05-.69 3.22 3.22 0 0 1 3.52.15zm-4-18.38a2.12 2.12 0 0 1 .47-2.69 6.39 6.39 0 0 1 2-1.32c.16 1.08.25 2.13.32 3.16 0 .6.07 1.2.11 1.79h-.56a3.18 3.18 0 0 1 -2.37-.97zm35.48-15.86a6.26 6.26 0 0 0 .42-1l.08.08a2.32 2.32 0 0 1 .29 2.61 3.78 3.78 0 0 1 -3.08 1.56 3.06 3.06 0 0 1 -2.56-.85 2.23 2.23 0 0 1 -.39-1.17 3.49 3.49 0 0 0 .83.71 2.46 2.46 0 0 0 .81.31 2 2 0 0 0 .42 0 2.37 2.37 0 0 0 .44 0 3.31 3.31 0 0 0 1-.41 4.58 4.58 0 0 0 1.71-1.87zm1.31-14.49a1.34 1.34 0 0 1 .62-1.13 20.12 20.12 0 0 1 1.53 2.66c-.93-.31-2.11-.8-2.18-1.56zm-11 19.32a13.34 13.34 0 0 1 -2.62-3.62c-.59-1.18-.95-2.18-1.36-3.1a1.91 1.91 0 0 1 1.71-.23 2.1 2.1 0 0 1 1.08 1.24 6.3 6.3 0 0 0 .69 1.49c.49.64 1.36 1 1.71 1.73a2 2 0 0 1 -1.23 2.46zm1.66 11.49a3.12 3.12 0 0 1 -2.63-1.8 4.74 4.74 0 0 0 -.41-1.29 2.31 2.31 0 0 0 -1.72-.73 6.26 6.26 0 0 1 -1.95-.28 2 2 0 0 1 -1.14-2.22l.27.09c.62.22 1.27.44 1.94.69s1.39.55 2.07.87a24.72 24.72 0 0 1 4 2.27 20.53 20.53 0 0 1 2.74 2.29 8.52 8.52 0 0 1 -3.19.08zm9-23.58a18.58 18.58 0 0 0 -1-4.45 2.55 2.55 0 0 1 1.5.11 2.51 2.51 0 0 1 1.49 1.79 2 2 0 0 1 -.16 1.41 2.64 2.64 0 0 1 -1.82 1.11zm4.19 6.75a2.71 2.71 0 0 1 -1.08-.73 2.66 2.66 0 0 1 -.7-2.33 2.59 2.59 0 0 1 1.23-1.81 2.07 2.07 0 0 1 .81-.29 21 21 0 0 1 0 3 14.37 14.37 0 0 1 -.25 2.13zm-3.92 6.08a9.36 9.36 0 0 1 -2.63 1.3 8.62 8.62 0 0 1 -2 .37 1.53 1.53 0 0 1 .61-1 4 4 0 0 1 1.75-.56 3 3 0 0 0 1.62-1.14 2.3 2.3 0 0 1 2.33-.45 9 9 0 0 1 -1.67 1.45zm-40.51-2.22c-.9-.76-.87-2.19-1.87-2.84-.8-.53-2-.34-2.89-.65a3.13 3.13 0 0 1 -1.85-1.8q-.15-.33-.27-.66c.51.06 1 .13 1.5.23.22.05.45.09.66.15l.65.19a9.73 9.73 0 0 1 1.27.48 12.11 12.11 0 0 1 2.27 1.25 14.91 14.91 0 0 1 1.91 1.59 15.09 15.09 0 0 1 1.52 1.8l.19.27a2.78 2.78 0 0 1 -3.08-.04zm8.68 24.22a7.67 7.67 0 0 0 .48.73 2.36 2.36 0 0 1 -.36.26 1.82 1.82 0 0 1 -2.9-1.9 5.6 5.6 0 0 0 0-2c-.3-.95-1.3-1.64-1.37-2.62a2.25 2.25 0 0 1 2.26-2.21c0 .77.11 1.51.21 2.22a14.43 14.43 0 0 0 1.68 5.52zm-8.33 1.43a3 3 0 0 1 -.67 0 23.61 23.61 0 0 1 -1.16-5.89c-.08-1-.11-2-.12-2.93a1.76 1.76 0 0 1 2.58 1.93 6.76 6.76 0 0 0 0 2.42c.34.94 1.35 1.66 1.34 2.66a2.14 2.14 0 0 1 -1.96 1.81zm10.25-23.53a4.59 4.59 0 0 1 1.91 2.36 1.5 1.5 0 0 1 -.31 1.72 2 2 0 0 1 -1.25.32 7.42 7.42 0 0 1 -.81 0 13.16 13.16 0 0 1 -.73-1.58 14.21 14.21 0 0 1 -.76-2.93 1.74 1.74 0 0 1 1.96.11zm-.45-10.23.14-.26a13.63 13.63 0 0 1 1.4-2.15 13.22 13.22 0 0 1 1.94-2l.34-.26.25.22a2.18 2.18 0 0 1 .23 2.79 4.88 4.88 0 0 1 -4.3 1.66zm12.67-3.8a5 5 0 0 1 -3.69-2.09 6 6 0 0 1 -.5-.95h.12a11.36 11.36 0 0 1 6 .07 9.23 9.23 0 0 1 2.47 1.17 2 2 0 0 1 -.22.27 5.21 5.21 0 0 1 -4.18 1.54zm6.74 3.88a2.55 2.55 0 0 1 -.55-2.85 2.33 2.33 0 0 1 .46-.68 15.3 15.3 0 0 1 1.92 3.74l.17.48a3.21 3.21 0 0 1 -2-.68zm-13.29 4.77a12.52 12.52 0 0 0 0 2.87 10.24 10.24 0 0 0 .19 1.13 4.61 4.61 0 0 1 -2.51-.61 2.65 2.65 0 0 1 -1.12-3.31c.32-.67 1-1.21 1.24-1.9s.2-1.52.79-2a2 2 0 0 1 2.5.27l.14.13a6.07 6.07 0 0 0 -.46.83 9 9 0 0 0 -.77 2.6z" fill="#e7579a" transform="translate(77.47 -2.82)"/><path d="m90.11 320.45a10.63 10.63 0 0 1 -2.23-.17c-2.44-.41-4.9-1.56-7.73-1.89a12.76 12.76 0 0 1 1.53.07c2.83.33 5.29 1.48 7.73 1.89zm2-29.91a7.24 7.24 0 0 0 -2.11 4.81 7.53 7.53 0 0 0 .32 2.71 5.47 5.47 0 0 0 .23.64l.13.31.16.3.16.3.19.28a5.06 5.06 0 0 0 .41.57 18 18 0 0 0 2.4 2.28c.92.77 2 1.57 3 2.52a15.27 15.27 0 0 1 1.47 1.53 13.33 13.33 0 0 1 1.23 1.77 10.39 10.39 0 0 1 1.39 4 9 9 0 0 1 0 2.2 8.14 8.14 0 0 1 -.57 2.19 9.53 9.53 0 0 1 -2.75 3.7 9.27 9.27 0 0 1 -2.14 1.35 8.83 8.83 0 0 1 -2.37.66 9.43 9.43 0 0 1 -2.49 0c.32 0 .64 0 1-.07a8.8 8.8 0 0 0 2.38-.66 9.27 9.27 0 0 0 2.07-1.27 9.63 9.63 0 0 0 2.75-3.7 8.53 8.53 0 0 0 .57-2.19 9 9 0 0 0 0-2.2 10.39 10.39 0 0 0 -1.39-4 13.33 13.33 0 0 0 -1.23-1.77 15.27 15.27 0 0 0 -1.47-1.53c-1-.95-2.05-1.75-3-2.52a18 18 0 0 1 -2.37-2.28 5.06 5.06 0 0 1 -.41-.57l-.19-.28-.16-.3-.16-.3-.13-.32a4.75 4.75 0 0 1 -.23-.63 7.53 7.53 0 0 1 -.32-2.71 7.24 7.24 0 0 1 2.18-4.81 8.58 8.58 0 0 1 5.06-2.2 8.16 8.16 0 0 1 1.92.05h-.4a8.58 8.58 0 0 0 -5.08 2.14zm-17.42 31.18a.32.32 0 0 1 -.37.13.24.24 0 0 1 -.15-.34 4.56 4.56 0 0 1 1.32-1.59 1.77 1.77 0 0 1 .24-.17l.41-.13a7.39 7.39 0 0 1 1.87-.25 9 9 0 0 1 1.15.08 7.57 7.57 0 0 0 -1.5.24 4.88 4.88 0 0 0 -2.97 2.03zm67.16-34.72a2 2 0 0 1 -.41 0 2.7 2.7 0 0 1 -.81-.31 4 4 0 0 1 -.84-.71 8.41 8.41 0 0 1 -1.44-2.37c-.37-.87-.71-2.07-1.16-3.3a14.83 14.83 0 0 0 -2-3.9 9 9 0 0 0 -4.62-3.2 9.75 9.75 0 0 0 -1.77-.36 10.87 10.87 0 0 1 3.29.43 9 9 0 0 1 4.62 3.2 14.83 14.83 0 0 1 2 3.9c.45 1.23.79 2.43 1.16 3.3a8.07 8.07 0 0 0 1.45 2.37 3.49 3.49 0 0 0 .83.71 2.31 2.31 0 0 0 .36.17l-.21.06a2.48 2.48 0 0 1 -.45.01zm9.24-.67a9.53 9.53 0 0 1 -3.25 4 9.36 9.36 0 0 1 -2.63 1.3 8.09 8.09 0 0 1 -3.14.35l-.48-.05a9 9 0 0 0 2.1-.37 9.12 9.12 0 0 0 2.63-1.31 9.52 9.52 0 0 0 3.25-4 12.69 12.69 0 0 0 1-4.26 20.81 20.81 0 0 0 -4.83-14.59 1.24 1.24 0 0 0 -.36-.29 1.6 1.6 0 0 1 1.88.36 20.86 20.86 0 0 1 4.8 14.53 12.69 12.69 0 0 1 -.97 4.29zm-22.71-7.33a4.07 4.07 0 0 0 -.67.16 5.32 5.32 0 0 0 -2 1.12 6.1 6.1 0 0 0 -.77.87 6.42 6.42 0 0 0 -.62 1.09 9 9 0 0 0 -.73 2.61 12.52 12.52 0 0 0 0 2.87 9 9 0 0 0 .66 2.59 6 6 0 0 0 3.48 3.27c.92.42 2 .81 3.27 1.23.62.22 1.27.44 1.94.69s1.39.55 2.07.87a24.72 24.72 0 0 1 4 2.27 19.6 19.6 0 0 1 3.46 3.05 15.84 15.84 0 0 1 2.62 3.91 13.9 13.9 0 0 1 1.25 4.67 14.13 14.13 0 0 1 -.46 4.93 13.73 13.73 0 0 1 -2.48 4.81 15.42 15.42 0 0 1 -4.43 3.65 19.8 19.8 0 0 1 -5.17 1.92 25.32 25.32 0 0 1 -7.45.48 24.34 24.34 0 0 0 5.93-.56 19.42 19.42 0 0 0 5.17-1.91 15.42 15.42 0 0 0 4.35-3.59 13.81 13.81 0 0 0 2.48-4.81 13.86 13.86 0 0 0 -.79-9.6 15.65 15.65 0 0 0 -2.62-3.91 19.6 19.6 0 0 0 -3.46-3.05 24.72 24.72 0 0 0 -4-2.27c-.68-.33-1.39-.61-2.07-.87l-1.94-.69c-1.24-.42-2.35-.81-3.27-1.23a6 6 0 0 1 -3.48-3.27 8.72 8.72 0 0 1 -.66-2.59 12.52 12.52 0 0 1 0-2.87 9 9 0 0 1 .73-2.61 6.42 6.42 0 0 1 .62-1.09 6.76 6.76 0 0 1 .76-.87 5.26 5.26 0 0 1 2-1.12 3.88 3.88 0 0 1 2-.14zm-5.73 37.93a22.55 22.55 0 0 0 3.18.72c.43.07.86.11 1.29.15a20.58 20.58 0 0 1 -2.81-.22 22.55 22.55 0 0 1 -3.18-.72 19.5 19.5 0 0 1 -2.82-1.13 11.39 11.39 0 0 1 -2.25-1.53 8.34 8.34 0 0 1 -1.58-1.95 14.65 14.65 0 0 1 -1.67-5.56c-.28-2.12-.32-4.5-.49-7a27.23 27.23 0 0 0 -1.52-8 17.48 17.48 0 0 0 -2.09-3.92 15.84 15.84 0 0 0 -1.52-1.79 14.13 14.13 0 0 0 -1.91-1.59 12.74 12.74 0 0 0 -2.28-1.29 11.36 11.36 0 0 0 -1.27-.47l-.65-.19-.66-.15c-.52-.11-1.05-.18-1.59-.24a15.55 15.55 0 0 1 3.11.31c.22.05.45.09.66.15l.65.19a9.73 9.73 0 0 1 1.27.48 12.11 12.11 0 0 1 2.27 1.25 14.91 14.91 0 0 1 1.91 1.59 15.09 15.09 0 0 1 1.52 1.8 16.82 16.82 0 0 1 2.09 3.91 27.35 27.35 0 0 1 1.52 8c.17 2.53.21 4.91.49 7a14.43 14.43 0 0 0 1.68 5.56 8.06 8.06 0 0 0 1.57 1.95 11.39 11.39 0 0 0 2.25 1.53 19.5 19.5 0 0 0 2.83 1.17z" fill="#e7e8e9" transform="translate(77.47 -2.82)"/><path d="m219.29 256.94-.33.16 1.46 2.75.33-.15z" fill="#ed837e"/><path d="m142.23 258.28a.19.19 0 0 0 -.19.11l-.5 1.24-1.35-.38a.19.19 0 0 0 -.23.11.15.15 0 0 0 .11.2l1.69.48.62-1.55a.16.16 0 0 0 -.11-.21z" fill="#ed837e" transform="translate(77.47 -2.82)"/><path d="m141.85 267.31a3.28 3.28 0 0 0 4.61 1.58 2.89 2.89 0 0 0 1.44-4.38c-1.11-2.1-3.79-4-5.46-3.2s-1.7 3.91-.59 6z" fill="#fbddec" transform="translate(77.47 -2.82)"/><path d="m142.25 265.72a.4.4 0 0 0 .54.15.36.36 0 0 0 .19-.49.41.41 0 0 0 -.53-.15.36.36 0 0 0 -.2.49z" fill="#283069" transform="translate(77.47 -2.82)"/><path d="m146.31 263.84a.37.37 0 0 1 -.2.49.41.41 0 0 1 -.53-.15.35.35 0 0 1 .19-.49.41.41 0 0 1 .54.15z" fill="#283069" transform="translate(77.47 -2.82)"/><g clip-path="url(#b)"><path d="m198.81 174.76a21.5 21.5 0 0 1 -4-16.31 10.63 10.63 0 0 1 1.28-3.68 6.16 6.16 0 0 1 2.46-2.35 5.35 5.35 0 0 1 1.46-.52 3.79 3.79 0 0 1 .64-.07 3.1 3.1 0 0 1 .6 0 4 4 0 0 1 1.15.4 4.82 4.82 0 0 1 1.2.91 10.34 10.34 0 0 1 2.08 3c.52 1.11 1 2.64 1.66 4.2a18.07 18.07 0 0 0 2.91 5 13.21 13.21 0 0 0 6.63 4.09 18.27 18.27 0 0 0 8.57.08 20.07 20.07 0 0 0 7.34-3.21 19.4 19.4 0 0 0 2.77-2.5 16.85 16.85 0 0 0 2-2.73 18.48 18.48 0 0 0 2.2-5.69 20.83 20.83 0 0 0 .37-5.61 17.59 17.59 0 0 0 -1.34-5.67 15.4 15.4 0 0 0 -3.79-5.3 19.42 19.42 0 0 0 -2.84-2.12 28.2 28.2 0 0 0 -3-1.57c-2-.9-3.93-1.55-5.68-2.15l-2.47-.87c-.77-.3-1.46-.56-2.15-.87a21.1 21.1 0 0 1 -6.83-4.54 11.23 11.23 0 0 1 -2-2.8 8.07 8.07 0 0 1 -.78-3 7.79 7.79 0 0 1 .39-2.94 7.08 7.08 0 0 1 1.36-2.34 8.74 8.74 0 0 1 2.42-1.69 14 14 0 0 1 3.48-1.1 24 24 0 0 1 4.26-.38 30.53 30.53 0 0 1 4.56.29 33.62 33.62 0 0 1 4.55.92 29.11 29.11 0 0 1 4 1.44 16.68 16.68 0 0 1 3.22 2 11.19 11.19 0 0 1 2.26 2.5 17.15 17.15 0 0 1 2.4 7.1c.4 2.7.46 5.74.7 9a31.89 31.89 0 0 0 2.17 10.22 21.52 21.52 0 0 0 3 5 18.93 18.93 0 0 0 4.9 4.32 19 19 0 0 0 3.26 1.61 16.15 16.15 0 0 0 1.82.6l.93.25c.31.07.63.12.94.18a24.82 24.82 0 0 0 7.64.2 26 26 0 0 0 7.19-2 21.64 21.64 0 0 0 6-3.91 16.5 16.5 0 0 0 3.82-5.34 14 14 0 0 0 0-11.41 10.9 10.9 0 0 0 -.67-1.32l-.38-.65c-.14-.21-.3-.41-.44-.62l-.46-.61-.51-.58c-.34-.4-.71-.76-1.07-1.11a30.35 30.35 0 0 0 -4.68-3.41c-1.55-1-3-1.81-4.3-2.7-.63-.44-1.22-.89-1.75-1.34a12.73 12.73 0 0 1 -1.46-1.48 10.11 10.11 0 0 1 -1.9-3.36 7.54 7.54 0 0 1 -.31-1.81 6.16 6.16 0 0 1 .21-1.8 7.34 7.34 0 0 1 2.09-3.35 8.11 8.11 0 0 1 3.88-2 14.59 14.59 0 0 1 5 0c3.5.53 7 2 11.07 2.41a16.72 16.72 0 0 0 3.09 0 14.2 14.2 0 0 0 3.05-.6 10 10 0 0 0 2.72-1.3 6.1 6.1 0 0 0 1.89-2 .31.31 0 0 0 -.21-.44.49.49 0 0 0 -.53.17 7 7 0 0 1 -4.25 2.59 12 12 0 0 1 -2.67.33 14.9 14.9 0 0 1 -2.66-.27c-3.54-.64-6.67-2.33-10.59-3.29a18.2 18.2 0 0 0 -6.43-.51 13.8 13.8 0 0 0 -3.39.84 13.07 13.07 0 0 0 -3 1.63 12.44 12.44 0 0 0 -3.94 4.72 9.25 9.25 0 0 0 -.82 2.8 10.57 10.57 0 0 0 0 2.81 12.34 12.34 0 0 0 2 5.16 17 17 0 0 0 1.76 2.26 24.14 24.14 0 0 0 2.1 2c1.45 1.2 2.94 2.23 4.26 3.22a24.59 24.59 0 0 1 3.4 2.9 7.55 7.55 0 0 1 .59.73l.27.36.22.38c.08.13.16.25.23.39l.18.4a5.16 5.16 0 0 1 .34.81 8.66 8.66 0 0 1 .46 3.46 8.92 8.92 0 0 1 -3.13 6.15 13.07 13.07 0 0 1 -7.24 2.8 12.37 12.37 0 0 1 -3.84-.26l-.44-.1-.41-.14a5 5 0 0 1 -.79-.3 6.86 6.86 0 0 1 -.77-.38 8.09 8.09 0 0 1 -.73-.46 11.45 11.45 0 0 1 -4.16-5.75 24.87 24.87 0 0 1 -1.08-8c0-2.93.14-6.1-.14-9.54a25 25 0 0 0 -3.14-10.59 20.12 20.12 0 0 0 -4.18-4.93 27.92 27.92 0 0 0 -5.64-3.65 37.24 37.24 0 0 0 -6.26-2.36 48.67 48.67 0 0 0 -6.52-1.37 42.25 42.25 0 0 0 -14.2.25 29.94 29.94 0 0 0 -7.24 2.41 21.61 21.61 0 0 0 -6.34 4.66 17.06 17.06 0 0 0 -3.56 6.15 16.09 16.09 0 0 0 -.66 6.3 16.42 16.42 0 0 0 1.79 6 20.48 20.48 0 0 0 3.75 5 28.12 28.12 0 0 0 5 3.9 36.77 36.77 0 0 0 5.66 2.89c1 .42 2 .78 3 1.11s1.89.61 2.78.88c1.77.54 3.36 1 4.69 1.58 2.69 1.11 4 2.15 5 4.17a10.51 10.51 0 0 1 .93 3.31 13.66 13.66 0 0 1 0 3.67 10.71 10.71 0 0 1 -1 3.33 7.7 7.7 0 0 1 -.9 1.39 8.31 8.31 0 0 1 -1.09 1.12 8.14 8.14 0 0 1 -2.87 1.43 6.32 6.32 0 0 1 -2.85.17l-.29-.07-.26-.09a3.33 3.33 0 0 1 -.58-.26 5.33 5.33 0 0 1 -1.14-.86 12.4 12.4 0 0 1 -2.1-3.15c-.68-1.29-1.22-2.7-2.16-4.4a17.32 17.32 0 0 0 -3.83-4.67 12.77 12.77 0 0 0 -3.14-2 12.63 12.63 0 0 0 -4.22-1 13.3 13.3 0 0 0 -4.61.44 13.87 13.87 0 0 0 -3.76 1.66 12.57 12.57 0 0 0 -4.66 5.12 14.44 14.44 0 0 0 -1.39 5.44 24.08 24.08 0 0 0 1.47 9.94 26.07 26.07 0 0 0 5.45 8.69 2.57 2.57 0 0 0 3.1.26 1.59 1.59 0 0 0 .63-2.34z" fill="#fbddec" transform="translate(77.47 -2.82)"/><path d="m272.53 106.37a18.32 18.32 0 0 1 6.32.52c.31.07.61.16.92.25a16.32 16.32 0 0 1 -2.31.6c-1.91.35-5.11-.04-4.93-1.37zm-21.24 35.06a3.48 3.48 0 0 1 -.9-3.31 3.93 3.93 0 0 1 1.53-3 4.94 4.94 0 0 1 2.61-.64v.31a26.55 26.55 0 0 0 .92 7.49 8 8 0 0 1 -1.2 0 5.09 5.09 0 0 1 -2.96-.85zm14.45-18.37a6.46 6.46 0 0 0 -.13 2.09 5 5 0 0 0 1.39 1.85 2.06 2.06 0 0 1 .72 2l-.51-.4a24.14 24.14 0 0 1 -2.1-2 17 17 0 0 1 -1.76-2.26 12.34 12.34 0 0 1 -2-5.16c0-.16 0-.33-.05-.49a6.55 6.55 0 0 1 2.92 1.13 3.8 3.8 0 0 1 1.52 3.24zm3.31-11.82a7.34 7.34 0 0 0 -2.09 3.35l-.06.26a2.59 2.59 0 0 1 -1.74-1.85 2.86 2.86 0 0 1 1.79-2.65 8.53 8.53 0 0 1 3.76-.76h1a8.27 8.27 0 0 0 -2.66 1.65zm2 41.92c1.19-.18 2.48.17 3.56-.29 2-.88 1.26-3.58 3-4.76 1.08-.73 2.69-.58 3.9-1.16a3.32 3.32 0 0 0 1.78-2.76 27.79 27.79 0 0 0 -.21-3.16 3.94 3.94 0 0 1 2.33-3.49 13.91 13.91 0 0 1 .46 3.45 14.51 14.51 0 0 1 -1.23 5.8 16.5 16.5 0 0 1 -3.82 5.34 21.64 21.64 0 0 1 -6 3.91 25.66 25.66 0 0 1 -6.17 1.8 3 3 0 0 1 -.46-1.24 3.32 3.32 0 0 1 2.81-3.44zm1.8-28.34c1.11.73 2.34 1.46 3.64 2.26a30.35 30.35 0 0 1 4.68 3.41l.42.41a4.11 4.11 0 0 1 -1.86 1.13 3.19 3.19 0 0 1 -3.38-.95c-.47-.74-.35-1.74-1.1-2.3s-2.28-.38-3.12-1a1.42 1.42 0 0 1 -.43-1.74 3 3 0 0 1 1.13-1.22zm4.31 15.52a4.45 4.45 0 0 1 1.09 1.15 2.2 2.2 0 0 1 .11 2.42 4.14 4.14 0 0 1 -2.24 1.32l-.34.09a8.88 8.88 0 0 0 1.36-4.11 8.42 8.42 0 0 0 0-.87zm-73.32-29.25c-.74 1.35.21 3.11-1 4.23a3.51 3.51 0 0 1 -3.55.32 6.15 6.15 0 0 1 -1.64-1.11 17.23 17.23 0 0 1 3.07-4.83 21.61 21.61 0 0 1 6.28-4.7h.06v.06a3.29 3.29 0 0 1 -.85 3.79c-.72.79-1.89 1.34-2.39 2.24zm11.05-1.75a4.91 4.91 0 0 1 3.31 1.17 2 2 0 0 1 .27 2.08c-.52.06-1 .13-1.52.22a14 14 0 0 0 -3.48 1.1 8.65 8.65 0 0 0 -1.73 1.09 6.26 6.26 0 0 1 -1.48-1.5 2.52 2.52 0 0 1 .54-3.33 6 6 0 0 1 4.07-.83zm-5.68 11.58a8.07 8.07 0 0 0 .78 3 11.23 11.23 0 0 0 2 2.8 18.23 18.23 0 0 0 3.33 2.68 4 4 0 0 1 -.29.3 5.49 5.49 0 0 1 -4.84 1.2 2.58 2.58 0 0 1 -1.61-1c-.57-.89 0-2-.29-3-.5-1.48-2.93-2-3.43-3.52-.35-1 .41-2.18 1.53-2.8a6.92 6.92 0 0 1 2.86-.78 8.68 8.68 0 0 0 -.06 1.12zm-10.54 1.32c2.39.44 4.33 2.18 4.27 4.17a5.32 5.32 0 0 1 -2.17 3.67c-.24.19-.52.42-.82.64a18.6 18.6 0 0 1 -1.66-2.61 16.42 16.42 0 0 1 -1.79-6 8.28 8.28 0 0 1 2.15.13zm57.24 27.76a2.76 2.76 0 0 1 -.64-4.06 4.94 4.94 0 0 1 1.22-1.14 10.61 10.61 0 0 0 3.28 3.76 8.09 8.09 0 0 0 .73.46 6.86 6.86 0 0 0 .77.38 5 5 0 0 0 .79.3l.41.14.44.1a12.37 12.37 0 0 0 3.84.26h.48a4.23 4.23 0 0 1 -1.21 1.79 3.41 3.41 0 0 1 -2.27.8c-1.36-.07-2.28-1-3.47-1.54-1.38-.62-3.14-.55-4.37-1.25zm-25.61-36.36a33.62 33.62 0 0 0 -4.55-.92c-.8-.11-1.61-.19-2.42-.24a3.58 3.58 0 0 1 -.11-.73 3.36 3.36 0 0 1 2.07-3.07 5.57 5.57 0 0 1 3.63-.17 13.66 13.66 0 0 1 3.19 1.4 8.14 8.14 0 0 1 3.35 2.67 6.11 6.11 0 0 1 .35 3.27c-.46-.27-.95-.53-1.46-.77a29.11 29.11 0 0 0 -4.05-1.44zm-9.37 18.45 2.47.87c1.71.59 3.59 1.23 5.56 2.09-.07.29-.14.57-.22.85a3.16 3.16 0 0 1 -1.2 1.86 5.47 5.47 0 0 1 -2.84.55 7.18 7.18 0 0 1 -3.68-.59 3 3 0 0 1 -1.42-2.4 4.33 4.33 0 0 1 1.29-3.25zm3.32-27.95c-2.06 0-4.14.45-6.18.26a4.87 4.87 0 0 1 -3.58-1.81 42.27 42.27 0 0 1 14.16-.24c1.28.18 2.51.41 3.73.67a7.66 7.66 0 0 1 -3.31 1.33 41 41 0 0 1 -4.82-.21zm16.87 6.91a3.69 3.69 0 0 1 -1.12-2.05 11.16 11.16 0 0 1 -.27-3.1 3.17 3.17 0 0 1 .05-.53c.56.24 1.11.48 1.65.75a27.92 27.92 0 0 1 5.64 3.65l.66.59a10.21 10.21 0 0 1 -1.5.88c-1.62.76-3.87.85-5.11-.19zm5.76 23.47c.86 1 .39 2.48-.67 3.43a9.16 9.16 0 0 1 -2.82 1.69c-.22-1.38-.36-2.73-.46-4-.06-.78-.11-1.54-.15-2.3h.8a4.89 4.89 0 0 1 3.3 1.18zm-50.83 20.25a8.63 8.63 0 0 0 -.61 1.26l-.1-.09a2.71 2.71 0 0 1 -.42-3.34c.82-1.26 2.68-1.9 4.41-2a4.68 4.68 0 0 1 3.67 1.1 2.61 2.61 0 0 1 .57 1.49 4.82 4.82 0 0 0 -1.2-.91 4 4 0 0 0 -1.15-.4 3.1 3.1 0 0 0 -.6 0 3.79 3.79 0 0 0 -.64.07 5.35 5.35 0 0 0 -1.46.52 6.16 6.16 0 0 0 -2.47 2.3zm-1.87 18.51a1.68 1.68 0 0 1 -.9 1.44 27.94 27.94 0 0 1 -2.19-3.39c1.29.35 2.99.93 3.09 1.95zm15.74-24.67a17.15 17.15 0 0 1 3.76 4.61c.83 1.51 1.36 2.79 1.94 4a3 3 0 0 1 -2.45.29 2.81 2.81 0 0 1 -1.54-1.58 7.32 7.32 0 0 0 -1-1.9c-.71-.82-2-1.3-2.45-2.21-.61-1.17.3-2.65 1.74-3.21zm-2.38-14.69c1.66.22 3.28 1 3.77 2.31a5.61 5.61 0 0 0 .59 1.65 3.5 3.5 0 0 0 2.46.92 10.64 10.64 0 0 1 2.8.36 2.48 2.48 0 0 1 1.63 2.84l-.39-.12c-.89-.27-1.81-.56-2.78-.88s-2-.69-3-1.11a36.77 36.77 0 0 1 -5.62-2.89 29 29 0 0 1 -3.94-2.93 13.93 13.93 0 0 1 4.48-.15zm-12.94 30.13a21.44 21.44 0 0 0 1.42 5.67 4 4 0 0 1 -2.15-.13 3.33 3.33 0 0 1 -2.13-2.28 2.31 2.31 0 0 1 .23-1.81 3.82 3.82 0 0 1 2.63-1.45zm-6-8.62a3.72 3.72 0 0 1 1.55.92 3.17 3.17 0 0 1 1 3 3.37 3.37 0 0 1 -1.76 2.32 3.49 3.49 0 0 1 -1.16.36 24 24 0 0 1 -.06-3.79 16.43 16.43 0 0 1 .43-2.81zm5.62-7.77a13.87 13.87 0 0 1 3.78-1.66 13.43 13.43 0 0 1 2.88-.47 1.94 1.94 0 0 1 -.86 1.32 6.33 6.33 0 0 1 -2.52.72 4.31 4.31 0 0 0 -2.32 1.45 3.63 3.63 0 0 1 -3.34.58 12.88 12.88 0 0 1 2.38-1.94zm58 2.83c1.28 1 1.24 2.8 2.68 3.64 1.15.66 2.8.43 4.14.82a4.36 4.36 0 0 1 2.66 2.3c.13.28.26.56.37.84-.72-.07-1.44-.16-2.15-.3-.31-.06-.63-.11-.94-.18l-.93-.25a16.15 16.15 0 0 1 -1.82-.6 19 19 0 0 1 -3.26-1.61 18.93 18.93 0 0 1 -4.9-4.32c-.1-.11-.18-.23-.27-.34a4.34 4.34 0 0 1 4.46 0zm-12.43-31a11.47 11.47 0 0 0 -.7-.94 4.45 4.45 0 0 1 .51-.33 3.39 3.39 0 0 1 3.31 0 2.54 2.54 0 0 1 .85 2.41 6.25 6.25 0 0 0 0 2.62c.42 1.2 1.86 2.08 2 3.34.12 1.64-1.51 2.65-3.23 2.82-.08-1-.17-1.93-.31-2.83a17.15 17.15 0 0 0 -2.39-7.05zm11.93-1.83a4.39 4.39 0 0 1 1 0 27.76 27.76 0 0 1 1.67 7.51c.1 1.29.15 2.54.16 3.75a3.17 3.17 0 0 1 -2.16.14 2.51 2.51 0 0 1 -1.53-2.61 8 8 0 0 0 -.08-3.09c-.48-1.2-1.93-2.11-1.92-3.39s1.42-2.14 2.9-2.27zm-14.68 30a6 6 0 0 1 -2.74-3 1.78 1.78 0 0 1 .43-2.2 3.32 3.32 0 0 1 1.81-.42h1.15a16.82 16.82 0 0 1 1 2 17.08 17.08 0 0 1 1.1 3.74 2.73 2.73 0 0 1 -2.71-.04zm.65 13.06a3.72 3.72 0 0 0 -.19.34 16.85 16.85 0 0 1 -2 2.73 19.4 19.4 0 0 1 -2.77 2.5l-.49.33a3.44 3.44 0 0 1 -.36-.28 2.59 2.59 0 0 1 -.34-3.57 7.49 7.49 0 0 1 6.19-1.97zm-18.16 4.85a7.38 7.38 0 0 1 5.29 2.67 6.89 6.89 0 0 1 .72 1.22h-.17a18.27 18.27 0 0 1 -8.57-.08 13.6 13.6 0 0 1 -3.53-1.5c.1-.12.19-.24.3-.35a8 8 0 0 1 6-1.88zm-9.66-5a3 3 0 0 1 .14 4.51 18.49 18.49 0 0 1 -2.75-4.79c-.08-.2-.17-.4-.25-.61a4.89 4.89 0 0 1 2.9 1.02zm19.13-5.96a13.66 13.66 0 0 0 0-3.67 9.88 9.88 0 0 0 -.27-1.44 7.38 7.38 0 0 1 3.6.77c1.61.91 2.43 2.72 1.61 4.23-.47.86-1.38 1.55-1.78 2.43s-.29 1.93-1.14 2.58a3.16 3.16 0 0 1 -3.58-.35l-.19-.16a8.93 8.93 0 0 0 .66-1.06 10.71 10.71 0 0 0 1.09-3.33z" fill="#e7579a" transform="translate(77.47 -2.82)"/><path d="m276.93 109.15a17.55 17.55 0 0 1 3.2.23c3.5.52 7 2 11.07 2.4a19.72 19.72 0 0 1 -2.19-.1c-4.06-.42-7.57-1.88-11.07-2.41zm-2.93 38.21a8.92 8.92 0 0 0 3.13-6.15 8.66 8.66 0 0 0 -.46-3.46 5.16 5.16 0 0 0 -.34-.81l-.18-.4c-.07-.14-.15-.26-.23-.39l-.22-.38-.27-.36a7.55 7.55 0 0 0 -.59-.73 24.59 24.59 0 0 0 -3.4-2.9c-1.32-1-2.81-2-4.26-3.22a24.14 24.14 0 0 1 -2.1-2 17 17 0 0 1 -1.76-2.26 12.34 12.34 0 0 1 -2-5.16 10.57 10.57 0 0 1 0-2.81 9.25 9.25 0 0 1 .82-2.8 12.44 12.44 0 0 1 3.94-4.72 13.07 13.07 0 0 1 3-1.63 13.8 13.8 0 0 1 3.39-.84 16.29 16.29 0 0 1 3.56 0q-.68 0-1.38.09a13.82 13.82 0 0 0 -3.39.85 13.33 13.33 0 0 0 -3 1.62 12.5 12.5 0 0 0 -3.93 4.72 9.22 9.22 0 0 0 -.82 2.81 10.5 10.5 0 0 0 0 2.8 12.34 12.34 0 0 0 2 5.16 16.36 16.36 0 0 0 1.76 2.26 22.69 22.69 0 0 0 2.1 2c1.45 1.2 2.94 2.23 4.26 3.22a24.59 24.59 0 0 1 3.4 2.9c.21.24.42.49.59.73l.27.36.22.38c.08.13.16.25.23.39l.18.4a5.16 5.16 0 0 1 .34.81 8.66 8.66 0 0 1 .46 3.46 8.9 8.9 0 0 1 -3.13 6.15 13.07 13.07 0 0 1 -7.24 2.8 13.3 13.3 0 0 1 -2.76-.06h.58a13.07 13.07 0 0 0 7.23-2.83zm25-39.83a.49.49 0 0 1 .53-.17.31.31 0 0 1 .21.44 6.1 6.1 0 0 1 -1.89 2l-.34.22c-.2 0-.39.11-.59.15a12 12 0 0 1 -2.67.33 13.1 13.1 0 0 1 -1.66-.11 11.86 11.86 0 0 0 2.15-.31 7 7 0 0 0 4.26-2.55zm-96.23 44.39a2.49 2.49 0 0 1 .6.06 4 4 0 0 1 1.15.39 4.82 4.82 0 0 1 1.2.91 10.48 10.48 0 0 1 2.08 3c.52 1.11 1 2.64 1.66 4.2a18.07 18.07 0 0 0 2.91 5 13.14 13.14 0 0 0 6.63 4.09 16.76 16.76 0 0 0 2.53.45 17.13 17.13 0 0 1 -4.71-.54 13.21 13.21 0 0 1 -6.63-4.09 18.07 18.07 0 0 1 -2.91-5c-.65-1.56-1.14-3.09-1.66-4.2a10.34 10.34 0 0 0 -2.08-3 4.82 4.82 0 0 0 -1.2-.91 3.74 3.74 0 0 0 -.51-.22l.3-.07a3.79 3.79 0 0 1 .66-.07zm-13.23.86a12.57 12.57 0 0 1 4.66-5.12 13.87 13.87 0 0 1 3.8-1.66 13.3 13.3 0 0 1 4.51-.45l.69.07a13.42 13.42 0 0 0 -3 .47 13.59 13.59 0 0 0 -3.76 1.67 12.49 12.49 0 0 0 -4.66 5.11 14.49 14.49 0 0 0 -1.39 5.44 24.06 24.06 0 0 0 1.47 9.94 26.1 26.1 0 0 0 5.44 8.69 2.17 2.17 0 0 0 .52.38 2.53 2.53 0 0 1 -2.69-.47 26.07 26.07 0 0 1 -5.45-8.69 24.08 24.08 0 0 1 -1.47-9.94 14.44 14.44 0 0 1 1.35-5.44zm32.54 9.3a6.78 6.78 0 0 0 1-.19 8.14 8.14 0 0 0 2.87-1.43 8.31 8.31 0 0 0 1.09-1.12 7.7 7.7 0 0 0 .9-1.39 10.71 10.71 0 0 0 1-3.33 13.66 13.66 0 0 0 0-3.67 10.51 10.51 0 0 0 -.93-3.31c-1-2-2.3-3.06-5-4.17-1.33-.54-2.92-1-4.69-1.58-.89-.27-1.81-.56-2.78-.88s-2-.69-3-1.11a36.77 36.77 0 0 1 -5.54-2.9 28.12 28.12 0 0 1 -5-3.9 20.48 20.48 0 0 1 -3.75-5 16.42 16.42 0 0 1 -1.79-6 16.09 16.09 0 0 1 .66-6.3 17.06 17.06 0 0 1 3.56-6.15 21.61 21.61 0 0 1 6.32-4.65 29.94 29.94 0 0 1 7.41-2.44 41 41 0 0 1 10.67-.63 40 40 0 0 0 -8.49.72 29.56 29.56 0 0 0 -7.41 2.45 21.4 21.4 0 0 0 -6.34 4.65 17.06 17.06 0 0 0 -3.56 6.15 16.09 16.09 0 0 0 -.66 6.3 16.42 16.42 0 0 0 1.79 6 20.53 20.53 0 0 0 3.75 5 27.9 27.9 0 0 0 5 3.89 37.84 37.84 0 0 0 5.67 2.9c1 .41 2 .78 3 1.1s1.89.61 2.78.88c1.77.54 3.36 1 4.69 1.58 2.69 1.11 4 2.15 5 4.17a10.51 10.51 0 0 1 .93 3.31 14.09 14.09 0 0 1 -.05 3.67 10.71 10.71 0 0 1 -1 3.33 8.17 8.17 0 0 1 -2 2.51 8.14 8.14 0 0 1 -2.87 1.43 6.32 6.32 0 0 1 -2.85.17 1.36 1.36 0 0 0 -.36-.06zm8.2-48.44a33.62 33.62 0 0 0 -4.55-.92c-.61-.09-1.23-.15-1.84-.19a30.41 30.41 0 0 1 4 .28 35.58 35.58 0 0 1 4.55.92 29.11 29.11 0 0 1 4.05 1.44 16.68 16.68 0 0 1 3.22 2 11.19 11.19 0 0 1 2.26 2.5 17.15 17.15 0 0 1 2.4 7.1c.4 2.7.46 5.74.7 9a31.89 31.89 0 0 0 2.17 10.22 21.18 21.18 0 0 0 3 5 20.25 20.25 0 0 0 2.17 2.3 19.49 19.49 0 0 0 2.73 2 19 19 0 0 0 3.26 1.61 16.15 16.15 0 0 0 1.82.6l.93.25.94.19c.76.14 1.52.23 2.28.3a23.94 23.94 0 0 1 -4.46-.4c-.31-.06-.63-.11-.94-.18l-.93-.25a16.15 16.15 0 0 1 -1.82-.6 19 19 0 0 1 -3.26-1.61 18.93 18.93 0 0 1 -4.9-4.32 21.52 21.52 0 0 1 -3-5 31.89 31.89 0 0 1 -2.17-10.22c-.24-3.24-.3-6.28-.7-9a17.15 17.15 0 0 0 -2.4-7.1 11.19 11.19 0 0 0 -2.26-2.5 16.68 16.68 0 0 0 -3.22-2 29.11 29.11 0 0 0 -4.01-1.42z" fill="#e7e8e9" transform="translate(77.47 -2.82)"/><path d="m280.31 183.84.48-.19-2.1-3.53-.48.2z" fill="#ed837e"/><path d="m202.26 188.56a.3.3 0 0 0 .27-.15l.71-1.58 1.93.49a.31.31 0 0 0 .34-.14.19.19 0 0 0 -.16-.26l-2.42-.61-.89 2c0 .11 0 .22.16.26z" fill="#ed837e" transform="translate(77.47 -2.82)"/><path d="m202.79 177c-1.59-2.67-4.2-3-6.6-2s-3.65 2.93-2.06 5.6 5.43 5.07 7.82 4.08 2.43-4.99.84-7.68z" fill="#fbddec" transform="translate(77.47 -2.82)"/><path d="m202.23 179.05a.63.63 0 0 0 -.77-.2.44.44 0 0 0 -.28.63.62.62 0 0 0 .77.19.45.45 0 0 0 .28-.62z" fill="#283069" transform="translate(77.47 -2.82)"/><path d="m196.41 181.45a.44.44 0 0 1 .28-.62.63.63 0 0 1 .77.19.44.44 0 0 1 -.28.62.62.62 0 0 1 -.77-.19z" fill="#283069" transform="translate(77.47 -2.82)"/><path d="m23.53 251.91a21.48 21.48 0 0 1 4 16.31 10.58 10.58 0 0 1 -1.28 3.67 6.16 6.16 0 0 1 -2.46 2.35 4.76 4.76 0 0 1 -1.46.52 3.79 3.79 0 0 1 -.64.07 3.1 3.1 0 0 1 -.6-.05 3.76 3.76 0 0 1 -1.15-.4 5 5 0 0 1 -1.2-.9 10.48 10.48 0 0 1 -2.08-3c-.52-1.12-1-2.65-1.66-4.21a18.21 18.21 0 0 0 -2.91-5 13.28 13.28 0 0 0 -6.63-4.09 18.27 18.27 0 0 0 -8.57-.08 19.92 19.92 0 0 0 -7.34 3.22 18.77 18.77 0 0 0 -2.77 2.49 16.92 16.92 0 0 0 -2 2.74 18.34 18.34 0 0 0 -2.2 5.68 20.88 20.88 0 0 0 -.37 5.61 17.59 17.59 0 0 0 1.34 5.67 15.31 15.31 0 0 0 3.82 5.37 18.73 18.73 0 0 0 2.86 2.12 26.49 26.49 0 0 0 3 1.57c2 .9 3.93 1.55 5.68 2.16.86.29 1.7.58 2.47.87s1.46.56 2.15.86a21.28 21.28 0 0 1 6.86 4.54 10.88 10.88 0 0 1 2 2.8 8 8 0 0 1 .78 2.95 7.84 7.84 0 0 1 -.39 2.95 7 7 0 0 1 -1.45 2.37 8.74 8.74 0 0 1 -2.42 1.69 13.56 13.56 0 0 1 -3.48 1.1 23.12 23.12 0 0 1 -4.26.38 31.9 31.9 0 0 1 -4.58-.24 37 37 0 0 1 -4.59-1 29.12 29.12 0 0 1 -4-1.45 16.2 16.2 0 0 1 -3.22-1.95 10.92 10.92 0 0 1 -2.26-2.49 17.2 17.2 0 0 1 -2.4-7.11c-.4-2.7-.46-5.74-.7-9a31.84 31.84 0 0 0 -2.17-10.22 21.38 21.38 0 0 0 -3-5 19.5 19.5 0 0 0 -2.18-2.3 20.42 20.42 0 0 0 -2.72-2 19 19 0 0 0 -3.26-1.6 16.19 16.19 0 0 0 -1.82-.61l-.93-.24c-.31-.08-.63-.13-.94-.19a25.13 25.13 0 0 0 -7.64-.2 26 26 0 0 0 -7.19 2 21.39 21.39 0 0 0 -6 3.9 16.43 16.43 0 0 0 -3.82 5.35 14.42 14.42 0 0 0 -1.23 5.79 14.43 14.43 0 0 0 1.2 5.62 12.6 12.6 0 0 0 .67 1.32l.38.64c.14.21.3.41.44.62l.46.61.51.59c.34.4.71.75 1.07 1.1a31.11 31.11 0 0 0 4.68 3.42c1.55 1 3 1.81 4.3 2.69.63.44 1.22.89 1.75 1.34a12.73 12.73 0 0 1 1.46 1.48 10.06 10.06 0 0 1 1.9 3.37 7.47 7.47 0 0 1 .31 1.8 6.12 6.12 0 0 1 -.21 1.8 7.34 7.34 0 0 1 -2.09 3.35 8.11 8.11 0 0 1 -3.88 2 14.34 14.34 0 0 1 -5 0c-3.5-.52-7-2-11.07-2.41a16.72 16.72 0 0 0 -3.09-.05 14.84 14.84 0 0 0 -3 .6 10.34 10.34 0 0 0 -2.72 1.3 6.29 6.29 0 0 0 -1.89 2 .3.3 0 0 0 .21.44.47.47 0 0 0 .53-.17 7 7 0 0 1 4.25-2.59 11.47 11.47 0 0 1 2.67-.32 14 14 0 0 1 2.66.26c3.54.65 6.67 2.33 10.59 3.3a18.21 18.21 0 0 0 6.43.5 13.8 13.8 0 0 0 3.39-.84 13.07 13.07 0 0 0 3-1.63 12.37 12.37 0 0 0 3.94-4.72 9.16 9.16 0 0 0 .82-2.8 10.57 10.57 0 0 0 0-2.81 12.39 12.39 0 0 0 -2-5.16 16.28 16.28 0 0 0 -1.76-2.25 22.81 22.81 0 0 0 -2.1-2c-1.45-1.2-2.94-2.22-4.26-3.21a24.61 24.61 0 0 1 -3.4-2.91 6.51 6.51 0 0 1 -.59-.73l-.27-.36-.22-.38c-.08-.13-.16-.25-.23-.38l-.18-.4a5.26 5.26 0 0 1 -.34-.82 8.66 8.66 0 0 1 -.46-3.46 8.9 8.9 0 0 1 3.13-6.14 13.08 13.08 0 0 1 7.24-2.81 12.37 12.37 0 0 1 3.84.26l.44.1.41.14a6.16 6.16 0 0 1 .79.3c.26.09.51.26.77.38s.5.29.73.46a11.45 11.45 0 0 1 4.16 5.75 24.87 24.87 0 0 1 1.08 8c0 2.94-.14 6.1.14 9.54a25 25 0 0 0 2.98 10.59 20.27 20.27 0 0 0 4.18 4.92 27.5 27.5 0 0 0 5.64 3.65 36.4 36.4 0 0 0 6.26 2.36 50.3 50.3 0 0 0 6.52 1.38 42.52 42.52 0 0 0 14.2-.25 30 30 0 0 0 7.41-2.45 21.26 21.26 0 0 0 6.34-4.61 17.1 17.1 0 0 0 3.56-6.14 16.14 16.14 0 0 0 .66-6.31 16.32 16.32 0 0 0 -1.79-5.95 20.53 20.53 0 0 0 -3.75-5 28.12 28.12 0 0 0 -5-3.9 37.68 37.68 0 0 0 -5.66-2.89c-1-.42-2-.78-3-1.11s-1.89-.6-2.78-.88c-1.77-.54-3.36-1-4.69-1.58-2.69-1.11-4-2.15-5-4.16a10.65 10.65 0 0 1 -.93-3.32 13.59 13.59 0 0 1 0-3.66 10.69 10.69 0 0 1 1-3.34 8 8 0 0 1 .9-1.38 7.76 7.76 0 0 1 1.09-1.12 7.82 7.82 0 0 1 2.87-1.43 6.34 6.34 0 0 1 2.85-.18l.29.07.26.09a3.38 3.38 0 0 1 .58.27 5 5 0 0 1 1.14.86 12.15 12.15 0 0 1 2.26 3.06c.68 1.29 1.22 2.71 2.16 4.4a17.5 17.5 0 0 0 3.83 4.68 12.68 12.68 0 0 0 7.36 3 13.06 13.06 0 0 0 4.51-.45 13.87 13.87 0 0 0 3.76-1.63 12.57 12.57 0 0 0 4.66-5.12 14.4 14.4 0 0 0 1.39-5.43 24.13 24.13 0 0 0 -1.47-9.95 26 26 0 0 0 -5.45-8.68 2.55 2.55 0 0 0 -3.1-.27 1.6 1.6 0 0 0 -.63 2.35z" fill="#fbddec" transform="translate(77.47 -2.82)"/><path d="m-50.19 320.29a18.33 18.33 0 0 1 -6.32-.51l-.92-.25a16.34 16.34 0 0 1 2.31-.61c1.91-.35 5.12.08 4.93 1.37zm21.24-35.06a3.48 3.48 0 0 1 .9 3.31 3.92 3.92 0 0 1 -1.53 3 4.94 4.94 0 0 1 -2.61.65v-.32a26.55 26.55 0 0 0 -.92-7.49h1.2a5.24 5.24 0 0 1 2.96.85zm-14.45 18.37a6.44 6.44 0 0 0 .13-2.09 4.9 4.9 0 0 0 -1.35-1.83 2.09 2.09 0 0 1 -.72-2l.51.4a22.81 22.81 0 0 1 2.1 2 16.28 16.28 0 0 1 1.73 2.24 12.39 12.39 0 0 1 2 5.16v.49a6.43 6.43 0 0 1 -2.92-1.13 3.79 3.79 0 0 1 -1.48-3.24zm-3.31 11.82a7.34 7.34 0 0 0 2.09-3.35l.06-.26a2.6 2.6 0 0 1 1.74 1.85 2.86 2.86 0 0 1 -1.79 2.65 8.53 8.53 0 0 1 -3.76.76c-.35 0-.69 0-1 0a8.1 8.1 0 0 0 2.66-1.65zm-2-41.92c-1.19.19-2.48-.17-3.56.3-2 .87-1.26 3.58-3 4.76-1.08.72-2.69.57-3.9 1.16a3.31 3.31 0 0 0 -1.83 2.76 27.62 27.62 0 0 0 .21 3.15 3.93 3.93 0 0 1 -2.33 3.49 13.85 13.85 0 0 1 -.46-3.45 14.42 14.42 0 0 1 1.23-5.79 16.43 16.43 0 0 1 3.82-5.35 21.39 21.39 0 0 1 6-3.9 25.23 25.23 0 0 1 6.17-1.81 3 3 0 0 1 .46 1.24 3.32 3.32 0 0 1 -2.79 3.44zm-1.8 28.34c-1.11-.73-2.34-1.45-3.64-2.25a31.11 31.11 0 0 1 -4.68-3.42l-.42-.41a4 4 0 0 1 1.86-1.12 3.19 3.19 0 0 1 3.38.95c.47.73.35 1.73 1.1 2.29s2.28.38 3.12 1a1.41 1.41 0 0 1 .43 1.74 3 3 0 0 1 -1.13 1.22zm-4.31-15.52a4.15 4.15 0 0 1 -1.09-1.15 2.18 2.18 0 0 1 -.11-2.41 4.09 4.09 0 0 1 2.24-1.33l.34-.09a8.91 8.91 0 0 0 -1.36 4.11 8.42 8.42 0 0 0 0 .87zm73.32 29.25c.74-1.35-.21-3.1 1-4.23a3.53 3.53 0 0 1 3.55-.32 6.15 6.15 0 0 1 1.64 1.11 17.09 17.09 0 0 1 -3.05 4.87 21.26 21.26 0 0 1 -6.34 4.66h-.06v-.06a3.29 3.29 0 0 1 .85-3.79c.76-.81 1.91-1.33 2.43-2.24zm-11 1.75a4.86 4.86 0 0 1 -3.31-1.17 2 2 0 0 1 -.27-2.08c.52-.06 1-.13 1.52-.22a13.56 13.56 0 0 0 3.48-1.1 8.23 8.23 0 0 0 1.73-1.09 6.26 6.26 0 0 1 1.48 1.5 2.52 2.52 0 0 1 -.54 3.33 6 6 0 0 1 -4.12.83zm5.68-11.58a8 8 0 0 0 -.78-2.95 10.88 10.88 0 0 0 -2-2.8 17.43 17.43 0 0 0 -3.33-2.68 2.81 2.81 0 0 1 .29-.31 5.49 5.49 0 0 1 4.84-1.2 2.62 2.62 0 0 1 1.61 1c.57.89 0 2 .29 3 .5 1.48 2.93 2.05 3.43 3.52.35 1-.41 2.18-1.53 2.81a7.07 7.07 0 0 1 -2.86.77 8.68 8.68 0 0 0 .01-1.16zm10.54-1.32c-2.39-.44-4.33-2.18-4.27-4.17a5.28 5.28 0 0 1 2.17-3.66l.82-.65a19.3 19.3 0 0 1 1.66 2.62 16.32 16.32 0 0 1 1.79 5.95 8.28 8.28 0 0 1 -2.2-.09zm-57.29-27.72a2.76 2.76 0 0 1 .64 4.06 5 5 0 0 1 -1.22 1.15 10.65 10.65 0 0 0 -3.28-3.77c-.23-.17-.49-.3-.73-.46s-.51-.29-.77-.38a6.16 6.16 0 0 0 -.79-.3l-.41-.14-.44-.1a12.37 12.37 0 0 0 -3.84-.26l-.48.06s0 0 0 0a4.2 4.2 0 0 1 1.21-1.8 3.45 3.45 0 0 1 2.27-.79c1.36.06 2.28 1 3.47 1.53 1.38.5 3.14.5 4.37 1.2zm25.57 36.3a37 37 0 0 0 4.55.92c.8.1 1.61.18 2.42.23a3.58 3.58 0 0 1 .11.73 3.35 3.35 0 0 1 -2.03 3.12 5.64 5.64 0 0 1 -3.63.18 13.69 13.69 0 0 1 -3.19-1.41 8.07 8.07 0 0 1 -3.35-2.67 6.08 6.08 0 0 1 -.35-3.27c.46.27 1 .53 1.46.77a29.12 29.12 0 0 0 4.01 1.4zm9.37-18.45c-.77-.29-1.61-.58-2.47-.87-1.71-.59-3.59-1.24-5.56-2.1.07-.28.14-.57.22-.85a3.17 3.17 0 0 1 1.2-1.85 5.37 5.37 0 0 1 2.84-.56 7.29 7.29 0 0 1 3.68.59 3 3 0 0 1 1.42 2.4 4.31 4.31 0 0 1 -1.29 3.25zm-3.32 27.94c2.06 0 4.14-.45 6.18-.26a4.91 4.91 0 0 1 3.58 1.81 42.54 42.54 0 0 1 -14.16.25c-1.28-.19-2.51-.41-3.73-.68a7.51 7.51 0 0 1 3.31-1.32 41 41 0 0 1 4.86.23zm-16.87-6.9a3.69 3.69 0 0 1 1.12 2.09 11.09 11.09 0 0 1 .27 3.1 3.05 3.05 0 0 1 -.05.52q-.84-.34-1.65-.75a27.5 27.5 0 0 1 -5.64-3.65l-.66-.59a10.21 10.21 0 0 1 1.5-.88c1.66-.75 3.93-.86 5.15.19zm-5.76-23.47c-.86-1-.39-2.48.67-3.44a9.15 9.15 0 0 1 2.91-1.68c.22 1.37.36 2.72.46 4 .06.77.11 1.54.15 2.29-.27 0-.54 0-.8 0a4.88 4.88 0 0 1 -3.35-1.14zm50.83-20.26a8.63 8.63 0 0 0 .61-1.26l.1.1a2.7 2.7 0 0 1 .42 3.34c-.82 1.25-2.68 1.9-4.41 2a4.68 4.68 0 0 1 -3.62-1.04 2.63 2.63 0 0 1 -.57-1.49 5 5 0 0 0 1.2.9 3.76 3.76 0 0 0 1.15.4 3.1 3.1 0 0 0 .6.05 3.79 3.79 0 0 0 .64-.07 4.76 4.76 0 0 0 1.46-.52 6.16 6.16 0 0 0 2.46-2.38zm1.87-18.5a1.66 1.66 0 0 1 .9-1.44 26.46 26.46 0 0 1 2.19 3.39c-1.21-.31-2.95-.91-3.05-1.92zm-15.7 24.7a17.34 17.34 0 0 1 -3.76-4.62c-.83-1.51-1.36-2.79-1.94-4a3.07 3.07 0 0 1 2.45-.29 2.87 2.87 0 0 1 1.54 1.58 7.55 7.55 0 0 0 1 1.91c.71.81 2 1.29 2.45 2.21.61 1.15-.3 2.64-1.74 3.21zm2.38 14.68c-1.66-.22-3.28-1-3.77-2.31a5.55 5.55 0 0 0 -.59-1.64 3.47 3.47 0 0 0 -2.44-.93 10.24 10.24 0 0 1 -2.8-.36 2.48 2.48 0 0 1 -1.63-2.84l.39.12c.89.28 1.81.56 2.78.88s2 .69 3 1.11a37.68 37.68 0 0 1 5.66 2.89 30.73 30.73 0 0 1 3.94 2.93 13.93 13.93 0 0 1 -4.54.15zm12.94-30.12a21.42 21.42 0 0 0 -1.42-5.68 4.11 4.11 0 0 1 2.15.13 3.35 3.35 0 0 1 2.13 2.29 2.31 2.31 0 0 1 -.23 1.81 3.9 3.9 0 0 1 -2.63 1.45zm6 8.62a3.87 3.87 0 0 1 -1.55-.93 3.17 3.17 0 0 1 -1-3 3.4 3.4 0 0 1 1.81-2.31 3.74 3.74 0 0 1 1.16-.36 24.06 24.06 0 0 1 .06 3.8 16.58 16.58 0 0 1 -.48 2.8zm-5.62 7.76a13.87 13.87 0 0 1 -3.76 1.66 12.84 12.84 0 0 1 -2.88.47 2 2 0 0 1 .86-1.32 6.33 6.33 0 0 1 2.52-.72 4.31 4.31 0 0 0 2.32-1.45 3.63 3.63 0 0 1 3.34-.58 12.49 12.49 0 0 1 -2.4 1.94zm-58-2.83c-1.28-1-1.24-2.8-2.68-3.63-1.15-.67-2.8-.44-4.14-.83a4.34 4.34 0 0 1 -2.66-2.29c-.13-.29-.26-.57-.37-.84.72.06 1.44.16 2.15.29.31.06.63.11.94.19l.93.24a16.19 16.19 0 0 1 1.82.61 19 19 0 0 1 3.26 1.6 20.42 20.42 0 0 1 2.72 2 19.5 19.5 0 0 1 2.18 2.3l.27.35a4.36 4.36 0 0 1 -4.46.01zm12.43 31a11.29 11.29 0 0 0 .7.93 4.45 4.45 0 0 1 -.51.33 3.39 3.39 0 0 1 -3.31 0 2.52 2.52 0 0 1 -.85-2.41 6.2 6.2 0 0 0 0-2.61c-.42-1.21-1.86-2.09-2-3.35-.12-1.63 1.51-2.65 3.23-2.81.08 1 .17 1.92.31 2.82a17.2 17.2 0 0 0 2.39 7.07zm-11.97 1.83a4.39 4.39 0 0 1 -1 0 27.82 27.82 0 0 1 -1.58-7.59c-.1-1.29-.15-2.54-.16-3.75a3.17 3.17 0 0 1 2.16-.14 2.51 2.51 0 0 1 1.53 2.61 8 8 0 0 0 .08 3.09c.48 1.2 1.93 2.11 1.92 3.4s-1.47 2.22-2.95 2.38zm14.68-30a6 6 0 0 1 2.74 3 1.78 1.78 0 0 1 -.43 2.2 3.24 3.24 0 0 1 -1.81.42h-1.15a16.11 16.11 0 0 1 -1-2 16.93 16.93 0 0 1 -1.1-3.74 2.73 2.73 0 0 1 2.75.04zm-.65-13.05.19-.34a16.92 16.92 0 0 1 2-2.74 18.77 18.77 0 0 1 2.77-2.49c.16-.12.33-.22.49-.33a2.42 2.42 0 0 1 .36.27 2.6 2.6 0 0 1 .34 3.57 7.52 7.52 0 0 1 -6.15 1.98zm18.16-4.95a7.35 7.35 0 0 1 -5.29-2.67 6.89 6.89 0 0 1 -.72-1.22h.17a18.27 18.27 0 0 1 8.57.08 13.28 13.28 0 0 1 3.5 1.48c-.1.11-.19.23-.3.34a8 8 0 0 1 -5.93 1.99zm9.66 5a3 3 0 0 1 -.8-3.63 3 3 0 0 1 .66-.88 18.49 18.49 0 0 1 2.71 4.75l.25.61a4.89 4.89 0 0 1 -2.82-.85zm-19 6.1a13.59 13.59 0 0 0 0 3.66 9.41 9.41 0 0 0 .27 1.44 7.16 7.16 0 0 1 -3.6-.77c-1.61-.91-2.43-2.72-1.61-4.23.47-.86 1.38-1.55 1.78-2.42s.29-1.94 1.14-2.59a3.16 3.16 0 0 1 3.58.35l.19.17a8.07 8.07 0 0 0 -.66 1.05 10.69 10.69 0 0 0 -1.14 3.3z" fill="#e7579a" transform="translate(77.47 -2.82)"/><path d="m-54.59 317.51a18.46 18.46 0 0 1 -3.2-.22c-3.5-.52-7-2-11.07-2.41a17.58 17.58 0 0 1 2.19.09c4.06.42 7.57 1.89 11.07 2.41zm2.94-38.2a8.9 8.9 0 0 0 -3.13 6.14 8.66 8.66 0 0 0 .46 3.46 5.26 5.26 0 0 0 .34.82l.18.4c.07.13.15.25.23.38l.22.39.27.35a6.51 6.51 0 0 0 .59.73 24.61 24.61 0 0 0 3.4 2.91c1.32 1 2.81 2 4.26 3.21a22.81 22.81 0 0 1 2.1 2 16.28 16.28 0 0 1 1.73 2.22 12.39 12.39 0 0 1 2 5.16 10.57 10.57 0 0 1 0 2.81 9.16 9.16 0 0 1 -.82 2.8 12.37 12.37 0 0 1 -3.94 4.72 13.07 13.07 0 0 1 -3 1.63 13.8 13.8 0 0 1 -3.39.84 15.69 15.69 0 0 1 -3.56 0 13.13 13.13 0 0 0 1.38-.09 13.8 13.8 0 0 0 3.39-.84 13.36 13.36 0 0 0 3-1.63 12.43 12.43 0 0 0 3.94-4.72 9.16 9.16 0 0 0 .82-2.8 10.57 10.57 0 0 0 0-2.81 12.34 12.34 0 0 0 -2-5.16 16.28 16.28 0 0 0 -1.73-2.23 22.81 22.81 0 0 0 -2.1-2c-1.45-1.2-2.94-2.23-4.26-3.21a24.61 24.61 0 0 1 -3.4-2.91 7.86 7.86 0 0 1 -.59-.73l-.27-.36-.22-.38c-.08-.13-.16-.25-.23-.38l-.18-.41a4.79 4.79 0 0 1 -.34-.81 8.66 8.66 0 0 1 -.46-3.46 8.88 8.88 0 0 1 3.13-6.14 13 13 0 0 1 7.24-2.81 13.29 13.29 0 0 1 2.76.07h-.58a13.08 13.08 0 0 0 -7.24 2.84zm-25 39.82a.47.47 0 0 1 -.53.17.3.3 0 0 1 -.21-.44 6.29 6.29 0 0 1 1.89-2l.34-.21.59-.16a11.47 11.47 0 0 1 2.67-.32 11.48 11.48 0 0 1 1.66.11 11 11 0 0 0 -2.15.3 7 7 0 0 0 -4.29 2.55zm96.23-44.39a3.1 3.1 0 0 1 -.6-.05 3.76 3.76 0 0 1 -1.15-.4 5 5 0 0 1 -1.2-.9 10.4 10.4 0 0 1 -2.08-3c-.52-1.11-1-2.64-1.66-4.2a18.21 18.21 0 0 0 -2.91-5 13.28 13.28 0 0 0 -6.63-4.09 16.76 16.76 0 0 0 -2.53-.45 17.13 17.13 0 0 1 4.71.54 13.28 13.28 0 0 1 6.63 4.09 18.21 18.21 0 0 1 2.91 5c.65 1.56 1.14 3.09 1.66 4.21a10.48 10.48 0 0 0 2.08 3 5 5 0 0 0 1.2.9 3.74 3.74 0 0 0 .51.22l-.3.07a3.79 3.79 0 0 1 -.67.06zm13.23-.86a12.57 12.57 0 0 1 -4.69 5.12 13.87 13.87 0 0 1 -3.76 1.66 13.06 13.06 0 0 1 -4.51.45c-.23 0-.46 0-.69-.07a12.88 12.88 0 0 0 3-.47 13.87 13.87 0 0 0 3.76-1.66 12.57 12.57 0 0 0 4.66-5.12 14.4 14.4 0 0 0 1.42-5.43 24.13 24.13 0 0 0 -1.47-9.95 26.3 26.3 0 0 0 -5.44-8.69 2.14 2.14 0 0 0 -.52-.37 2.49 2.49 0 0 1 2.69.47 26 26 0 0 1 5.45 8.68 24.13 24.13 0 0 1 1.47 9.95 14.4 14.4 0 0 1 -1.4 5.43zm-32.57-9.29a5.66 5.66 0 0 0 -1 .2 7.82 7.82 0 0 0 -2.87 1.43 7.76 7.76 0 0 0 -1.09 1.12 8 8 0 0 0 -.9 1.38 10.69 10.69 0 0 0 -1 3.34 13.59 13.59 0 0 0 0 3.66 10.65 10.65 0 0 0 .88 3.28c1 2 2.3 3 5 4.16 1.33.54 2.92 1 4.69 1.58.89.28 1.81.56 2.78.88s2 .69 3 1.11a37.68 37.68 0 0 1 5.66 2.89 28.12 28.12 0 0 1 5 3.9 20.53 20.53 0 0 1 3.75 5 16.32 16.32 0 0 1 1.79 5.95 16.14 16.14 0 0 1 -.66 6.31 17.1 17.1 0 0 1 -3.63 6.22 21.26 21.26 0 0 1 -6.34 4.66 30 30 0 0 1 -7.41 2.45 40.93 40.93 0 0 1 -10.67.62 40.68 40.68 0 0 0 8.49-.73 30 30 0 0 0 7.41-2.45 21.43 21.43 0 0 0 6.34-4.66 17.1 17.1 0 0 0 3.54-6.16 16.14 16.14 0 0 0 .66-6.31 16.32 16.32 0 0 0 -1.79-5.95 20.53 20.53 0 0 0 -3.75-5 28.42 28.42 0 0 0 -5-3.9 37.78 37.78 0 0 0 -5.67-2.89c-1-.42-2-.78-3-1.11s-1.89-.6-2.78-.88c-1.77-.54-3.36-1-4.69-1.58-2.69-1.11-4-2.15-5-4.17a10.51 10.51 0 0 1 -.93-3.31 14.09 14.09 0 0 1 0-3.67 10.71 10.71 0 0 1 1-3.33 7.7 7.7 0 0 1 .9-1.39 8.21 8.21 0 0 1 1.09-1.11 7.82 7.82 0 0 1 3.06-1.43 6.34 6.34 0 0 1 2.9-.18zm-8.24 48.41a37 37 0 0 0 4.55.92c.61.08 1.23.14 1.84.19a30.44 30.44 0 0 1 -4-.29 35.57 35.57 0 0 1 -4.55-.91 30.46 30.46 0 0 1 -4-1.45 16.2 16.2 0 0 1 -3.22-1.95 10.92 10.92 0 0 1 -2.26-2.49 17.2 17.2 0 0 1 -2.4-7.11c-.4-2.7-.46-5.74-.7-9a31.83 31.83 0 0 0 -2.17-10.21 21 21 0 0 0 -3-5 20.25 20.25 0 0 0 -2.17-2.3 21.21 21.21 0 0 0 -2.73-2 19.78 19.78 0 0 0 -3.26-1.61 18.45 18.45 0 0 0 -1.82-.6l-.93-.25c-.31-.07-.63-.12-.94-.18-.76-.14-1.52-.24-2.28-.31a23.94 23.94 0 0 1 4.46.4c.31.06.63.11.94.19l.93.24a16.19 16.19 0 0 1 1.82.61 19 19 0 0 1 3.26 1.6 20.42 20.42 0 0 1 2.72 2 19.5 19.5 0 0 1 2.18 2.3 21.38 21.38 0 0 1 3 5 31.84 31.84 0 0 1 2.17 10.22c.24 3.23.3 6.27.7 9a17.2 17.2 0 0 0 2.4 7.11 10.92 10.92 0 0 0 2.26 2.49 16.2 16.2 0 0 0 3.2 1.97 29.12 29.12 0 0 0 4 1.42z" fill="#e7e8e9" transform="translate(77.47 -2.82)"/><path d="m96.97 237.19-.47.19 2.09 3.52.48-.19z" fill="#ed837e"/><path d="m20.08 238.11a.28.28 0 0 0 -.27.14l-.71 1.58-1.93-.48a.29.29 0 0 0 -.34.14c0 .11 0 .22.16.26l2.42.61.89-2a.19.19 0 0 0 -.16-.26z" fill="#ed837e" transform="translate(77.47 -2.82)"/><path d="m19.55 249.64c1.59 2.68 4.2 3 6.6 2s3.65-2.93 2.06-5.6-5.43-5.04-7.82-4.04-2.39 5-.84 7.64z" fill="#fbddec" transform="translate(77.47 -2.82)"/><g fill="#283069"><path d="m20.11 247.62a.64.64 0 0 0 .77.19.44.44 0 0 0 .28-.63.64.64 0 0 0 -.77-.19.46.46 0 0 0 -.28.63z" transform="translate(77.47 -2.82)"/><path d="m25.93 245.21a.45.45 0 0 1 -.28.63.63.63 0 0 1 -.77-.2.44.44 0 0 1 .28-.62.64.64 0 0 1 .77.19z" transform="translate(77.47 -2.82)"/></g></g></svg>