<svg viewBox="0 0 201.17 201.17" xmlns="http://www.w3.org/2000/svg" xmlns:xlink="http://www.w3.org/1999/xlink"><pattern id="a" height="29.66" patternTransform="translate(30.07 3.85)" patternUnits="userSpaceOnUse" viewBox="0 0 29.66 29.66" width="29.66"><path d="m0 0h29.66v29.66h-29.66z" fill="none"/><path d="m0 0h29.66v29.66h-29.66z" fill="#f08cae"/></pattern><circle cx="100.59" cy="100.59" fill="#283069" r="100.59"/><path d="m21.98 81.23h157.21v38.72h-157.21z" fill="none" opacity=".78" stroke="url(#a)" stroke-miterlimit="10" stroke-width="2"/><g fill="#f6f6f6"><path d="m54.94 68.44v20.39a2 2 0 0 1 -3.91 0v-14.43l-5 6.84a2 2 0 0 1 -1.57.8 2 2 0 0 1 -1.56-.8l-5-6.84v14.43a1.94 1.94 0 1 1 -3.88 0v-20.64s0-.07 0-.1v-.09a.14.14 0 0 0 0-.1s0-.06 0-.1 0 0 0-.06 0-.06 0-.1a.09.09 0 0 0 0-.09l.06-.07s0-.06 0-.09l.07-.07s0-.06.06-.09 0 0 0-.07l.1-.06a.06.06 0 0 1 .06-.06.07.07 0 0 1 .07-.07l.06-.06s0 0 .06 0 0 0 0 0 0 0 .06-.06.06 0 .1 0 .06 0 .06-.07a.14.14 0 0 0 .1 0s.06 0 .09 0h.1s0 0 .06 0a.21.21 0 0 0 .13 0h.06a.24.24 0 0 0 .13 0h.39a.09.09 0 0 1 .06 0h.1a.09.09 0 0 1 .09 0h.1a.11.11 0 0 0 .09 0 .14.14 0 0 0 .1 0s0 0 .06 0l.1.07s.06 0 .06 0a.15.15 0 0 1 .1.06.1.1 0 0 1 .06 0l.1.07.06.06s.07 0 .1.07 0 0 0 .06.07 0 .07.06.06.07.06.1 0 0 .06 0l6.91 9.5 7-9.5s0 0 0 0 0-.06.06-.1 0 0 .07-.06 0 0 .06-.06 0-.07.07-.07l.06-.06s.06 0 .1-.07 0 0 .06 0a.15.15 0 0 1 .1-.06s0 0 .06 0l.1-.07a.11.11 0 0 0 .09 0s0 0 .07 0a.11.11 0 0 0 .09 0h.1a.09.09 0 0 1 .09 0h.1a.12.12 0 0 1 .1 0h.38a.12.12 0 0 0 .1 0h.09a.11.11 0 0 0 .1 0 .09.09 0 0 0 .06 0h.13a.1.1 0 0 0 .06 0 .14.14 0 0 0 .1 0l.1.07a.1.1 0 0 0 .06 0l.1.06a.06.06 0 0 1 .06.06s.07 0 .1.07l.06.06s0 0 .07.06 0 0 0 .07.06.06.06.09l.07.07s0 .06.06.09 0 0 0 .07 0 .06 0 .09a.14.14 0 0 1 0 .1s0 0 0 .06a.14.14 0 0 1 0 .1s0 .06 0 .1a.09.09 0 0 0 0 .09v.29s.68.03.68.06z"/><path d="m70.49 83.8h-9.85a4.19 4.19 0 0 0 4.06 3.2 5.35 5.35 0 0 0 3.36-1.21 1.92 1.92 0 0 1 2.69 2.75 8.9 8.9 0 0 1 -6 2.27 8 8 0 0 1 0-16.06 6.73 6.73 0 0 1 1.41.13 7.73 7.73 0 0 1 5.18 3.68 6.12 6.12 0 0 1 1 3.13 2.64 2.64 0 0 1 -.25.93 1.74 1.74 0 0 1 -1.6 1.18zm-9.31-3.23h6.82a3.55 3.55 0 0 0 -3.26-1.92 4.17 4.17 0 0 0 -3.56 1.92z"/><path d="m89.18 82.71v6.05a1.91 1.91 0 1 1 -3.81 0v-6.05a3.9 3.9 0 0 0 -3.68-4.09c-2.5 0-3.78 2.5-3.78 4.7v5.44a1.92 1.92 0 1 1 -3.83 0v-12.22a1.92 1.92 0 0 1 1.92-1.92 1.89 1.89 0 0 1 1.79 1.31 7.19 7.19 0 0 1 3.9-1.15 7.72 7.72 0 0 1 7.49 7.93z"/><path d="m100.12 88.73a1.9 1.9 0 0 1 -1.92 1.92 7.68 7.68 0 0 1 -.83 0 4.64 4.64 0 0 1 -2.82-1.44 4.78 4.78 0 0 1 -1.08-2.88v-8.09h-1.38a1.92 1.92 0 0 1 0-3.84h1.38v-6.12a1.92 1.92 0 1 1 3.84 0v6.12h1a1.92 1.92 0 1 1 0 3.84h-1v7.61c.06.26 0 .64.22.83s.45.13.67.13a1.92 1.92 0 0 1 1.92 1.92z"/><path d="m110.07 90.68a8 8 0 1 1 0-16.06 8 8 0 1 1 0 16.06zm0-12.13a4.1 4.1 0 1 0 4.1 4.1 4.08 4.08 0 0 0 -4.1-4.1z"/><path d="m133.56 79.61a1.93 1.93 0 0 1 -2.72.1 3.82 3.82 0 0 0 -2.66-1.06 4.07 4.07 0 0 0 -4 4.13v6a1.92 1.92 0 0 1 -3.84 0v-12.21a1.92 1.92 0 0 1 3.74-.58 7.64 7.64 0 0 1 9.35.93 1.89 1.89 0 0 1 .13 2.69z"/><path d="m148.35 83.8h-9.86a4.21 4.21 0 0 0 4.06 3.2 5.33 5.33 0 0 0 3.36-1.21 1.92 1.92 0 0 1 2.72 0 1.89 1.89 0 0 1 0 2.72 8.88 8.88 0 0 1 -6 2.27 8 8 0 0 1 0-16.06 6.73 6.73 0 0 1 1.41.13 7.75 7.75 0 0 1 5.19 3.68 6.22 6.22 0 0 1 1 3.13 2.67 2.67 0 0 1 -.26.93 1.73 1.73 0 0 1 -1.62 1.21zm-9.35-3.23h6.79a3.56 3.56 0 0 0 -3.27-1.92 4.17 4.17 0 0 0 -3.52 1.92z"/><path d="m167.45 68.41v20.35a2 2 0 0 1 -3.81.58 8.1 8.1 0 0 1 -12.64-6.69 8.12 8.12 0 0 1 8.09-8.09 8.44 8.44 0 0 1 4.52 1.34v-7.49a1.94 1.94 0 1 1 3.87 0zm-4.16 14.24a4.23 4.23 0 1 0 -4.23 4.22 4.22 4.22 0 0 0 4.23-4.22z"/><path d="m67.59 122.68c-.22 3.75-3.61 5.92-6.65 6.37a13.79 13.79 0 0 1 -1.57.1 10.79 10.79 0 0 1 -8.16-3.59 1.93 1.93 0 0 1 .22-2.69 1.89 1.89 0 0 1 2.66.23 7.16 7.16 0 0 0 6.3 2.17c1.57-.22 3.3-1.18 3.4-2.81a3.17 3.17 0 0 0 -2.6-3.14 10.76 10.76 0 0 0 -2.11-.22 9.65 9.65 0 0 1 -5.25-1.38 6.66 6.66 0 0 1 -2.78-7.07 7.72 7.72 0 0 1 6.37-5.37 11.32 11.32 0 0 1 8.35 2.17 1.92 1.92 0 1 1 -2.37 3 7.27 7.27 0 0 0 -5.47-1.41 3.88 3.88 0 0 0 -3.2 2.63 2.8 2.8 0 0 0 1.27 2.92 6.26 6.26 0 0 0 3.26.7 18.13 18.13 0 0 1 2.76.32 7 7 0 0 1 5.57 7.07z"/><path d="m87 121.18a8.1 8.1 0 0 1 -8.09 8.09 8.38 8.38 0 0 1 -4.51-1.34v7.49a1.94 1.94 0 1 1 -3.88 0v-20.35a1.94 1.94 0 0 1 2-1.92 2 2 0 0 1 1.85 1.34 8.1 8.1 0 0 1 12.63 6.69zm-3.87 0a4.23 4.23 0 1 0 -4.22 4.22 4.24 4.24 0 0 0 4.17-4.22z"/><path d="m102.22 118a1.93 1.93 0 0 1 -2.72.1 3.9 3.9 0 0 0 -2.66-1.06 4.07 4.07 0 0 0 -4 4.13v6a1.92 1.92 0 0 1 -3.84 0v-12.17a1.92 1.92 0 0 1 3.75-.57 7.6 7.6 0 0 1 9.34.92 1.89 1.89 0 0 1 .13 2.65z"/><path d="m106.35 110.36a2 2 0 0 1 -2-2v-.16a2 2 0 0 1 4 0v.16a2 2 0 0 1 -2 2zm0 18.79a2 2 0 0 1 -2-2v-12.34a2 2 0 0 1 4 0v12.35a2 2 0 0 1 -2 1.99z"/><path d="m126.28 121.12v6a1.91 1.91 0 1 1 -3.81 0v-6a3.91 3.91 0 0 0 -3.68-4.1c-2.49 0-3.77 2.5-3.77 4.7v5.44a1.92 1.92 0 1 1 -3.84 0v-12.22a1.92 1.92 0 0 1 1.92-1.94 1.89 1.89 0 0 1 1.79 1.31 7.19 7.19 0 0 1 3.9-1.15 7.73 7.73 0 0 1 7.49 7.96z"/><path d="m137.22 127.13a1.9 1.9 0 0 1 -1.92 1.92 7.77 7.77 0 0 1 -.83 0 4.62 4.62 0 0 1 -2.81-1.44 4.73 4.73 0 0 1 -1.09-2.88v-8.06h-1.38a1.92 1.92 0 0 1 0-3.84h1.38v-6.12a1.92 1.92 0 1 1 3.84 0v6.12h1.06a1.92 1.92 0 0 1 0 3.84h-1.06v7.61c.06.26 0 .64.22.83s.45.13.67.13a1.92 1.92 0 0 1 1.92 1.89z"/><path d="m145.19 129.21a8.08 8.08 0 0 1 -5.15-1.82 1.91 1.91 0 0 1 2.59-2.82c.58.55 2.72 1.28 3.94.48a1 1 0 0 0 -.19-1.79 3.31 3.31 0 0 0 -1.38-.16 7.31 7.31 0 0 1 -2.53-.35 4.81 4.81 0 0 1 -3.13-3.94 4.73 4.73 0 0 1 1.44-4 6.79 6.79 0 0 1 5.63-1.4 5.73 5.73 0 0 1 3 1.4 1.92 1.92 0 0 1 .13 2.69 2 2 0 0 1 -1.63.61 2 2 0 0 1 -.84-.29 2.89 2.89 0 0 0 -1.34-.64c-1-.16-2.75-.09-2.62 1.28a1.24 1.24 0 0 0 .57.67 5 5 0 0 0 1.31.1 7.4 7.4 0 0 1 2.95.51 4.89 4.89 0 0 1 2.91 4.39 5 5 0 0 1 -2.21 4.09 6.29 6.29 0 0 1 -3.45.99z"/></g></svg>