<svg xmlns="http://www.w3.org/2000/svg" viewBox="0 0 159.21 71.01"><defs><style>.cls-1{fill:none;stroke:#f29bb8;stroke-miterlimit:10;stroke-width:2px;}.cls-2{fill:#283069;}</style></defs><title>Asset 38</title><g id="Layer_2" data-name="Layer 2"><g id="Layer_1-2" data-name="Layer 1"><rect class="cls-1" x="1" y="15.44" width="157.21" height="38.72"/><path class="cls-2" d="M34,2.08V22.46a2,2,0,0,1-3.91,0V8l-5,6.85a2,2,0,0,1-1.57.8,2,2,0,0,1-1.56-.8L16.93,8V22.46a1.94,1.94,0,1,1-3.87,0V1.82s0-.06,0-.09v-.1a.09.09,0,0,0,0-.09s0-.07,0-.1,0,0,0-.06,0-.07,0-.1a.12.12,0,0,0,0-.1l.07-.06s0-.06,0-.1L13.41,1s0-.06.07-.1,0,0,0-.06l.1-.06a.07.07,0,0,1,.06-.07.07.07,0,0,1,.07-.06L13.8.54s0,0,.06,0,0,0,0,0,0,0,.07-.06.06,0,.09,0,.07,0,.07-.06a.11.11,0,0,0,.09,0s.07,0,.1,0,.06,0,.1,0,0,0,.06,0a.28.28,0,0,0,.13,0h.06a.24.24,0,0,0,.13,0h.38a.11.11,0,0,1,.07,0h.09a.12.12,0,0,1,.1,0h.1a.11.11,0,0,0,.09,0,.11.11,0,0,0,.1,0s0,0,.06,0l.1.06s.06,0,.06,0,.07,0,.1.07a.1.1,0,0,1,.06,0l.1.06.06.07a.18.18,0,0,1,.1.06s0,0,0,.07.06,0,.06.06.07.06.07.1,0,0,.06,0l6.91,9.5,7-9.5s0,0,0,0a.15.15,0,0,1,.06-.1s0,0,.07-.06,0,0,.06-.07,0-.06.07-.06l.06-.07s.06,0,.1-.06,0,0,.06,0,.06-.07.1-.07,0,0,.06,0l.1-.06a.11.11,0,0,0,.09,0s0,0,.07,0a.11.11,0,0,0,.09,0h.1a.11.11,0,0,1,.09,0h.1a.12.12,0,0,1,.1,0h.38a.11.11,0,0,0,.09,0h.1a.13.13,0,0,0,.1,0,.09.09,0,0,0,.06,0c.07,0,.1,0,.13,0a.1.1,0,0,0,.06,0,.14.14,0,0,0,.1,0l.1.06s0,0,.06,0l.09.06,0,0,0,0s.06,0,.06.07a.18.18,0,0,1,.1.06l.06.07s0,0,.07.06,0,0,0,.06.06.07.06.1l.07.06a.15.15,0,0,0,.06.1s0,0,0,.06,0,.07,0,.1a.12.12,0,0,1,0,.1s0,0,0,.06a.12.12,0,0,1,0,.1s0,.06,0,.09a.11.11,0,0,0,0,.1V2S34,2.05,34,2.08Z"/><path class="cls-2" d="M49.51,17.44H39.65a4.22,4.22,0,0,0,4.07,3.23,5.39,5.39,0,0,0,3.36-1.22,1.93,1.93,0,0,1,2.72,0,1.9,1.9,0,0,1,0,2.72,9,9,0,0,1-6.05,2.27,8,8,0,0,1,0-16.06,7.46,7.46,0,0,1,1.41.12,7.76,7.76,0,0,1,5.18,3.68,6.16,6.16,0,0,1,1,3.14,2.87,2.87,0,0,1-.25.93A1.75,1.75,0,0,1,49.51,17.44ZM40.2,14.21H47a3.55,3.55,0,0,0-3.26-1.92A4.14,4.14,0,0,0,40.2,14.21Z"/><path class="cls-2" d="M68.2,16.35v6a1.91,1.91,0,1,1-3.81,0v-6a3.91,3.91,0,0,0-3.68-4.1c-2.5,0-3.78,2.5-3.78,4.71V22.4a1.92,1.92,0,0,1-3.84,0V10.17A1.93,1.93,0,0,1,55,8.25a1.9,1.9,0,0,1,1.8,1.32,7.11,7.11,0,0,1,3.9-1.15A7.72,7.72,0,0,1,68.2,16.35Z"/><path class="cls-2" d="M79.14,22.37a1.91,1.91,0,0,1-1.92,1.92,5.77,5.77,0,0,1-.83,0,4.59,4.59,0,0,1-2.82-1.44,4.67,4.67,0,0,1-1.08-2.88V11.87H71.11a1.92,1.92,0,0,1,0-3.84h1.38V1.92a1.92,1.92,0,0,1,3.84,0V8h1a1.92,1.92,0,1,1,0,3.84h-1v7.62c.06.25,0,.64.22.83s.45.13.67.13A1.92,1.92,0,0,1,79.14,22.37Z"/><path class="cls-2" d="M89.09,24.32a8,8,0,0,1,0-16.07,8,8,0,1,1,0,16.07Zm0-12.13a4.1,4.1,0,1,0,4.1,4.1A4.08,4.08,0,0,0,89.09,12.19Z"/><path class="cls-2" d="M112.58,13.25a1.93,1.93,0,0,1-2.72.09,3.85,3.85,0,0,0-2.66-1.05,4.06,4.06,0,0,0-4,4.12v6.05a1.92,1.92,0,0,1-3.84,0V10.21a1.92,1.92,0,0,1,3.74-.58,7.62,7.62,0,0,1,9.34.93A1.88,1.88,0,0,1,112.58,13.25Z"/><path class="cls-2" d="M127.36,17.44h-9.85a4.22,4.22,0,0,0,4.06,3.23,5.35,5.35,0,0,0,3.36-1.22,1.93,1.93,0,0,1,2.72,0,1.89,1.89,0,0,1,0,2.72,8.93,8.93,0,0,1-6.05,2.27,8,8,0,0,1,0-16.06,7.46,7.46,0,0,1,1.41.12,7.74,7.74,0,0,1,5.18,3.68,6.17,6.17,0,0,1,1,3.14,2.67,2.67,0,0,1-.26.93A1.74,1.74,0,0,1,127.36,17.44Zm-9.31-3.23h6.79a3.56,3.56,0,0,0-3.27-1.92A4.14,4.14,0,0,0,118.05,14.21Z"/><path class="cls-2" d="M146.47,2.05V22.4a2,2,0,0,1-3.81.57,8,8,0,0,1-4.58,1.41,8.1,8.1,0,0,1,0-16.19,8.3,8.3,0,0,1,4.51,1.35V2.05a1.94,1.94,0,1,1,3.88,0Zm-4.16,14.24a4.23,4.23,0,1,0-4.23,4.22A4.23,4.23,0,0,0,142.31,16.29Z"/><path class="cls-2" d="M46.61,56.32C46.39,60.06,43,62.24,40,62.69a13.77,13.77,0,0,1-1.57.09,10.78,10.78,0,0,1-8.16-3.58,1.92,1.92,0,0,1,.22-2.69,1.89,1.89,0,0,1,2.66.22,7.17,7.17,0,0,0,6.3,2.18c1.57-.22,3.3-1.18,3.4-2.82A3.17,3.17,0,0,0,40.21,53a10.76,10.76,0,0,0-2.11-.22,9.74,9.74,0,0,1-5.25-1.38,6.66,6.66,0,0,1-2.78-7.07,7.73,7.73,0,0,1,6.37-5.38,11.37,11.37,0,0,1,8.35,2.18,1.92,1.92,0,1,1-2.37,3A7.23,7.23,0,0,0,37,42.69a3.87,3.87,0,0,0-3.2,2.62A2.79,2.79,0,0,0,35,48.22a6.25,6.25,0,0,0,3.26.71,15.91,15.91,0,0,1,2.76.32A7,7,0,0,1,46.61,56.32Z"/><path class="cls-2" d="M66,54.81a8.11,8.11,0,0,1-8.09,8.1,8.38,8.38,0,0,1-4.51-1.34v7.48a1.94,1.94,0,1,1-3.88,0V48.7a1.94,1.94,0,0,1,2-1.92,2,2,0,0,1,1.85,1.35,8,8,0,0,1,4.58-1.41A8.1,8.1,0,0,1,66,54.81Zm-3.87,0A4.23,4.23,0,1,0,57.88,59,4.24,4.24,0,0,0,62.1,54.81Z"/><path class="cls-2" d="M81.24,51.65a1.92,1.92,0,0,1-2.72.09,3.89,3.89,0,0,0-2.66-1.05,4.07,4.07,0,0,0-4,4.12v6a1.92,1.92,0,0,1-3.84,0V48.61A1.93,1.93,0,0,1,71.8,48a7.62,7.62,0,0,1,9.34.93A1.89,1.89,0,0,1,81.24,51.65Z"/><path class="cls-2" d="M85.37,44a2,2,0,0,1-2-2v-.16a2,2,0,1,1,4,0v.16A2,2,0,0,1,85.37,44Zm0,18.78a2,2,0,0,1-2-2V48.45a2,2,0,0,1,4,0V60.8A2,2,0,0,1,85.37,62.78Z"/><path class="cls-2" d="M105.3,54.75v6a1.91,1.91,0,1,1-3.81,0v-6a3.9,3.9,0,0,0-3.68-4.09c-2.49,0-3.77,2.49-3.77,4.7V60.8a1.92,1.92,0,0,1-3.84,0V48.58a1.92,1.92,0,0,1,1.92-1.92A1.89,1.89,0,0,1,93.91,48a7.11,7.11,0,0,1,3.9-1.15A7.72,7.72,0,0,1,105.3,54.75Z"/><path class="cls-2" d="M116.24,60.77a1.91,1.91,0,0,1-1.92,1.92,5.84,5.84,0,0,1-.83,0,4.57,4.57,0,0,1-2.81-1.44,4.68,4.68,0,0,1-1.09-2.88V50.27h-1.38a1.92,1.92,0,1,1,0-3.84h1.38V40.32a1.92,1.92,0,1,1,3.84,0v6.11h1.06a1.92,1.92,0,0,1,0,3.84h-1.06v7.62c.06.25,0,.64.22.83s.45.13.67.13A1.92,1.92,0,0,1,116.24,60.77Z"/><path class="cls-2" d="M124.21,62.85A8.06,8.06,0,0,1,119.06,61a1.91,1.91,0,0,1,2.59-2.81c.58.54,2.72,1.28,3.94.48a1.08,1.08,0,0,0,.51-.9,1,1,0,0,0-.7-.9,3.31,3.31,0,0,0-1.38-.16,7.31,7.31,0,0,1-2.53-.35,4.8,4.8,0,0,1-3.13-3.93,4.72,4.72,0,0,1,1.44-4,6.8,6.8,0,0,1,5.63-1.41,5.67,5.67,0,0,1,3,1.41,1.92,1.92,0,0,1,.13,2.69,2,2,0,0,1-1.64.61,2.17,2.17,0,0,1-.83-.29,2.88,2.88,0,0,0-1.34-.64c-1-.16-2.75-.1-2.63,1.28a1.3,1.3,0,0,0,.58.67,5.55,5.55,0,0,0,1.31.09,7.63,7.63,0,0,1,3,.52,4.87,4.87,0,0,1,2.91,4.38,5,5,0,0,1-2.21,4.1A6.29,6.29,0,0,1,124.21,62.85Z"/></g></g></svg>