<svg viewBox="0 0 159.21 71.01" xmlns="http://www.w3.org/2000/svg"><path d="m1 15.44h157.21v38.72h-157.21z" fill="none" stroke="#f29bb8" stroke-miterlimit="10" stroke-width="2"/><g fill="#283069" transform="translate(0 -2.82)"><path d="m34 4.9v20.38a2 2 0 0 1 -3.91 0v-14.43l-5 6.85a2 2 0 0 1 -1.57.8 2 2 0 0 1 -1.56-.8l-5-6.85v14.43a1.94 1.94 0 1 1 -3.87 0v-20.64s0-.06 0-.1v-.09a.11.11 0 0 0 0-.1s0-.06 0-.09 0 0 0-.07 0-.06 0-.09a.14.14 0 0 0 0-.1l.07-.06s0-.07 0-.1l.06-.06s0-.07.07-.1 0 0 0-.06l.1-.07a.06.06 0 0 1 .06-.06.08.08 0 0 1 .07-.07l.06-.06s0 0 .06 0 0 0 0 0 0 0 .07-.07.06 0 .09 0 .07 0 .07-.06a.09.09 0 0 0 .09 0s.07 0 .1 0 .06 0 .1 0 0 0 .06 0a.28.28 0 0 0 .13 0h.06a.24.24 0 0 0 .13 0h.38a.11.11 0 0 1 .07 0h.09a.12.12 0 0 1 .1 0h.1a.11.11 0 0 0 .09 0 .13.13 0 0 0 .1 0s0 0 .06 0l.1.07s.06 0 .06 0a.18.18 0 0 1 .1.06s.06 0 .06 0l.1.06.06.06s.07 0 .1.07 0 0 0 .06.06 0 .06.07.07.06.07.09 0 0 .06 0l6.91 9.5 7-9.5s0 0 0 0 0-.06.06-.09 0 0 .07-.07 0 0 .06-.06 0-.07.07-.07l.06-.06s.06 0 .1-.06 0 0 .06 0a.15.15 0 0 1 .1-.06s0 0 .06 0l.1-.07a.11.11 0 0 0 .09 0s0 0 .07 0a.11.11 0 0 0 .09 0h.1a.11.11 0 0 1 .09 0h.1a.12.12 0 0 1 .1 0h.38a.12.12 0 0 0 .1 0h.09a.13.13 0 0 0 .1 0 .09.09 0 0 0 .06 0h.13a.1.1 0 0 0 .06 0 .12.12 0 0 0 .1 0l.1.06a.1.1 0 0 0 .06 0l.09.07a.06.06 0 0 1 .06.06s.07 0 .1.07l.06.06s0 0 .07.07 0 0 0 .06a.18.18 0 0 1 .06.1l.07.06a.18.18 0 0 0 .06.1s0 0 0 .06 0 .06 0 .1a.11.11 0 0 1 0 .09s0 0 0 .07a.11.11 0 0 1 0 .09s0 .07 0 .1a.09.09 0 0 0 0 .09v.29s.66.04.66.07z"/><path d="m49.51 20.26h-9.86a4.22 4.22 0 0 0 4.07 3.23 5.39 5.39 0 0 0 3.36-1.22 1.93 1.93 0 0 1 2.72 0 1.9 1.9 0 0 1 0 2.72 8.92 8.92 0 0 1 -6.05 2.27 8 8 0 0 1 0-16.06 6.73 6.73 0 0 1 1.41.13 7.76 7.76 0 0 1 5.15 3.67 6.16 6.16 0 0 1 1 3.14 2.89 2.89 0 0 1 -.25.92 1.75 1.75 0 0 1 -1.55 1.2zm-9.31-3.26h6.8a3.56 3.56 0 0 0 -3.26-1.92 4.17 4.17 0 0 0 -3.54 1.92z"/><path d="m68.2 19.17v6a1.91 1.91 0 1 1 -3.81 0v-6a3.91 3.91 0 0 0 -3.68-4.1c-2.5 0-3.78 2.5-3.78 4.71v5.44a1.92 1.92 0 0 1 -3.84 0v-12.22a1.93 1.93 0 0 1 1.91-1.93 1.91 1.91 0 0 1 1.8 1.31 7.19 7.19 0 0 1 3.9-1.15 7.73 7.73 0 0 1 7.5 7.94z"/><path d="m79.14 25.18a1.9 1.9 0 0 1 -1.92 1.92 7.68 7.68 0 0 1 -.83 0 4.64 4.64 0 0 1 -2.82-1.44 4.7 4.7 0 0 1 -1.08-2.88v-8.09h-1.38a1.92 1.92 0 0 1 0-3.84h1.38v-6.11a1.92 1.92 0 0 1 3.84 0v6.11h1a1.92 1.92 0 1 1 0 3.84h-1v7.61c.06.26 0 .64.22.84s.45.12.67.12a1.93 1.93 0 0 1 1.92 1.92z"/><path d="m89.09 27.13a8 8 0 0 1 0-16.06 8 8 0 1 1 0 16.06zm0-12.12a4.1 4.1 0 1 0 4.1 4.09 4.08 4.08 0 0 0 -4.1-4.1z"/><path d="m112.58 16.06a1.92 1.92 0 0 1 -2.72.1 3.86 3.86 0 0 0 -2.66-1.06 4.07 4.07 0 0 0 -4 4.13v6.05a1.92 1.92 0 0 1 -3.84 0v-12.28a1.92 1.92 0 0 1 3.74-.57 7.59 7.59 0 0 1 9.34.93 1.87 1.87 0 0 1 .14 2.7z"/><path d="m127.36 20.26h-9.85a4.22 4.22 0 0 0 4.06 3.23 5.35 5.35 0 0 0 3.36-1.22 1.93 1.93 0 0 1 2.72 0 1.89 1.89 0 0 1 0 2.72 8.88 8.88 0 0 1 -6.05 2.27 8 8 0 0 1 0-16.06 6.73 6.73 0 0 1 1.41.13 7.74 7.74 0 0 1 5.15 3.67 6.17 6.17 0 0 1 1 3.14 2.68 2.68 0 0 1 -.26.92 1.74 1.74 0 0 1 -1.54 1.2zm-9.31-3.26h6.79a3.58 3.58 0 0 0 -3.27-1.92 4.17 4.17 0 0 0 -3.52 1.92z"/><path d="m146.47 4.87v20.35a2 2 0 0 1 -3.81.57 8 8 0 0 1 -4.58 1.41 8.1 8.1 0 0 1 0-16.19 8.44 8.44 0 0 1 4.52 1.34v-7.48a1.94 1.94 0 1 1 3.87 0zm-4.16 14.23a4.23 4.23 0 1 0 -4.23 4.23 4.22 4.22 0 0 0 4.23-4.23z"/><path d="m46.61 59.14c-.22 3.74-3.61 5.92-6.61 6.36a11.82 11.82 0 0 1 -1.57.1 10.78 10.78 0 0 1 -8.2-3.6 1.92 1.92 0 0 1 .22-2.69 1.89 1.89 0 0 1 2.66.22 7.18 7.18 0 0 0 6.3 2.18c1.57-.23 3.3-1.19 3.39-2.82a3.14 3.14 0 0 0 -2.59-3.13 10.74 10.74 0 0 0 -2.11-.23 9.64 9.64 0 0 1 -5.25-1.37 6.67 6.67 0 0 1 -2.78-7.08 7.74 7.74 0 0 1 6.37-5.37 11.32 11.32 0 0 1 8.35 2.18 1.91 1.91 0 1 1 -2.37 3 7.32 7.32 0 0 0 -5.42-1.39 3.9 3.9 0 0 0 -3.2 2.63 2.8 2.8 0 0 0 1.2 2.87 6.16 6.16 0 0 0 3.26.7 18 18 0 0 1 2.75.32 7 7 0 0 1 5.6 7.12z"/><path d="m66 57.63a8.11 8.11 0 0 1 -8.09 8.1 8.3 8.3 0 0 1 -4.51-1.35v7.49a1.94 1.94 0 1 1 -3.88 0v-20.35a1.94 1.94 0 0 1 2-1.92 2 2 0 0 1 1.85 1.34 8.11 8.11 0 0 1 12.63 6.69zm-3.87 0a4.23 4.23 0 1 0 -4.22 4.23 4.24 4.24 0 0 0 4.19-4.23z"/><path d="m81.24 54.46a1.92 1.92 0 0 1 -2.72.1 3.9 3.9 0 0 0 -2.66-1.06 4.07 4.07 0 0 0 -4 4.13v6a1.92 1.92 0 1 1 -3.84 0v-12.21a1.93 1.93 0 0 1 3.75-.57 7.62 7.62 0 0 1 9.34.93 1.88 1.88 0 0 1 .13 2.68z"/><path d="m85.37 46.82a2 2 0 0 1 -2-2v-.16a2 2 0 1 1 4 0v.16a2 2 0 0 1 -2 2zm0 18.78a2 2 0 0 1 -2-2v-12.34a2 2 0 0 1 4 0v12.36a2 2 0 0 1 -2 1.98z"/><path d="m105.3 57.57v6a1.91 1.91 0 1 1 -3.81 0v-6a3.91 3.91 0 0 0 -3.68-4.1c-2.49 0-3.81 2.53-3.81 4.71v5.44a1.92 1.92 0 0 1 -3.84 0v-12.23a1.93 1.93 0 0 1 1.92-1.92 1.9 1.9 0 0 1 1.79 1.32 7.12 7.12 0 0 1 3.9-1.16 7.73 7.73 0 0 1 7.53 7.94z"/><path d="m116.24 63.58a1.9 1.9 0 0 1 -1.92 1.92 7.77 7.77 0 0 1 -.83 0 4.62 4.62 0 0 1 -2.81-1.5 4.71 4.71 0 0 1 -1.09-2.88v-8.03h-1.38a1.92 1.92 0 1 1 0-3.84h1.38v-6.11a1.92 1.92 0 0 1 3.84 0v6.11h1a1.92 1.92 0 0 1 0 3.84h-1v7.61c.06.26 0 .64.22.84s.45.12.67.12a1.93 1.93 0 0 1 1.92 1.92z"/><path d="m124.21 65.66a8.06 8.06 0 0 1 -5.15-1.82 1.91 1.91 0 0 1 2.59-2.84c.58.55 2.72 1.28 3.94.48a1 1 0 0 0 -.19-1.79 3.31 3.31 0 0 0 -1.38-.16 7.31 7.31 0 0 1 -2.53-.35 4.8 4.8 0 0 1 -3.13-3.94 4.71 4.71 0 0 1 1.44-4 6.8 6.8 0 0 1 5.63-1.41 5.67 5.67 0 0 1 3 1.41 1.91 1.91 0 0 1 .17 2.76 2 2 0 0 1 -1.64.61 2 2 0 0 1 -.83-.29 3 3 0 0 0 -1.34-.64c-1-.16-2.75-.09-2.63 1.28a1.32 1.32 0 0 0 .58.68 5.55 5.55 0 0 0 1.31.09 7.42 7.42 0 0 1 3 .51 4.82 4.82 0 0 1 .7 8.48 6.21 6.21 0 0 1 -3.54.94z"/></g></svg>