<svg xmlns="http://www.w3.org/2000/svg" viewBox="0 0 280.57 234.79"><defs><style>.cls-1{fill:#283069;}.cls-2{fill:none;stroke:#c2599d;stroke-miterlimit:10;stroke-width:2px;}.cls-3{fill:#fff;}</style></defs><title>Asset 37</title><g id="Layer_2" data-name="Layer 2"><g id="Layer_1-2" data-name="Layer 1"><rect class="cls-1" width="280.57" height="234.79"/><rect class="cls-2" x="61.68" y="98.03" width="157.21" height="38.72"/><path class="cls-3" d="M94.64,85.25v20.38a2,2,0,0,1-2,2,2,2,0,0,1-2-2V91.2l-5,6.85a2,2,0,0,1-1.57.8,2.06,2.06,0,0,1-1.57-.8l-5-6.85v14.43a1.94,1.94,0,1,1-3.87,0V85s0-.07,0-.1v-.1a.11.11,0,0,0,0-.09s0-.07,0-.1,0,0,0-.06,0-.07,0-.1a.11.11,0,0,0,0-.09l.07-.07s0-.06,0-.09l.06-.07s0-.06.07-.09,0,0,0-.07l.09-.06a.08.08,0,0,1,.07-.07.06.06,0,0,1,.06-.06l.07-.06s0,0,.06,0,0,0,0,0,0,0,.07-.06.06,0,.09,0,.07,0,.07-.07a.11.11,0,0,0,.09,0s.07,0,.1,0,.06,0,.1,0,0,0,.06,0a.28.28,0,0,0,.13,0h.06a.28.28,0,0,0,.13,0h.38a.11.11,0,0,1,.07,0H76a.12.12,0,0,1,.1,0h.09a.12.12,0,0,0,.1,0,.12.12,0,0,0,.1,0s0,0,.06,0l.1.06s.06,0,.06,0,.06,0,.1.06a.1.1,0,0,1,.06,0l.1.07.06.06a.18.18,0,0,1,.1.06s0,0,0,.07.06,0,.06.06.07.07.07.1,0,0,.06,0l6.91,9.5,7-9.5s0,0,0,0a.18.18,0,0,1,.06-.1s0,0,.07-.06,0,0,.06-.07,0-.06.06-.06l.07-.06s.06,0,.09-.07,0,0,.07,0,.06-.06.09-.06,0,0,.07,0l.09-.06a.12.12,0,0,0,.1,0s0,0,.06,0a.1.1,0,0,0,.1,0h.1a.11.11,0,0,1,.09,0h.1a.11.11,0,0,1,.09,0h.39a.11.11,0,0,0,.09,0h.1a.12.12,0,0,0,.1,0,.08.08,0,0,0,.06,0,.86.86,0,0,1,.13,0,.1.1,0,0,0,.06,0,.13.13,0,0,0,.1,0l.09.07a.15.15,0,0,0,.07,0l.09.06,0,0,0,0a.06.06,0,0,1,.06.06.18.18,0,0,1,.1.06l.06.07s0,0,.07.06,0,0,0,.07.06.06.06.09l.07.07s0,.06.06.09,0,0,0,.07,0,.06,0,.09a.11.11,0,0,1,0,.1s0,0,0,.06a.13.13,0,0,1,0,.1s0,.06,0,.09a.12.12,0,0,0,0,.1v.29S94.64,85.22,94.64,85.25Z"/><path class="cls-3" d="M110.19,100.61h-9.86a4.22,4.22,0,0,0,4.07,3.23,5.38,5.38,0,0,0,3.36-1.21,1.92,1.92,0,0,1,2.68,2.75,8.93,8.93,0,0,1-6,2.27,8,8,0,0,1,0-16.06,7.36,7.36,0,0,1,1.4.12A7.76,7.76,0,0,1,111,95.39a6.16,6.16,0,0,1,1,3.14,2.87,2.87,0,0,1-.25.93A1.74,1.74,0,0,1,110.19,100.61Zm-9.31-3.23h6.78a3.55,3.55,0,0,0-3.26-1.92A4.12,4.12,0,0,0,100.88,97.38Z"/><path class="cls-3" d="M128.88,99.52v6a1.91,1.91,0,1,1-3.81,0v-6a3.91,3.91,0,0,0-3.68-4.09c-2.5,0-3.78,2.49-3.78,4.7v5.44a1.92,1.92,0,0,1-3.84,0V93.35a1.93,1.93,0,0,1,1.92-1.92,1.88,1.88,0,0,1,1.79,1.31,7.17,7.17,0,0,1,3.91-1.15A7.72,7.72,0,0,1,128.88,99.52Z"/><path class="cls-3" d="M139.82,105.54a1.9,1.9,0,0,1-1.92,1.92,7.68,7.68,0,0,1-.83,0,4.64,4.64,0,0,1-2.82-1.44,4.73,4.73,0,0,1-1.09-2.88V95h-1.37a1.92,1.92,0,1,1,0-3.84h1.37V85.09a1.92,1.92,0,1,1,3.84,0V91.2h1.06a1.92,1.92,0,0,1,0,3.84H137v7.62c.07.25,0,.64.23.83s.45.13.67.13A1.92,1.92,0,0,1,139.82,105.54Z"/><path class="cls-3" d="M149.77,107.49a8,8,0,1,1,8.06-8A8,8,0,0,1,149.77,107.49Zm0-12.13a4.1,4.1,0,1,0,4.1,4.1A4.08,4.08,0,0,0,149.77,95.36Z"/><path class="cls-3" d="M173.26,96.42a1.92,1.92,0,0,1-2.72.09,3.89,3.89,0,0,0-2.66-1.05,4.07,4.07,0,0,0-4,4.13v6a1.92,1.92,0,1,1-3.83,0V93.38a1.92,1.92,0,0,1,3.74-.58,7.62,7.62,0,0,1,9.34.93A1.89,1.89,0,0,1,173.26,96.42Z"/><path class="cls-3" d="M188,100.61h-9.85a4.21,4.21,0,0,0,4.06,3.23,5.35,5.35,0,0,0,3.36-1.21,1.92,1.92,0,0,1,2.72,0,1.89,1.89,0,0,1,0,2.72,9,9,0,0,1-6.05,2.27,8,8,0,0,1,0-16.06,7.46,7.46,0,0,1,1.41.12,7.76,7.76,0,0,1,5.18,3.68,6.27,6.27,0,0,1,1,3.14,2.67,2.67,0,0,1-.26.93A1.74,1.74,0,0,1,188,100.61Zm-9.31-3.23h6.78a3.55,3.55,0,0,0-3.26-1.92A4.14,4.14,0,0,0,178.73,97.38Z"/><path class="cls-3" d="M207.14,85.22v20.35a1.95,1.95,0,0,1-3.8.58,8.11,8.11,0,0,1-12.67-6.69,8.12,8.12,0,0,1,8.09-8.1,8.39,8.39,0,0,1,4.51,1.35V85.22a1.94,1.94,0,1,1,3.87,0ZM203,99.46a4.22,4.22,0,1,0-4.22,4.22A4.22,4.22,0,0,0,203,99.46Z"/><path class="cls-3" d="M107.29,139.49c-.22,3.74-3.61,5.92-6.65,6.37a13.9,13.9,0,0,1-1.57.09,10.78,10.78,0,0,1-8.16-3.58,1.93,1.93,0,0,1,.22-2.69,1.89,1.89,0,0,1,2.66.23,7.18,7.18,0,0,0,6.3,2.17c1.57-.22,3.3-1.18,3.39-2.81a3.15,3.15,0,0,0-2.59-3.14,10.76,10.76,0,0,0-2.11-.22,9.74,9.74,0,0,1-5.25-1.38,6.66,6.66,0,0,1-2.78-7.07,7.75,7.75,0,0,1,6.37-5.38,11.37,11.37,0,0,1,8.35,2.18,1.92,1.92,0,1,1-2.37,3,7.27,7.27,0,0,0-5.47-1.41,3.86,3.86,0,0,0-3.2,2.62,2.81,2.81,0,0,0,1.28,2.92,6.26,6.26,0,0,0,3.26.7,16.83,16.83,0,0,1,2.75.32A7,7,0,0,1,107.29,139.49Z"/><path class="cls-3" d="M126.65,138a8.1,8.1,0,0,1-8.09,8.09,8.44,8.44,0,0,1-4.52-1.34v7.49a1.94,1.94,0,1,1-3.87,0V131.88a1.93,1.93,0,0,1,2-1.92A2,2,0,0,1,114,131.3a8,8,0,0,1,4.58-1.41A8.11,8.11,0,0,1,126.65,138Zm-3.87,0a4.23,4.23,0,1,0-4.22,4.22A4.24,4.24,0,0,0,122.78,138Z"/><path class="cls-3" d="M141.92,134.82a1.93,1.93,0,0,1-2.72.1,3.85,3.85,0,0,0-2.66-1.06,4.06,4.06,0,0,0-4,4.13v6a1.92,1.92,0,1,1-3.84,0V131.78a1.93,1.93,0,0,1,3.75-.58,7.62,7.62,0,0,1,9.34.93A1.89,1.89,0,0,1,141.92,134.82Z"/><path class="cls-3" d="M146,127.17a2,2,0,0,1-2-2v-.16a2,2,0,0,1,4,0v.16A2,2,0,0,1,146,127.17ZM146,146a2,2,0,0,1-2-2V131.62a2,2,0,0,1,4,0V144A2,2,0,0,1,146,146Z"/><path class="cls-3" d="M166,137.92V144a1.91,1.91,0,1,1-3.81,0v-6.05a3.9,3.9,0,0,0-3.68-4.09c-2.49,0-3.77,2.49-3.77,4.7V144a1.92,1.92,0,1,1-3.84,0V131.75a1.92,1.92,0,0,1,1.92-1.92,1.89,1.89,0,0,1,1.79,1.31,7.11,7.11,0,0,1,3.9-1.15A7.72,7.72,0,0,1,166,137.92Z"/><path class="cls-3" d="M176.92,143.94a1.9,1.9,0,0,1-1.92,1.92,7.77,7.77,0,0,1-.83,0,4.62,4.62,0,0,1-2.81-1.44,4.73,4.73,0,0,1-1.09-2.88v-8.07h-1.38a1.92,1.92,0,0,1,0-3.84h1.38v-6.11a1.92,1.92,0,0,1,3.84,0v6.11h1a1.92,1.92,0,1,1,0,3.84h-1v7.62c.06.25,0,.64.22.83s.45.13.67.13A1.92,1.92,0,0,1,176.92,143.94Z"/><path class="cls-3" d="M184.89,146a8,8,0,0,1-5.15-1.83,1.91,1.91,0,0,1,2.59-2.81c.58.54,2.72,1.28,3.94.48a1.07,1.07,0,0,0,.51-.9,1,1,0,0,0-.71-.89,3.26,3.26,0,0,0-1.37-.16,7.1,7.1,0,0,1-2.53-.36,4.75,4.75,0,0,1-1.7-7.9,6.85,6.85,0,0,1,5.64-1.41,5.82,5.82,0,0,1,3,1.41,1.92,1.92,0,0,1,.12,2.69,2,2,0,0,1-1.63.61,2,2,0,0,1-.83-.29,3,3,0,0,0-1.34-.64c-1-.16-2.75-.1-2.63,1.28a1.23,1.23,0,0,0,.58.67,5,5,0,0,0,1.31.1,7.35,7.35,0,0,1,2.94.51,4.9,4.9,0,0,1,2.92,4.38,5,5,0,0,1-2.21,4.1A6.29,6.29,0,0,1,184.89,146Z"/></g></g></svg>