<svg viewBox="0 0 195.2 99.12" xmlns="http://www.w3.org/2000/svg"><rect fill="#283069" height="99.12" rx="6.01" width="195.2"/><path d="m19 30.2h157.21v38.72h-157.21z" fill="none" stroke="#c2599d" stroke-miterlimit="10" stroke-width="2"/><g fill="#fff"><path d="m52 17.42v20.38a2 2 0 0 1 -3.9 0v-14.43l-5 6.85a2 2 0 0 1 -1.57.8 2.06 2.06 0 0 1 -1.57-.8l-5-6.85v14.43a1.94 1.94 0 1 1 -3.87 0v-20.64s0-.06 0-.09v-.07a.12.12 0 0 0 0-.1s0-.06 0-.09 0 0 0-.07 0-.06 0-.09a.13.13 0 0 0 0-.1l.06-.06s0-.07 0-.1l.06-.06a.18.18 0 0 1 .06-.1s0 0 0-.06l.09-.07a.07.07 0 0 1 .07-.06.06.06 0 0 1 .06-.06l.06-.07s0 0 .07 0 0 0 0 0 0 0 .06-.07.07 0 .1 0 .06 0 .06-.06a.12.12 0 0 0 .1 0s.06 0 .1 0h.09s0 0 .07 0a.23.23 0 0 0 .12 0h.07a.28.28 0 0 0 .13 0h.38a.09.09 0 0 1 .06 0h.1a.14.14 0 0 1 .1 0h.09a.13.13 0 0 0 .1 0 .11.11 0 0 0 .09 0s0 0 .07 0l.09.06s.07 0 .07 0 .06 0 .09.07a.11.11 0 0 1 .07 0l.09.06.07.07s.06 0 .09.06 0 0 0 .06.06 0 .06.07.06.06.06.09 0 0 .07 0l6.91 9.5 6.94-9.5s0 0 0 0 0-.06.07-.09 0 0 .06-.07 0 0 .07-.06 0-.06.06-.06l.06-.07s.07 0 .1-.06 0 0 .06 0 .07-.07.1-.07 0 0 .06 0l.1-.06a.12.12 0 0 0 .1 0s0 0 .06 0a.14.14 0 0 0 .1 0h.09a.13.13 0 0 1 .1 0h.09a.14.14 0 0 1 .1 0h.38a.14.14 0 0 0 .1 0h.1a.11.11 0 0 0 .09 0 .11.11 0 0 0 .07 0h.12s0 0 .07 0a.11.11 0 0 0 .09 0l.1.06a.1.1 0 0 0 .06 0l.1.07a.07.07 0 0 1 .07.07s.06 0 .09.06l.07.06s0 0 .06.07 0 0 0 .06a.15.15 0 0 1 .07.1l.06.06a.15.15 0 0 0 .07.1s0 0 0 .06 0 .07 0 .1a.11.11 0 0 1 0 .09s0 0 0 .07a.09.09 0 0 1 0 .09s0 .07 0 .1a.14.14 0 0 0 0 .1v.28s.73.01.73.04z"/><path d="m67.5 32.78h-9.85a4.22 4.22 0 0 0 4.06 3.22 5.35 5.35 0 0 0 3.36-1.22 1.93 1.93 0 0 1 2.72 0 1.89 1.89 0 0 1 0 2.72 8.9 8.9 0 0 1 -6.05 2.28 8 8 0 0 1 0-16.07 7.47 7.47 0 0 1 1.41.13 7.74 7.74 0 0 1 5.18 3.68 6.17 6.17 0 0 1 1 3.14 2.68 2.68 0 0 1 -.26.92 1.74 1.74 0 0 1 -1.57 1.2zm-9.31-3.24h6.81a3.57 3.57 0 0 0 -3.27-1.91 4.16 4.16 0 0 0 -3.54 1.91z"/><path d="m86.19 31.69v6.05a1.91 1.91 0 1 1 -3.81 0v-6.05a3.91 3.91 0 0 0 -3.68-4.1c-2.49 0-3.77 2.5-3.77 4.71v5.44a1.92 1.92 0 1 1 -3.84 0v-12.23a1.93 1.93 0 0 1 1.91-1.92 1.9 1.9 0 0 1 1.79 1.32 7.12 7.12 0 0 1 3.9-1.16 7.73 7.73 0 0 1 7.5 7.94z"/><path d="m97.14 37.7a1.91 1.91 0 0 1 -1.92 1.92 7.86 7.86 0 0 1 -.84 0 4.62 4.62 0 0 1 -2.81-1.44 4.71 4.71 0 0 1 -1.09-2.88v-8.09h-1.37a1.92 1.92 0 0 1 0-3.84h1.37v-6.11a1.92 1.92 0 0 1 3.84 0v6.11h1.06a1.92 1.92 0 1 1 0 3.84h-1.06v7.61c.06.26 0 .64.22.84s.45.12.68.12a1.93 1.93 0 0 1 1.92 1.92z"/><path d="m107.09 39.66a8 8 0 1 1 8.06-8 8 8 0 0 1 -8.06 8zm0-12.13a4.1 4.1 0 1 0 4.09 4.09 4.08 4.08 0 0 0 -4.09-4.09z"/><path d="m130.57 28.59a1.91 1.91 0 0 1 -2.71.09 3.89 3.89 0 0 0 -2.66-1.05 4.06 4.06 0 0 0 -4 4.12v6a1.92 1.92 0 0 1 -3.84 0v-12.21a1.93 1.93 0 0 1 3.75-.57 7.62 7.62 0 0 1 9.34.93 1.88 1.88 0 0 1 .12 2.69z"/><path d="m145.36 32.78h-9.86a4.22 4.22 0 0 0 4.07 3.22 5.37 5.37 0 0 0 3.36-1.22 1.93 1.93 0 0 1 2.72 0 1.9 1.9 0 0 1 0 2.72 8.91 8.91 0 0 1 -6.05 2.28 8 8 0 0 1 0-16.07 7.47 7.47 0 0 1 1.41.13 7.76 7.76 0 0 1 5.18 3.68 6.16 6.16 0 0 1 1 3.14 2.65 2.65 0 0 1 -.25.92 1.75 1.75 0 0 1 -1.58 1.2zm-9.31-3.24h6.78a3.56 3.56 0 0 0 -3.26-1.91 4.16 4.16 0 0 0 -3.52 1.91z"/><path d="m164.46 17.39v20.35a2 2 0 0 1 -3.81.57 7.93 7.93 0 0 1 -4.57 1.41 8.1 8.1 0 1 1 0-16.19 8.41 8.41 0 0 1 4.51 1.34v-7.48a1.94 1.94 0 1 1 3.87 0zm-4.16 14.23a4.22 4.22 0 1 0 -4.22 4.23 4.22 4.22 0 0 0 4.22-4.23z"/><path d="m64.61 71.66c-.23 3.74-3.61 5.92-6.61 6.34a11.72 11.72 0 0 1 -1.57.1 10.8 10.8 0 0 1 -8.16-3.58 1.93 1.93 0 0 1 .23-2.69 1.87 1.87 0 0 1 2.65.22 7.2 7.2 0 0 0 6.31 2.18c1.54-.23 3.24-1.17 3.34-2.8a3.14 3.14 0 0 0 -2.59-3.13 10.82 10.82 0 0 0 -2.11-.23 9.62 9.62 0 0 1 -5.25-1.37 6.65 6.65 0 0 1 -2.79-7.07 7.73 7.73 0 0 1 6.37-5.38 11.31 11.31 0 0 1 8.35 2.18 1.91 1.91 0 0 1 -2.36 3 7.28 7.28 0 0 0 -5.48-1.43 3.88 3.88 0 0 0 -3.2 2.62 2.81 2.81 0 0 0 1.26 2.94 6.22 6.22 0 0 0 3.27.7 17 17 0 0 1 2.75.33 7 7 0 0 1 5.59 7.07z"/><path d="m84 70.15a8.11 8.11 0 0 1 -8.1 8.1 8.33 8.33 0 0 1 -4.51-1.35v7.49a1.94 1.94 0 1 1 -3.87 0v-20.39a1.93 1.93 0 0 1 2-1.92 2 2 0 0 1 1.86 1.34 8 8 0 0 1 4.57-1.4 8.1 8.1 0 0 1 8.05 8.13zm-3.87 0a4.23 4.23 0 1 0 -4.23 4.23 4.24 4.24 0 0 0 4.2-4.23z"/><path d="m99.23 67a1.93 1.93 0 0 1 -2.72.09 3.85 3.85 0 0 0 -2.65-1 4.06 4.06 0 0 0 -4 4.12v6a1.92 1.92 0 0 1 -3.84 0v-12.21a1.92 1.92 0 0 1 3.74-.58 7.64 7.64 0 0 1 9.35.93 1.89 1.89 0 0 1 .12 2.65z"/><path d="m103.36 59.34a2 2 0 0 1 -2-2v-.16a2 2 0 0 1 2-2 2 2 0 0 1 2 2v.16a2 2 0 0 1 -2 2zm0 18.78a2 2 0 0 1 -2-2v-12.33a2 2 0 0 1 2-2 2 2 0 0 1 2 2v12.35a2 2 0 0 1 -2 1.98z"/><path d="m123.29 70.09v6a1.9 1.9 0 1 1 -3.8 0v-6a3.92 3.92 0 0 0 -3.68-4.1c-2.5 0-3.78 2.5-3.78 4.71v5.44a1.92 1.92 0 0 1 -3.84 0v-12.23a1.93 1.93 0 0 1 1.92-1.91 1.89 1.89 0 0 1 1.79 1.32 7.17 7.17 0 0 1 3.91-1.16 7.72 7.72 0 0 1 7.48 7.93z"/><path d="m134.24 76.1a1.91 1.91 0 0 1 -1.92 1.9 7.68 7.68 0 0 1 -.83 0 4.64 4.64 0 0 1 -2.82-1.44 4.71 4.71 0 0 1 -1.09-2.88v-8.07h-1.37a1.92 1.92 0 1 1 0-3.84h1.37v-6.11a1.92 1.92 0 1 1 3.84 0v6.11h1.06a1.92 1.92 0 1 1 0 3.84h-1.06v7.61c.07.26 0 .64.23.84s.45.12.67.12a1.93 1.93 0 0 1 1.92 1.92z"/><path d="m142.21 78.18a8 8 0 0 1 -5.15-1.82 1.91 1.91 0 0 1 2.59-2.82c.57.55 2.72 1.28 3.93.48a1 1 0 0 0 -.19-1.79 3.28 3.28 0 0 0 -1.37-.16 7.28 7.28 0 0 1 -2.53-.35 4.74 4.74 0 0 1 -1.7-7.9 6.81 6.81 0 0 1 5.63-1.41 5.67 5.67 0 0 1 3 1.41 1.91 1.91 0 0 1 -2.33 3 2.89 2.89 0 0 0 -1.35-.65c-1-.15-2.75-.09-2.62 1.28a1.24 1.24 0 0 0 .58.68 5.55 5.55 0 0 0 1.31.09 7.2 7.2 0 0 1 2.94.52 4.86 4.86 0 0 1 2.91 4.38 4.93 4.93 0 0 1 -2.21 4.09 6.18 6.18 0 0 1 -3.44.97z"/></g></svg>