<svg viewBox="0 0 140 140" xmlns="http://www.w3.org/2000/svg" xmlns:xlink="http://www.w3.org/1999/xlink"><pattern id="a" height="29.66" patternTransform="matrix(.72 0 0 1.41 -19.88 -28.59)" patternUnits="userSpaceOnUse" viewBox="0 0 29.66 29.66" width="29.66"><path d="m0 0h29.66v29.66h-29.66z" fill="none"/><path d="m0 0h29.66v29.66h-29.66z" fill="#fbddec"/></pattern><pattern id="b" height="29.66" patternTransform="matrix(.75 0 0 .75 12.66 37.99)" patternUnits="userSpaceOnUse" viewBox="0 0 29.66 29.66" width="29.66"><path d="m0 0h29.66v29.66h-29.66z" fill="none"/><path d="m0 0h29.66v29.66h-29.66z" fill="#e7579a"/></pattern><rect fill="url(#a)" height="140" rx="6.05" width="140"/><path d="m11.05 55.48h117.89v29.04h-117.89z" fill="none" stroke="url(#b)" stroke-miterlimit="10" stroke-width="2"/><g fill="#312783"><path d="m35.77 45.89v15.29a1.47 1.47 0 0 1 -2.93 0v-10.82l-3.74 5.13a1.48 1.48 0 0 1 -1.18.6 1.52 1.52 0 0 1 -1.17-.6l-3.75-5.13v10.82a1.45 1.45 0 1 1 -2.9 0v-15.48s0-.05 0-.07v-.07a.09.09 0 0 0 0-.08s0 0 0-.07 0 0 0 0 0 0 0-.07a.1.1 0 0 0 0-.07h.05s0-.05 0-.07l.05-.05s0 0 .05-.07 0 0 0 0h.08a0 0 0 0 1 0 0 .05.05 0 0 1 .05-.05s0 0 .05 0 0 0 0 0 0 0 .05 0h.07s.05 0 .05 0a.1.1 0 0 0 .07 0s.05 0 .07 0h.08s0 0 0 0a.16.16 0 0 0 .1 0h.05a.18.18 0 0 0 .09 0h.29a.08.08 0 0 1 .05 0h.07s.05 0 .07 0h.46a.08.08 0 0 0 .07 0 .1.1 0 0 0 .07 0s0 0 .05 0l.07.05s.05 0 .05 0a.1.1 0 0 1 .07.05h.05l.07.05h.05a.1.1 0 0 1 .07.05s0 0 0 0 .05 0 .05 0 .05 0 .05.07 0 0 0 0l5.18 7.13 5.23-7.43s0 0 0 0 0 0 0-.07 0 0 0 0 0-.05.05-.05l.07-.05s0 0 .05 0 0-.05.07-.05 0 0 0 0l.07-.05a.07.07 0 0 0 .07 0 .1.1 0 0 0 .07 0h.42a.08.08 0 0 1 .07 0h.08a.08.08 0 0 1 .07 0h.29a.08.08 0 0 0 .07 0h.07a.07.07 0 0 0 .07 0h.05.1s0 0 0 0a.12.12 0 0 0 .08 0h.07a.08.08 0 0 0 0 0h.07a0 0 0 0 1 0 0s0 0 .08.05 0 0 0 0a.13.13 0 0 1 0 .07l.05.05s0 0 0 .07 0 0 0 0 0 .05 0 .07a.11.11 0 0 1 0 .07s0 0 0 0a.11.11 0 0 1 0 .07s0 .05 0 .08a.08.08 0 0 0 0 .07v.21s.55.33.55.35z"/><path d="m47.43 57.41h-7.43a3.17 3.17 0 0 0 3.05 2.43 4 4 0 0 0 2.52-.92 1.44 1.44 0 0 1 2 0 1.41 1.41 0 0 1 0 2 6.65 6.65 0 0 1 -4.53 1.7 6 6 0 0 1 0-12 5.51 5.51 0 0 1 1.06.1 5.78 5.78 0 0 1 3.9 2.78 4.56 4.56 0 0 1 .77 2.35 2.16 2.16 0 0 1 -.19.7 1.31 1.31 0 0 1 -1.15.86zm-7-2.42h5.09a2.68 2.68 0 0 0 -2.45-1.44 3.11 3.11 0 0 0 -2.62 1.45z"/><path d="m61.45 56.6v4.53a1.43 1.43 0 1 1 -2.86 0v-4.53a2.94 2.94 0 0 0 -2.76-3.08c-1.83 0-2.83 1.88-2.83 3.53v4.08a1.44 1.44 0 1 1 -2.88 0v-9.13a1.45 1.45 0 0 1 1.44-1.44 1.42 1.42 0 0 1 1.34 1 5.41 5.41 0 0 1 2.93-.87 5.8 5.8 0 0 1 5.62 5.91z"/><path d="m69.65 61.11a1.43 1.43 0 0 1 -1.44 1.44 4.36 4.36 0 0 1 -.62 0 3.43 3.43 0 0 1 -2.11-1.08 3.52 3.52 0 0 1 -.82-2.16v-6h-1a1.44 1.44 0 1 1 0-2.88h1v-4.66a1.44 1.44 0 0 1 2.88 0v4.59h.79a1.44 1.44 0 1 1 0 2.88h-.79v5.76c0 .19 0 .48.17.62s.34.1.5.1a1.44 1.44 0 0 1 1.44 1.39z"/><path d="m77.12 62.57a6 6 0 1 1 6-6 6 6 0 0 1 -6 6zm0-9.09a3.07 3.07 0 1 0 3.07 3.07 3.06 3.06 0 0 0 -3.07-3.07z"/><path d="m94.73 54.27a1.45 1.45 0 0 1 -2 .07 2.92 2.92 0 0 0 -2-.79 3.05 3.05 0 0 0 -3 3.09v4.54a1.44 1.44 0 1 1 -2.88 0v-9.18a1.44 1.44 0 0 1 2.81-.43 5.72 5.72 0 0 1 7 .69 1.42 1.42 0 0 1 .07 2.01z"/><path d="m105.82 57.41h-7.4a3.17 3.17 0 0 0 3 2.43 4 4 0 0 0 2.52-.92 1.44 1.44 0 0 1 2 0 1.42 1.42 0 0 1 0 2 6.69 6.69 0 0 1 -4.54 1.7 6 6 0 0 1 0-12 5.44 5.44 0 0 1 1.06.1 5.83 5.83 0 0 1 3.89 2.76 4.75 4.75 0 0 1 .77 2.35 2 2 0 0 1 -.2.7 1.31 1.31 0 0 1 -1.1.88zm-7-2.42h5.09a2.68 2.68 0 0 0 -2.45-1.44 3.12 3.12 0 0 0 -2.63 1.45z"/><path d="m120.14 45.87v15.26a1.46 1.46 0 0 1 -2.85.43 5.94 5.94 0 0 1 -3.44 1.06 6.07 6.07 0 1 1 0-12.14 6.36 6.36 0 0 1 3.39 1v-5.61a1.45 1.45 0 1 1 2.9 0zm-3.14 10.68a3.17 3.17 0 1 0 -3.17 3.17 3.16 3.16 0 0 0 3.17-3.17z"/><path d="m45.26 86.57c-.17 2.81-2.71 4.44-5 4.78a11.5 11.5 0 0 1 -1.18.07 8.11 8.11 0 0 1 -6.08-2.69 1.45 1.45 0 0 1 .17-2 1.41 1.41 0 0 1 2 .17 5.39 5.39 0 0 0 4.73 1.63c1.18-.17 2.47-.89 2.55-2.11a2.37 2.37 0 0 0 -1.95-2.35 7.89 7.89 0 0 0 -1.58-.17 7.21 7.21 0 0 1 -3.94-1 5 5 0 0 1 -2.09-5.31 5.82 5.82 0 0 1 4.78-4 8.5 8.5 0 0 1 6.26 1.63 1.44 1.44 0 0 1 -1.77 2.26 5.51 5.51 0 0 0 -4.16-1.14 2.92 2.92 0 0 0 -2.4 2 2.12 2.12 0 0 0 1 2.19 4.66 4.66 0 0 0 2.4.47 14 14 0 0 1 2.07.24 5.26 5.26 0 0 1 4.19 5.33z"/><path d="m59.78 85.44a6.08 6.08 0 0 1 -6.07 6.07 6.36 6.36 0 0 1 -3.39-1v5.61a1.45 1.45 0 1 1 -2.9 0v-15.26a1.44 1.44 0 0 1 1.46-1.44 1.5 1.5 0 0 1 1.4 1 6 6 0 0 1 3.43-1 6.08 6.08 0 0 1 6.07 6.02zm-2.9 0a3.17 3.17 0 1 0 -3.17 3.17 3.18 3.18 0 0 0 3.17-3.17z"/><path d="m71.23 83.06a1.44 1.44 0 0 1 -2 .08 2.89 2.89 0 0 0 -2-.8 3.05 3.05 0 0 0 -3 3.1v4.56a1.44 1.44 0 0 1 -2.88 0v-9.2a1.42 1.42 0 0 1 1.44-1.41 1.44 1.44 0 0 1 1.37 1 5.7 5.7 0 0 1 7 .7 1.41 1.41 0 0 1 .07 1.97z"/><path d="m74.32 77.33a1.49 1.49 0 0 1 -1.51-1.47v-.12a1.49 1.49 0 0 1 3 0v.12a1.48 1.48 0 0 1 -1.49 1.47zm0 14.09a1.5 1.5 0 0 1 -1.51-1.49v-9.27a1.49 1.49 0 0 1 3 0v9.27a1.49 1.49 0 0 1 -1.49 1.49z"/><path d="m89.27 85.39v4.54a1.43 1.43 0 1 1 -2.85 0v-4.54a2.93 2.93 0 0 0 -2.76-3.07c-1.88 0-2.84 1.87-2.84 3.53v4.08a1.44 1.44 0 0 1 -2.88 0v-9.17a1.45 1.45 0 0 1 1.44-1.44 1.42 1.42 0 0 1 1.35 1 5.38 5.38 0 0 1 2.93-.86 5.79 5.79 0 0 1 5.61 5.93z"/><path d="m97.48 89.9a1.44 1.44 0 0 1 -1.48 1.45 4.43 4.43 0 0 1 -.63 0 3.48 3.48 0 0 1 -2.11-1.08 3.53 3.53 0 0 1 -.81-2.16v-6.11h-1a1.44 1.44 0 0 1 0-2.88h1v-4.55a1.44 1.44 0 0 1 2.88 0v4.58h.79a1.44 1.44 0 0 1 0 2.88h-.79v5.71c0 .2 0 .48.16.63a.74.74 0 0 0 .51.1 1.44 1.44 0 0 1 1.48 1.43z"/><path d="m103.45 91.47a6.06 6.06 0 0 1 -3.86-1.37 1.43 1.43 0 0 1 1.94-2.1 3 3 0 0 0 3 .35.79.79 0 0 0 .39-.67.8.8 0 0 0 -.53-.67 2.48 2.48 0 0 0 -1-.12 5.46 5.46 0 0 1 -1.9-.26 3.61 3.61 0 0 1 -2.35-3 3.55 3.55 0 0 1 1.08-3 5.11 5.11 0 0 1 4.23-1.06 4.33 4.33 0 0 1 2.27 1.06 1.42 1.42 0 0 1 .1 2 1.45 1.45 0 0 1 -1.85.24 2.21 2.21 0 0 0 -1-.48c-.72-.12-2.06-.07-2 1a.94.94 0 0 0 .43.51 4 4 0 0 0 1 .07 5.47 5.47 0 0 1 2.21.38 3.68 3.68 0 0 1 2.19 3.29 3.74 3.74 0 0 1 -1.66 3.08 4.76 4.76 0 0 1 -2.69.75z"/></g></svg>