<svg viewBox="0 0 280.63 280.63" xmlns="http://www.w3.org/2000/svg"><path d="m0 0h280.63v280.63h-280.63z" fill="#283069"/><path d="m61.71 120.95h157.21v38.72h-157.21z" fill="none" stroke="#c2599d" stroke-miterlimit="10" stroke-width="2"/><g fill="#fff"><path d="m94.67 108.17v20.38a2 2 0 0 1 -2 2 2 2 0 0 1 -1.95-2v-14.43l-5 6.85a2 2 0 0 1 -1.57.8 2 2 0 0 1 -1.56-.8l-5-6.85v14.43a1.94 1.94 0 1 1 -3.87 0v-20.63s0-.07 0-.1v-.1a.09.09 0 0 0 0-.09s0-.07 0-.1 0 0 0-.06 0-.07 0-.1a.11.11 0 0 0 0-.09l.07-.07s0-.06 0-.09l.06-.07s0-.06.07-.09 0 0 0-.07l.1-.06s0-.07.06-.07a.06.06 0 0 1 .06-.06l.07-.06s0 0 .06 0 0 0 0 0 0 0 .07-.06.06 0 .09 0 .07 0 .07-.07a.11.11 0 0 0 .09 0s.07 0 .1 0 .06 0 .1 0 0 0 .06 0a.28.28 0 0 0 .13 0h.06a.26.26 0 0 0 .13 0h.38a.11.11 0 0 1 .07 0h.38a.12.12 0 0 1 .1 0h.1a.09.09 0 0 0 .09 0 .13.13 0 0 0 .1 0s0 0 .06 0l.1.06s.06 0 .06 0a.18.18 0 0 1 .1.06.1.1 0 0 1 .06 0l.1.07.06.06a.18.18 0 0 1 .1.06s0 0 0 .07.06 0 .06.06a.15.15 0 0 1 .07.1s0 0 .06 0l6.91 9.5 7-9.5s0 0 0 0a.18.18 0 0 1 .06-.1s0 0 .07-.06 0 0 .06-.07 0-.06.06-.06l.07-.06s.06 0 .09-.07 0 0 .07 0 .06-.06.09-.06 0 0 .07 0l.09-.06a.12.12 0 0 0 .1 0s0 0 .06 0a.1.1 0 0 0 .1 0h.1a.11.11 0 0 1 .09 0h.1a.11.11 0 0 1 .09 0h.39a.11.11 0 0 0 .09 0h.1a.12.12 0 0 0 .1 0 .08.08 0 0 0 .06 0 .86.86 0 0 1 .13 0 .1.1 0 0 0 .06 0 .13.13 0 0 0 .1 0l.09.07a.15.15 0 0 0 .07 0l.09.06a.06.06 0 0 1 .06.06.18.18 0 0 1 .1.06l.06.07s0 0 .07.06 0 0 0 .07.06.06.06.09l.07.07s0 .06.06.09 0 0 0 .07 0 .06 0 .09a.11.11 0 0 1 0 .1s0 0 0 .06a.13.13 0 0 1 0 .1s0 .06 0 .09a.12.12 0 0 0 0 .1v.29s.41.03.41.06z"/><path d="m110.22 123.53h-9.86a4.22 4.22 0 0 0 4.07 3.23 5.38 5.38 0 0 0 3.36-1.21 1.92 1.92 0 1 1 2.68 2.75 8.93 8.93 0 0 1 -6 2.27 8 8 0 0 1 0-16.06 6.64 6.64 0 0 1 1.4.13 7.74 7.74 0 0 1 5.19 3.67 6.19 6.19 0 0 1 1 3.14 2.87 2.87 0 0 1 -.25.93 1.74 1.74 0 0 1 -1.59 1.15zm-9.31-3.23h6.78a3.55 3.55 0 0 0 -3.26-1.92 4.12 4.12 0 0 0 -3.52 1.92z"/><path d="m128.91 122.44v6.05a1.91 1.91 0 1 1 -3.81 0v-6.05a3.91 3.91 0 0 0 -3.68-4.09c-2.5 0-3.78 2.49-3.78 4.7v5.44a1.92 1.92 0 1 1 -3.84 0v-12.22a1.93 1.93 0 0 1 1.92-1.92 1.88 1.88 0 0 1 1.79 1.31 7.17 7.17 0 0 1 3.91-1.15 7.72 7.72 0 0 1 7.49 7.93z"/><path d="m139.85 128.46a1.9 1.9 0 0 1 -1.92 1.92 7.68 7.68 0 0 1 -.83 0 4.64 4.64 0 0 1 -2.82-1.44 4.72 4.72 0 0 1 -1.08-2.94v-8h-1.38a1.92 1.92 0 0 1 0-3.84h1.38v-6.16a1.92 1.92 0 1 1 3.83 0v6.11h1.06a1.92 1.92 0 0 1 0 3.84h-1.09v7.62c.07.25 0 .64.23.83s.45.13.67.13a1.92 1.92 0 0 1 1.95 1.93z"/><path d="m149.8 130.41a8 8 0 1 1 8.06-8 8 8 0 0 1 -8.06 8zm0-12.13a4.1 4.1 0 1 0 4.1 4.1 4.08 4.08 0 0 0 -4.1-4.1z"/><path d="m173.29 119.34a1.93 1.93 0 0 1 -2.72.1 3.85 3.85 0 0 0 -2.66-1.06 4.06 4.06 0 0 0 -4 4.13v6a1.92 1.92 0 0 1 -3.84 0v-12.21a1.92 1.92 0 0 1 3.74-.58 7.62 7.62 0 0 1 9.34.93 1.88 1.88 0 0 1 .14 2.69z"/><path d="m188.07 123.53h-9.85a4.22 4.22 0 0 0 4.06 3.23 5.33 5.33 0 0 0 3.36-1.21 1.92 1.92 0 0 1 2.72 0 1.89 1.89 0 0 1 0 2.72 8.93 8.93 0 0 1 -6.05 2.27 8 8 0 0 1 0-16.06 6.73 6.73 0 0 1 1.41.13 7.72 7.72 0 0 1 5.18 3.67 6.2 6.2 0 0 1 1 3.14 2.67 2.67 0 0 1 -.26.93 1.73 1.73 0 0 1 -1.57 1.18zm-9.31-3.23h6.79a3.56 3.56 0 0 0 -3.27-1.92 4.14 4.14 0 0 0 -3.52 1.92z"/><path d="m207.18 108.14v20.35a2 2 0 0 1 -3.81.58 8.11 8.11 0 0 1 -12.67-6.69 8.13 8.13 0 0 1 8.09-8.1 8.39 8.39 0 0 1 4.51 1.35v-7.49a1.94 1.94 0 1 1 3.88 0zm-4.18 14.24a4.23 4.23 0 1 0 -4.23 4.22 4.23 4.23 0 0 0 4.23-4.22z"/><path d="m107.32 162.41c-.22 3.74-3.61 5.92-6.65 6.37a13.9 13.9 0 0 1 -1.57.09 10.78 10.78 0 0 1 -8.16-3.58 1.93 1.93 0 0 1 .22-2.69 1.89 1.89 0 0 1 2.66.23 7.18 7.18 0 0 0 6.3 2.17c1.57-.22 3.3-1.18 3.39-2.81a3.15 3.15 0 0 0 -2.59-3.14 10.76 10.76 0 0 0 -2.11-.22 9.65 9.65 0 0 1 -5.25-1.38 6.64 6.64 0 0 1 -2.78-7.07 7.75 7.75 0 0 1 6.37-5.38 11.37 11.37 0 0 1 8.35 2.18 1.92 1.92 0 0 1 -2.37 3 7.27 7.27 0 0 0 -5.47-1.41 3.86 3.86 0 0 0 -3.2 2.62 2.81 2.81 0 0 0 1.28 2.92 6.26 6.26 0 0 0 3.26.69 16.83 16.83 0 0 1 2.75.32 7 7 0 0 1 5.57 7.09z"/><path d="m126.68 160.91a8.1 8.1 0 0 1 -8.09 8.09 8.44 8.44 0 0 1 -4.52-1.34v7.49a1.94 1.94 0 1 1 -3.87 0v-20.35a1.93 1.93 0 0 1 2-1.92 2 2 0 0 1 1.86 1.34 8 8 0 0 1 4.58-1.41 8.11 8.11 0 0 1 8.04 8.1zm-3.87 0a4.23 4.23 0 1 0 -4.22 4.22 4.24 4.24 0 0 0 4.22-4.22z"/><path d="m142 157.74a1.93 1.93 0 0 1 -2.72.1 3.85 3.85 0 0 0 -2.66-1.06 4.07 4.07 0 0 0 -4 4.13v6a1.92 1.92 0 1 1 -3.84 0v-12.21a1.93 1.93 0 0 1 3.75-.58 7.62 7.62 0 0 1 9.34.93 1.89 1.89 0 0 1 .13 2.69z"/><path d="m146.07 150.09a2 2 0 0 1 -2-2v-.09a2 2 0 0 1 4 0v.16a2 2 0 0 1 -2 1.93zm0 18.78a2 2 0 0 1 -2-2v-12.33a2 2 0 0 1 4 0v12.35a2 2 0 0 1 -2 1.98z"/><path d="m166 160.84v6a1.91 1.91 0 1 1 -3.81 0v-6a3.9 3.9 0 0 0 -3.68-4.09c-2.49 0-3.77 2.49-3.77 4.7v5.44a1.92 1.92 0 1 1 -3.84 0v-12.22a1.92 1.92 0 0 1 1.92-1.92 1.89 1.89 0 0 1 1.79 1.31 7.11 7.11 0 0 1 3.9-1.15 7.72 7.72 0 0 1 7.49 7.93z"/><path d="m177 166.86a1.9 1.9 0 0 1 -1.92 1.92 7.68 7.68 0 0 1 -.83 0 4.62 4.62 0 0 1 -2.81-1.44 4.73 4.73 0 0 1 -1.09-2.88v-8.07h-1.38a1.92 1.92 0 1 1 0-3.84h1.38v-6.11a1.92 1.92 0 0 1 3.84 0v6.11h1.05a1.92 1.92 0 1 1 0 3.84h-1.05v7.61c.06.25 0 .64.22.83s.45.13.67.13a1.92 1.92 0 0 1 1.92 1.9z"/><path d="m184.92 168.94a8 8 0 0 1 -5.15-1.83 1.91 1.91 0 0 1 2.59-2.81c.58.54 2.72 1.28 3.94.48a1.07 1.07 0 0 0 .51-.9 1 1 0 0 0 -.7-.89 3.31 3.31 0 0 0 -1.38-.16 7.31 7.31 0 0 1 -2.53-.35 4.81 4.81 0 0 1 -3.13-3.94 4.73 4.73 0 0 1 1.44-4 6.83 6.83 0 0 1 5.63-1.41 5.82 5.82 0 0 1 3 1.41 1.92 1.92 0 0 1 .13 2.69 2 2 0 0 1 -1.64.61 2 2 0 0 1 -.83-.29 3 3 0 0 0 -1.34-.64c-1-.16-2.75-.1-2.63 1.28a1.23 1.23 0 0 0 .58.67 5 5 0 0 0 1.31.1 7.35 7.35 0 0 1 2.94.51 4.9 4.9 0 0 1 2.92 4.38 5 5 0 0 1 -2.21 4.1 6.29 6.29 0 0 1 -3.45.99z"/></g></svg>