<svg viewBox="0 0 160.21 69.69" xmlns="http://www.w3.org/2000/svg"><path d="m1.5 14.62h157.21v38.72h-157.21z" fill="none" opacity=".79" stroke="#e7579a" stroke-miterlimit="10" stroke-width="3"/><g fill="#fff" transform="translate(0 -3.14)"><path d="m32.89 25.22v1a1.33 1.33 0 0 1 -.61 1.08 1.3 1.3 0 0 1 -1.86-.32 1.35 1.35 0 0 1 -.25-.76v-15l-6.69 9.63-.06.1s0 0-.07.06v.07a1.3 1.3 0 0 1 -1.76.23 1 1 0 0 1 -.29-.31l-.06-.1-.09-.13-6.69-9.57v16.32a2.41 2.41 0 0 1 -2.69-2.37v-18.3a1.36 1.36 0 0 1 1.34-1.35 1.29 1.29 0 0 1 1 .42l.07.06a.73.73 0 0 1 .13.23l8.06 11.55 8-11.58.13-.2.06-.06a1.36 1.36 0 0 1 2.34.93z"/><path d="m48.28 25.73a7.78 7.78 0 0 1 -5 1.79 8.27 8.27 0 0 1 -8-8.51c0-4.71 3-8.51 7.39-8.51 3.94 0 6.18 3 6.66 6.94a1.22 1.22 0 0 1 .06.35 1.07 1.07 0 0 1 -.51.93 1 1 0 0 1 -.61.22h-10.13v.06c0 3.39 2.46 6.11 5.47 6.11a5 5 0 0 0 3.26-1.22 1.31 1.31 0 0 1 .68-.22 1.14 1.14 0 0 1 1.12 1.15 1.1 1.1 0 0 1 -.42.87zm-1.44-9.06c-.54-2.21-1.92-3.9-4.19-3.9s-3.68 1.69-4.26 3.9z"/><path d="m54.52 12.48a7.12 7.12 0 0 1 12.48 4.7v9a1.36 1.36 0 0 1 -2.72 0v-9a4.85 4.85 0 0 0 -5.12-4.7c-2 0-3.84.58-4.64 2.27v11.46a1.36 1.36 0 0 1 -2.72 0v-13.38a2.72 2.72 0 0 1 2.72-2.72z"/><path d="m75.9 22.82c0 .06.06 2.14 2 2.14a1.93 1.93 0 0 0 1.57-.77 1.36 1.36 0 0 1 1.09-.57 1.29 1.29 0 0 1 1.28 1.31 1.25 1.25 0 0 1 -.45 1 4.83 4.83 0 0 1 -3.65 1.63 4.51 4.51 0 0 1 -4.64-4.35v-10.38h-2.61a1.18 1.18 0 0 1 -1.25-1.18 1.15 1.15 0 0 1 1.25-1.15h2.62v-4.71a2.78 2.78 0 0 1 2.79-2.65v7.36h5.31a1.18 1.18 0 0 1 1.28 1.15 1.21 1.21 0 0 1 -1.28 1.18h-5.31z"/><path d="m99.93 19.07a8 8 0 1 1 -16 0 8 8 0 1 1 16 0zm-2.72 0c0-3.39-2.59-6.11-5.28-6.11s-5.28 2.72-5.28 6.11 2.59 6.08 5.28 6.08 5.28-2.72 5.28-6.08z"/><path d="m105.05 13a7.12 7.12 0 0 1 5.37-2.46 6.88 6.88 0 0 1 2.92.64 1.25 1.25 0 0 1 1 1.22 1.26 1.26 0 0 1 -2 1 5.42 5.42 0 0 0 -2.59-.67 4.88 4.88 0 0 0 -4.67 2.53v10.88a1.36 1.36 0 1 1 -2.72 0v-13.14a2.7 2.7 0 0 1 2.69-2.52z"/><path d="m128.89 25.73a7.78 7.78 0 0 1 -5 1.79 8.27 8.27 0 0 1 -8-8.51c0-4.71 3-8.51 7.39-8.51 3.93 0 6.17 3 6.65 6.94a1 1 0 0 1 .07.35 1.07 1.07 0 0 1 -.51.93 1 1 0 0 1 -.61.22h-10.14v.06c0 3.39 2.47 6.11 5.48 6.11a5 5 0 0 0 3.26-1.22 1.27 1.27 0 0 1 .67-.22 1.14 1.14 0 0 1 1.12 1.15 1.12 1.12 0 0 1 -.41.87zm-1.44-9.06c-.55-2.21-1.92-3.9-4.19-3.9s-3.68 1.69-4.26 3.9z"/><path d="m145.69 4.9a1.37 1.37 0 0 1 1.37-1.38 1.41 1.41 0 0 1 1.38 1.38v22.43a2.74 2.74 0 0 1 -2.75-2.63v-.06a7.9 7.9 0 0 1 -6.05 2.88 8.27 8.27 0 0 1 -8-8.51 8.26 8.26 0 0 1 8-8.51 7.9 7.9 0 0 1 6.05 2.88zm0 14.14a6.28 6.28 0 0 0 -5.86-6.27c-3 0-5.47 2.88-5.47 6.27s2.43 6.24 5.47 6.24a6.25 6.25 0 0 0 5.86-6.28z"/><path d="m40.52 48.83c-1.57-3.1-7.1-2.65-7.55.58-.74 5.21 11.14 1.85 11.84 10.33.26 2.66-1.89 6.18-7.84 6.18a7.59 7.59 0 0 1 -6.97-4.92l-.09-.25a.15.15 0 0 0 0-.07c0-.09 0-.19 0-.28a1.33 1.33 0 0 1 1.32-1.32 1.35 1.35 0 0 1 1.21.77l.07.16c1.69 4.83 9.72 3.81 9.79 0 .06-5.66-11.91-2.75-11.91-10.11 0-6.27 6.79-5.82 6.79-5.82 5 0 5.95 4 5.95 4a1.1 1.1 0 0 1 .09.45 1.31 1.31 0 0 1 -1.31 1.31 1.3 1.3 0 0 1 -1.25-1z"/><path d="m50 51.84a7.73 7.73 0 0 1 6-2.84 8.49 8.49 0 0 1 0 17 7.73 7.73 0 0 1 -6-3v8.45a1.36 1.36 0 0 1 -2.72 0v-19.71a2.75 2.75 0 0 1 2.72-2.59zm11.27 5.6c0-3.36-2.44-6.11-5.44-6.11a6.12 6.12 0 0 0 0 12.22c2.99 0 5.43-2.75 5.43-6.11z"/><path d="m69.1 51.42a7.12 7.12 0 0 1 5.37-2.42 6.8 6.8 0 0 1 2.91.64 1.24 1.24 0 0 1 1 1.22 1.25 1.25 0 0 1 -2 1 5.42 5.42 0 0 0 -2.59-.67 4.88 4.88 0 0 0 -4.69 2.51v10.84a1.36 1.36 0 1 1 -2.72 0v-13.12a2.69 2.69 0 0 1 2.72-2.52z"/><path d="m80.74 44.71a1.38 1.38 0 1 1 1.38 1.37 1.37 1.37 0 0 1 -1.38-1.37zm2.72 19.9a1.34 1.34 0 1 1 -2.68 0v-13a2.7 2.7 0 0 1 2.68-2.72z"/><path d="m89.42 50.88a7.12 7.12 0 0 1 12.48 4.7v9a1.36 1.36 0 0 1 -2.72 0v-9a4.85 4.85 0 0 0 -5.12-4.7c-2 0-3.84.58-4.64 2.27v11.46a1.36 1.36 0 0 1 -2.72 0v-13.38a2.72 2.72 0 0 1 2.72-2.72z"/><path d="m110.79 61.22c0 .06.07 2.14 2 2.14a1.91 1.91 0 0 0 1.56-.77 1.38 1.38 0 0 1 1.09-.57 1.28 1.28 0 0 1 1.28 1.31 1.25 1.25 0 0 1 -.45 1 4.85 4.85 0 0 1 -3.65 1.63 4.51 4.51 0 0 1 -4.62-4.39v-10.34h-2.63a1.17 1.17 0 0 1 -1.24-1.18 1.14 1.14 0 0 1 1.24-1.15h2.63v-4.71a2.78 2.78 0 0 1 2.78-2.65v7.36h5.31a1.17 1.17 0 0 1 1.28 1.15 1.2 1.2 0 0 1 -1.28 1.18h-5.31z"/><path d="m131.18 61c.09 2.11-1.51 5-6.28 5a6.57 6.57 0 0 1 -6-3.87 1.16 1.16 0 0 1 -.13-.58 1.36 1.36 0 0 1 1.35-1.37 1.31 1.31 0 0 1 1.21.73c0 .07.07.1.07.13 1.47 3.1 7 2.78 7-.06 0-3.78-8.64-1.25-8.93-7.17-.19-4.64 5.15-4.67 5.15-4.67 4.06 0 5.12 3 5.12 3a1.83 1.83 0 0 1 .1.55 1.36 1.36 0 0 1 -1.29 1.31 1.37 1.37 0 0 1 -1.34-1c-1.06-1.73-4.83-1.76-5 .51-.15 3.23 8.71.79 8.97 7.49z"/></g></svg>