<svg xmlns="http://www.w3.org/2000/svg" viewBox="0 0 1200 670"><defs><style>.cls-1{fill:#5936d9;}.cls-2{fill:#f9f9f9;}.cls-3{fill:none;stroke:#f9f9f9;stroke-miterlimit:10;stroke-width:3.89px;}</style></defs><g id="Layer_2" data-name="Layer 2"><g id="Layer_1-2" data-name="Layer 1"><rect class="cls-1" width="1200" height="670"/><path class="cls-2" d="M477.22,290.89v3.84c1.83-2.91,4.62-4.5,8.9-4.5,4.56,0,7.92,1.92,9.8,5.27A11.35,11.35,0,0,1,506,290.23c6.84,0,11.23,4.28,11.23,11.68v16.95h-7.41V302.73c0-4-2.39-6.14-5.81-6.14-4.56,0-6.62,4-6.62,7.84v14.43H490V302.73c0-4-2.45-6.14-5.87-6.14-4.62,0-6.61,4-6.61,7.84v14.43H470.1v-28Z"/><path class="cls-2" d="M551.55,303.17a16.48,16.48,0,0,1-.45,3.46H530.69c.46,4.39,4.27,6.69,8.55,6.69a10.55,10.55,0,0,0,7.64-3.13l4.1,4.72a16.57,16.57,0,0,1-12.08,4.61c-9.58,0-15.91-6.42-15.91-14.59a14.49,14.49,0,0,1,14.88-14.7C546.14,290.23,551.55,295.77,551.55,303.17Zm-20.86-1.37h13.62v-.05c-.28-3.46-3-5.54-6.49-5.54C534.17,296.21,531.32,298.29,530.69,301.8Z"/><path class="cls-2" d="M564.83,290.89v3.84c1.83-2.91,4.68-4.5,8.95-4.5,6.84,0,11.29,4.28,11.29,11.68v16.95h-7.41V302.73c0-4-2.46-6.14-5.88-6.14-4.61,0-6.66,4-6.66,7.84v14.43h-7.41v-28Z"/><path class="cls-2" d="M593.84,290.89v-7.62H601v7.62h6.9v5.7H601V309c0,2.69,1.37,4.06,4.05,4.06a6.75,6.75,0,0,0,3.59-.93v6.25a12.11,12.11,0,0,1-5.53,1.1c-5.92,0-9.52-3.35-9.52-9.44V296.59h-4.1v-5.7Z"/><path class="cls-2" d="M642,304.87c0,8.23-6.44,14.65-15.39,14.65s-15.39-6.42-15.39-14.65,6.55-14.64,15.39-14.64S642,296.65,642,304.87Zm-23.26,0a7.87,7.87,0,1,0,7.87-8.17A7.83,7.83,0,0,0,618.75,304.87Z"/><path class="cls-2" d="M655.51,295.77a8.6,8.6,0,0,1,8.27-5.54,5.46,5.46,0,0,1,1.77.22v6.86a4.16,4.16,0,0,0-1.6-.22c-5.19,0-8.32,3.72-8.32,9.48v12.29h-7.41v-28h7.29Z"/><path class="cls-2" d="M695.93,303.17a15.83,15.83,0,0,1-.46,3.46h-20.4c.45,4.39,4.27,6.69,8.54,6.69a10.52,10.52,0,0,0,7.64-3.13l4.11,4.72a16.59,16.59,0,0,1-12.09,4.61c-9.57,0-15.9-6.42-15.9-14.59a14.48,14.48,0,0,1,14.88-14.7C690.51,290.23,695.93,295.77,695.93,303.17Zm-20.86-1.37h13.62v-.05c-.29-3.46-3-5.54-6.5-5.54C678.54,296.21,675.69,298.29,675.07,301.8Z"/><path class="cls-2" d="M722.94,314.85c-1.82,3.07-6.15,4.67-9.4,4.67-7.53,0-13.63-6-13.63-14.65,0-8.39,5.82-14.64,13.74-14.64,3.48,0,7.07,1.59,8.84,4.22V279.92h7.41v38.94h-7Zm-.17-10c0-5.05-3.42-8.23-7.69-8.23-4.11,0-7.7,3.29-7.7,8.23s3.59,8.33,7.7,8.33C719.35,313.15,722.77,309.86,722.77,304.82Z"/><path class="cls-2" d="M535.5,373.46l5-3.56c1.6,2.41,3.82,4.11,7,4.11,2.73,0,4.39-.93,4.39-2.41,0-1.76-1.54-2.47-6.27-4-5.93-1.92-9.13-4.17-9.13-8.78,0-4.82,4.91-8.33,11.18-8.33,4.79,0,8.72,2.19,10.6,5.53l-5,3.46a6.48,6.48,0,0,0-5.76-3.29c-2.33,0-4.1,1-4.1,2.58s1.54,2.24,6,3.78c5.53,1.92,9.35,3.78,9.35,8.88,0,4.72-4.62,8.34-11.34,8.34C542.22,379.77,537.72,377.41,535.5,373.46Z"/><path class="cls-2" d="M572,355.09c2.06-3.07,6-4.6,9.35-4.6,7.53,0,13.68,6,13.68,14.64,0,8.39-5.81,14.64-13.73,14.64-3.42,0-7.07-1.43-8.84-4v14.31H565V351.14h7Zm.17,10.09c0,5.05,3.43,8.23,7.7,8.23,4.1,0,7.69-3.29,7.69-8.23s-3.59-8.33-7.69-8.33C575.57,356.85,572.14,360.14,572.14,365.18Z"/><path class="cls-2" d="M608.57,356a8.57,8.57,0,0,1,8.26-5.53,5.16,5.16,0,0,1,1.77.22v6.85a4.16,4.16,0,0,0-1.6-.22c-5.18,0-8.32,3.73-8.32,9.49v12.28h-7.41v-28h7.3Z"/><path class="cls-2" d="M631.59,343a4.11,4.11,0,0,1-4.27,4.06,4,4,0,1,1,4.27-4.06Zm-7.92,8.11h7.41v28h-7.41Z"/><path class="cls-2" d="M646.64,351.14V355c1.83-2.9,4.68-4.49,9-4.49,6.84,0,11.29,4.27,11.29,11.68v16.94h-7.41V363c0-4-2.45-6.14-5.87-6.14-4.62,0-6.67,4-6.67,7.84v14.42h-7.41v-28Z"/><path class="cls-2" d="M675.65,351.14v-7.62h7.19v7.62h6.89v5.71h-6.89V369.3c0,2.68,1.36,4.05,4,4.05a6.75,6.75,0,0,0,3.59-.93v6.25a12.11,12.11,0,0,1-5.53,1.1c-5.92,0-9.51-3.35-9.51-9.43V356.85h-4.11v-5.71Z"/><path class="cls-2" d="M693,373.46l5-3.56c1.59,2.41,3.81,4.11,7,4.11,2.74,0,4.39-.93,4.39-2.41,0-1.76-1.54-2.47-6.27-4-5.93-1.92-9.12-4.17-9.12-8.78,0-4.82,4.9-8.33,11.17-8.33,4.79,0,8.72,2.19,10.6,5.53l-5,3.46a6.46,6.46,0,0,0-5.75-3.29c-2.34,0-4.11,1-4.11,2.58s1.54,2.24,6,3.78c5.53,1.92,9.35,3.78,9.35,8.88,0,4.72-4.61,8.34-11.34,8.34C699.71,379.77,695.2,377.41,693,373.46Z"/><line class="cls-3" x1="528.12" y1="378.09" x2="470.1" y2="378.09"/></g></g></svg>