<svg xmlns="http://www.w3.org/2000/svg" viewBox="0 0 192.16 103.67"><defs><style>.cls-1{fill:#160e36;}.cls-2,.cls-3{fill:#36d9c8;}.cls-3{stroke:#36d9c8;stroke-miterlimit:10;stroke-width:2px;}</style></defs><g id="Layer_2" data-name="Layer 2"><g id="Layer_1-2" data-name="Layer 1"><rect class="cls-1" width="192.16" height="103.67"/><path class="cls-2" d="M32.92,29.14v2a4.92,4.92,0,0,1,4.57-2.32,5.44,5.44,0,0,1,5,2.71,5.82,5.82,0,0,1,5.19-2.71c3.52,0,5.77,2.21,5.77,6v8.72H49.69V35.24a2.84,2.84,0,0,0-3-3.16c-2.35,0-3.4,2.06-3.4,4v7.42H39.48V35.24a2.86,2.86,0,0,0-3-3.16c-2.37,0-3.4,2.06-3.4,4v7.42H29.25V29.14Z"/><path class="cls-2" d="M71.16,35.46a8.06,8.06,0,0,1-.24,1.78H60.42c.24,2.26,2.2,3.44,4.4,3.44a5.41,5.41,0,0,0,3.93-1.61l2.11,2.43a8.52,8.52,0,0,1-6.21,2.37c-4.93,0-8.19-3.3-8.19-7.5a7.46,7.46,0,0,1,7.66-7.57C68.37,28.8,71.16,31.65,71.16,35.46Zm-10.74-.7h7v0a3.11,3.11,0,0,0-3.34-2.85A3.49,3.49,0,0,0,60.42,34.76Z"/><path class="cls-2" d="M78,29.14v2a5,5,0,0,1,4.6-2.32c3.52,0,5.81,2.21,5.81,6v8.72H84.59V35.24a2.87,2.87,0,0,0-3-3.16c-2.38,0-3.44,2.06-3.44,4v7.42H74.32V29.14Z"/><path class="cls-2" d="M92.91,29.14V25.22h3.7v3.92h3.55v2.94H96.61v6.4a1.85,1.85,0,0,0,2.08,2.09,3.52,3.52,0,0,0,1.85-.48v3.22a6.4,6.4,0,0,1-2.85.56c-3,0-4.89-1.72-4.89-4.85V32.08H90.68V29.14Z"/><path class="cls-2" d="M117.69,36.34a7.92,7.92,0,1,1-7.91-7.54A7.54,7.54,0,0,1,117.69,36.34Zm-12,0a4,4,0,1,0,4-4.21A4,4,0,0,0,105.73,36.34Z"/><path class="cls-2" d="M124.64,31.65a4.44,4.44,0,0,1,4.26-2.85,2.6,2.6,0,0,1,.91.12v3.52a2.34,2.34,0,0,0-.83-.11c-2.66,0-4.28,1.92-4.28,4.88v6.32h-3.81V29.14h3.75Z"/><path class="cls-2" d="M145.44,35.46a8.06,8.06,0,0,1-.24,1.78H134.7c.24,2.26,2.2,3.44,4.4,3.44A5.41,5.41,0,0,0,143,39.07l2.11,2.43a8.54,8.54,0,0,1-6.22,2.37c-4.92,0-8.18-3.3-8.18-7.5a7.46,7.46,0,0,1,7.66-7.57C142.65,28.8,145.44,31.65,145.44,35.46Zm-10.74-.7h7v0a3.11,3.11,0,0,0-3.34-2.85A3.49,3.49,0,0,0,134.7,34.76Z"/><path class="cls-2" d="M159.33,41.47a5.89,5.89,0,0,1-4.83,2.4c-3.88,0-7-3.1-7-7.53s3-7.54,7.06-7.54A5.58,5.58,0,0,1,159.1,31V23.5h3.81v20h-3.58Zm-.08-5.16a3.94,3.94,0,0,0-4-4.23,4,4,0,0,0-4,4.23,4.06,4.06,0,0,0,4,4.29A4,4,0,0,0,159.25,36.31Z"/><path class="cls-2" d="M62.9,71.63l2.58-1.84a4.19,4.19,0,0,0,3.57,2.12c1.41,0,2.26-.48,2.26-1.24s-.79-1.27-3.22-2.06c-3-1-4.7-2.15-4.7-4.52s2.53-4.29,5.75-4.29a6.09,6.09,0,0,1,5.46,2.85l-2.55,1.78a3.34,3.34,0,0,0-3-1.69c-1.2,0-2.11.53-2.11,1.32s.79,1.16,3.11,2c2.84,1,4.81,1.95,4.81,4.57,0,2.43-2.38,4.29-5.84,4.29A6.86,6.86,0,0,1,62.9,71.63Z"/><path class="cls-2" d="M81.66,62.17a5.91,5.91,0,0,1,4.81-2.37c3.87,0,7,3.11,7,7.54s-3,7.53-7.07,7.53a5.59,5.59,0,0,1-4.54-2.06v7.36H78.08v-20h3.58Zm.09,5.2a3.94,3.94,0,0,0,4,4.23,4.27,4.27,0,0,0,0-8.52A4,4,0,0,0,81.75,67.37Z"/><path class="cls-2" d="M100.49,62.65a4.43,4.43,0,0,1,4.25-2.85,2.57,2.57,0,0,1,.91.12v3.52a2.28,2.28,0,0,0-.82-.11c-2.67,0-4.28,1.92-4.28,4.88v6.32H96.74V60.14h3.75Z"/><path class="cls-2" d="M112.34,56a2.12,2.12,0,0,1-2.2,2.09,2.09,2.09,0,0,1-2.2-2.09,2.06,2.06,0,0,1,2.2-2.06A2.09,2.09,0,0,1,112.34,56Zm-4.08,4.17h3.81V74.53h-3.81Z"/><path class="cls-2" d="M120.08,60.14v2a5,5,0,0,1,4.6-2.32c3.52,0,5.81,2.21,5.81,6v8.72h-3.81V66.24a2.86,2.86,0,0,0-3-3.16c-2.38,0-3.43,2.06-3.43,4v7.42h-3.82V60.14Z"/><path class="cls-2" d="M135,60.14V56.22h3.7v3.92h3.55v2.94H138.7v6.4a1.85,1.85,0,0,0,2.08,2.09,3.5,3.5,0,0,0,1.85-.48v3.22a6.23,6.23,0,0,1-2.85.56c-3,0-4.89-1.72-4.89-4.85V63.08h-2.11V60.14Z"/><path class="cls-2" d="M143.92,71.63l2.58-1.84a4.19,4.19,0,0,0,3.58,2.12c1.41,0,2.25-.48,2.25-1.24s-.79-1.27-3.22-2.06c-3.05-1-4.69-2.15-4.69-4.52s2.52-4.29,5.75-4.29a6.09,6.09,0,0,1,5.45,2.85l-2.55,1.78a3.34,3.34,0,0,0-3-1.69c-1.21,0-2.11.53-2.11,1.32s.79,1.16,3.1,2c2.85,1,4.81,1.95,4.81,4.57,0,2.43-2.37,4.29-5.83,4.29A6.86,6.86,0,0,1,143.92,71.63Z"/><line class="cls-3" x1="59.1" y1="74.01" x2="29.25" y2="74.01"/></g></g></svg>