<svg xmlns="http://www.w3.org/2000/svg" viewBox="0 0 133.66 56.67"><defs><style>.cls-1{fill:#5936d9;}.cls-2{fill:none;stroke:#5936d9;stroke-miterlimit:10;stroke-width:2px;}</style></defs><g id="Layer_2" data-name="Layer 2"><g id="Layer_1-2" data-name="Layer 1"><path class="cls-1" d="M3.67,5.64v2A4.92,4.92,0,0,1,8.24,5.3a5.44,5.44,0,0,1,5,2.71A5.82,5.82,0,0,1,18.48,5.3c3.52,0,5.77,2.21,5.77,6V20H20.44V11.74a2.84,2.84,0,0,0-3-3.16c-2.35,0-3.4,2.06-3.4,4V20H10.23V11.74a2.86,2.86,0,0,0-3-3.16c-2.37,0-3.4,2.06-3.4,4V20H0V5.64Z"/><path class="cls-1" d="M41.91,12a8.06,8.06,0,0,1-.24,1.78H31.17c.24,2.26,2.2,3.44,4.4,3.44a5.41,5.41,0,0,0,3.93-1.61L41.61,18a8.54,8.54,0,0,1-6.22,2.37c-4.92,0-8.18-3.3-8.18-7.5A7.46,7.46,0,0,1,34.87,5.3C39.12,5.3,41.91,8.15,41.91,12Zm-10.74-.7h7v0a3.11,3.11,0,0,0-3.34-2.85A3.49,3.49,0,0,0,31.17,11.26Z"/><path class="cls-1" d="M48.74,5.64v2a5,5,0,0,1,4.6-2.32c3.52,0,5.81,2.21,5.81,6V20H55.34V11.74a2.87,2.87,0,0,0-3-3.16c-2.37,0-3.43,2.06-3.43,4V20H45.07V5.64Z"/><path class="cls-1" d="M63.66,5.64V1.72h3.7V5.64h3.55V8.58H67.36V15a1.85,1.85,0,0,0,2.08,2.09,3.52,3.52,0,0,0,1.85-.48v3.22a6.26,6.26,0,0,1-2.85.56c-3,0-4.89-1.72-4.89-4.85V8.58H61.43V5.64Z"/><path class="cls-1" d="M88.44,12.84A7.92,7.92,0,1,1,80.53,5.3,7.54,7.54,0,0,1,88.44,12.84Zm-12,0a4,4,0,1,0,8.09,0,4,4,0,1,0-8.09,0Z"/><path class="cls-1" d="M95.39,8.15A4.43,4.43,0,0,1,99.64,5.3a2.53,2.53,0,0,1,.91.12V8.94a2.28,2.28,0,0,0-.82-.11c-2.67,0-4.28,1.92-4.28,4.88V20H91.64V5.64h3.75Z"/><path class="cls-1" d="M116.18,12a8.08,8.08,0,0,1-.23,1.78h-10.5c.24,2.26,2.2,3.44,4.4,3.44a5.41,5.41,0,0,0,3.93-1.61L115.89,18a8.54,8.54,0,0,1-6.22,2.37c-4.92,0-8.18-3.3-8.18-7.5a7.46,7.46,0,0,1,7.66-7.57C113.4,5.3,116.18,8.15,116.18,12Zm-10.73-.7h7v0a3.11,3.11,0,0,0-3.34-2.85A3.49,3.49,0,0,0,105.45,11.26Z"/><path class="cls-1" d="M130.08,18a5.89,5.89,0,0,1-4.84,2.4c-3.87,0-7-3.1-7-7.53s3-7.54,7.06-7.54a5.58,5.58,0,0,1,4.55,2.18V0h3.81V20h-3.58ZM130,12.81a3.94,3.94,0,0,0-4-4.23,4,4,0,0,0-4,4.23,4.05,4.05,0,0,0,4,4.29A4,4,0,0,0,130,12.81Z"/><path class="cls-1" d="M33.64,48.13l2.58-1.84a4.21,4.21,0,0,0,3.58,2.12c1.41,0,2.26-.48,2.26-1.24,0-.91-.79-1.27-3.22-2.06-3.05-1-4.7-2.15-4.7-4.52s2.53-4.29,5.75-4.29a6.11,6.11,0,0,1,5.46,2.85l-2.56,1.78a3.31,3.31,0,0,0-3-1.69c-1.2,0-2.11.53-2.11,1.32s.79,1.16,3.11,1.95c2.84,1,4.81,2,4.81,4.57,0,2.43-2.38,4.29-5.84,4.29A6.88,6.88,0,0,1,33.64,48.13Z"/><path class="cls-1" d="M52.41,38.67a5.91,5.91,0,0,1,4.81-2.37c3.87,0,7,3.11,7,7.54s-3,7.53-7.07,7.53a5.59,5.59,0,0,1-4.54-2.06v7.36H48.83v-20h3.58Zm.09,5.2a3.94,3.94,0,0,0,4,4.23,4.27,4.27,0,0,0,0-8.52A4,4,0,0,0,52.5,43.87Z"/><path class="cls-1" d="M71.24,39.15a4.43,4.43,0,0,1,4.25-2.85,2.57,2.57,0,0,1,.91.12v3.52a2.28,2.28,0,0,0-.82-.11c-2.67,0-4.28,1.92-4.28,4.88V51H67.48V36.64h3.76Z"/><path class="cls-1" d="M83.09,32.47a2.12,2.12,0,0,1-2.2,2.09,2.08,2.08,0,0,1-2.2-2.09,2.05,2.05,0,0,1,2.2-2.06A2.09,2.09,0,0,1,83.09,32.47ZM79,36.64h3.81V51H79Z"/><path class="cls-1" d="M90.83,36.64v2a5,5,0,0,1,4.6-2.32c3.52,0,5.81,2.21,5.81,6V51H97.43V42.74a2.86,2.86,0,0,0-3-3.16c-2.38,0-3.44,2.06-3.44,4V51H87.16V36.64Z"/><path class="cls-1" d="M105.75,36.64V32.72h3.7v3.92H113v2.94h-3.55V46a1.85,1.85,0,0,0,2.08,2.09,3.52,3.52,0,0,0,1.85-.48v3.22a6.29,6.29,0,0,1-2.85.56c-3,0-4.89-1.72-4.89-4.85V39.58h-2.12V36.64Z"/><path class="cls-1" d="M114.67,48.13l2.58-1.84a4.19,4.19,0,0,0,3.58,2.12c1.4,0,2.25-.48,2.25-1.24,0-.91-.79-1.27-3.22-2.06-3-1-4.69-2.15-4.69-4.52s2.52-4.29,5.74-4.29a6.09,6.09,0,0,1,5.46,2.85l-2.55,1.78a3.34,3.34,0,0,0-3-1.69c-1.21,0-2.12.53-2.12,1.32s.8,1.16,3.11,1.95c2.85,1,4.81,2,4.81,4.57,0,2.43-2.37,4.29-5.83,4.29A6.86,6.86,0,0,1,114.67,48.13Z"/><line class="cls-2" x1="29.85" y1="50.51" y2="50.51"/></g></g></svg>