<svg xmlns="http://www.w3.org/2000/svg" xmlns:xlink="http://www.w3.org/1999/xlink" viewBox="0 0 132.06 132.61"><defs><style>.cls-1{fill:none;}.cls-2{fill:#d089ff;}.cls-3{fill:#160e36;}.cls-4,.cls-5,.cls-6,.cls-7{fill:url(#Unnamed_Pattern_3);}.cls-5{stroke:#4951fa;}.cls-5,.cls-6,.cls-7{stroke-miterlimit:10;stroke-width:3px;}.cls-6{stroke:#d089ff;}.cls-7{stroke:#dcc7ff;}</style><pattern id="Unnamed_Pattern_3" data-name="Unnamed Pattern 3" width="581.4" height="292.27" patternTransform="translate(621.04 4.19) scale(0.7)" patternUnits="userSpaceOnUse" viewBox="0 0 581.4 292.27"><rect class="cls-1" width="581.4" height="292.27"/><rect class="cls-2" width="581.4" height="292.27"/></pattern></defs><g id="Layer_2" data-name="Layer 2"><g id="Layer_1-2" data-name="Layer 1"><rect class="cls-3" width="132.06" height="132.61"/><path class="cls-4" d="M46.75,57.19v2.5a6,6,0,0,1,5.58-2.93,6.56,6.56,0,0,1,6.14,3.43,7.06,7.06,0,0,1,6.33-3.43c4.29,0,7,2.79,7,7.62v11H67.2V64.91c0-2.61-1.51-4-3.65-4-2.86,0-4.15,2.61-4.15,5.11v9.4H54.76V64.91c0-2.61-1.54-4-3.69-4-2.89,0-4.14,2.61-4.14,5.11v9.4H42.28V57.19Z"/><path class="cls-4" d="M75.16,71.74l3.15-2.32a5.08,5.08,0,0,0,4.36,2.68c1.71,0,2.75-.61,2.75-1.58,0-1.14-1-1.6-3.93-2.61-3.72-1.25-5.72-2.71-5.72-5.72s3.07-5.43,7-5.43a7.34,7.34,0,0,1,6.64,3.61l-3.11,2.25a4,4,0,0,0-3.61-2.14c-1.46,0-2.57.68-2.57,1.68s1,1.46,3.79,2.47c3.47,1.25,5.86,2.46,5.86,5.79,0,3.07-2.89,5.43-7.11,5.43A8.31,8.31,0,0,1,75.16,71.74Z"/><g id="Hex"><path class="cls-5" d="M98.8,47.7A7.18,7.18,0,0,0,96,44.83L69.62,29.58a7.18,7.18,0,0,0-3.59-1"/><path class="cls-6" d="M98.67,85.15a7.2,7.2,0,0,0,1-3.59V51.05a7.22,7.22,0,0,0-.83-3.35"/><path class="cls-7" d="M66,104a7.18,7.18,0,0,0,3.59-1L96,87.78a7.21,7.21,0,0,0,2.63-2.63"/><path class="cls-5" d="M33.4,85.15A7.18,7.18,0,0,0,36,87.78L62.44,103A7.18,7.18,0,0,0,66,104"/><path class="cls-6" d="M33.23,47.76a7.3,7.3,0,0,0-.8,3.29V81.56a7.21,7.21,0,0,0,1,3.59"/><path class="cls-7" d="M66,28.62a7.18,7.18,0,0,0-3.59,1L36,44.83a7.27,7.27,0,0,0-2.79,2.93"/></g></g></g></svg>