<svg xmlns="http://www.w3.org/2000/svg" viewBox="0 0 70.2 78.37"><defs><style>.cls-1{fill:#1d1d1b;}.cls-2{fill:none;stroke:#1d1d1b;stroke-miterlimit:10;stroke-width:3px;}</style></defs><g id="Layer_2" data-name="Layer 2"><g id="Layer_1-2" data-name="Layer 1"><path class="cls-1" d="M15.82,30.07v2.5a6,6,0,0,1,5.57-2.93,6.57,6.57,0,0,1,6.15,3.43,7.06,7.06,0,0,1,6.33-3.43c4.29,0,7,2.79,7,7.61v11H36.26V37.79c0-2.61-1.5-4-3.64-4-2.86,0-4.15,2.61-4.15,5.11v9.4H23.82V37.79c0-2.61-1.53-4-3.68-4C17.25,33.79,16,36.4,16,38.9v9.4H11.35V30.07Z"/><path class="cls-1" d="M44.23,44.62l3.14-2.33A5.08,5.08,0,0,0,51.73,45c1.72,0,2.76-.61,2.76-1.58,0-1.14-1-1.61-3.94-2.61-3.71-1.25-5.71-2.71-5.71-5.72s3.07-5.43,7-5.43a7.36,7.36,0,0,1,6.65,3.61L55.38,35.5a4,4,0,0,0-3.61-2.14c-1.47,0-2.57.68-2.57,1.68s1,1.46,3.79,2.46c3.46,1.26,5.86,2.47,5.86,5.79,0,3.08-2.9,5.44-7.12,5.44A8.29,8.29,0,0,1,44.23,44.62Z"/><g id="Hex"><path class="cls-2" d="M67.86,20.58a7.12,7.12,0,0,0-2.76-2.87L38.69,2.46a7.18,7.18,0,0,0-3.59-1"/><path class="cls-2" d="M67.73,58a7.21,7.21,0,0,0,1-3.59V23.93a7.11,7.11,0,0,0-.84-3.35"/><path class="cls-2" d="M35.1,76.87a7.18,7.18,0,0,0,3.59-1L65.1,60.66A7.21,7.21,0,0,0,67.73,58"/><path class="cls-2" d="M2.46,58a7.29,7.29,0,0,0,2.63,2.63L31.51,75.91a7.18,7.18,0,0,0,3.59,1"/><path class="cls-2" d="M2.3,20.64a7.14,7.14,0,0,0-.8,3.29V54.44a7.2,7.2,0,0,0,1,3.59"/><path class="cls-2" d="M35.1,1.5a7.18,7.18,0,0,0-3.59,1L5.09,17.71A7.21,7.21,0,0,0,2.3,20.64"/></g></g></g></svg>